ultracondensed-thin.ufo
<glyph name="exclam" format="2">
  <advance height="1920" width="275"/>
  <unicode hex="0021"/>
  <outline>
    <contour>
      <point x="148.0" y="0.0" type="curve" smooth="yes"/>
      <point x="128.0" y="0.0" type="line" smooth="yes"/>
      <point x="121.0" y="0.0"/>
      <point x="118.0" y="3.0"/>
      <point x="118.0" y="10.0" type="curve" smooth="yes"/>
      <point x="118.0" y="200.0" type="line" smooth="yes"/>
      <point x="118.0" y="207.0"/>
      <point x="121.0" y="210.0"/>
      <point x="128.0" y="210.0" type="curve" smooth="yes"/>
      <point x="148.0" y="210.0" type="line" smooth="yes"/>
      <point x="155.0" y="210.0"/>
      <point x="158.0" y="207.0"/>
      <point x="158.0" y="200.0" type="curve" smooth="yes"/>
      <point x="158.0" y="10.0" type="line" smooth="yes"/>
      <point x="158.0" y="3.0"/>
      <point x="155.0" y="0.0"/>
    </contour>
    <contour>
      <point x="122.0" y="950.0" type="curve" smooth="yes"/>
      <point x="122.0" y="1440.0" type="line" smooth="yes"/>
      <point x="122.0" y="1447.0"/>
      <point x="125.0" y="1450.0"/>
      <point x="132.0" y="1450.0" type="curve" smooth="yes"/>
      <point x="142.0" y="1450.0" type="line" smooth="yes"/>
      <point x="149.0" y="1450.0"/>
      <point x="152.0" y="1447.0"/>
      <point x="152.0" y="1440.0" type="curve" smooth="yes"/>
      <point x="152.0" y="950.0" type="line" smooth="yes"/>
      <point x="152.0" y="943.0"/>
      <point x="153.0" y="857.0"/>
      <point x="152.0" y="850.0" type="curve" smooth="yes"/>
      <point x="148.0" y="440.0" type="line" smooth="yes"/>
      <point x="148.0" y="433.0"/>
      <point x="145.0" y="430.0"/>
      <point x="138.0" y="430.0" type="curve" smooth="yes"/>
      <point x="136.0" y="430.0" type="line" smooth="yes"/>
      <point x="129.0" y="430.0"/>
      <point x="126.0" y="433.0"/>
      <point x="126.0" y="440.0" type="curve" smooth="yes"/>
      <point x="124.0" y="850.0" type="line" smooth="yes"/>
      <point x="124.0" y="857.0"/>
      <point x="122.0" y="943.0"/>
    </contour>
  </outline>
</glyph>
<glyph name="numbersign" format="2">
  <advance height="1920" width="502"/>
  <unicode hex="0023"/>
  <outline>
    <contour>
      <point x="61.0" y="485.0" type="curve" smooth="yes"/>
      <point x="401.0" y="485.0" type="line" smooth="yes"/>
      <point x="405.0" y="485.0"/>
      <point x="406.0" y="484.0"/>
      <point x="406.0" y="480.0" type="curve" smooth="yes"/>
      <point x="406.0" y="460.0" type="line" smooth="yes"/>
      <point x="406.0" y="456.0"/>
      <point x="405.0" y="455.0"/>
      <point x="401.0" y="455.0" type="curve" smooth="yes"/>
      <point x="61.0" y="455.0" type="line" smooth="yes"/>
      <point x="57.0" y="455.0"/>
      <point x="56.0" y="456.0"/>
      <point x="56.0" y="460.0" type="curve" smooth="yes"/>
      <point x="56.0" y="480.0" type="line" smooth="yes"/>
      <point x="56.0" y="484.0"/>
      <point x="57.0" y="485.0"/>
    </contour>
    <contour>
      <point x="101.0" y="1025.0" type="curve" smooth="yes"/>
      <point x="441.0" y="1025.0" type="line" smooth="yes"/>
      <point x="445.0" y="1025.0"/>
      <point x="446.0" y="1024.0"/>
      <point x="446.0" y="1020.0" type="curve" smooth="yes"/>
      <point x="446.0" y="1000.0" type="line" smooth="yes"/>
      <point x="446.0" y="996.0"/>
      <point x="445.0" y="995.0"/>
      <point x="441.0" y="995.0" type="curve" smooth="yes"/>
      <point x="101.0" y="995.0" type="line" smooth="yes"/>
      <point x="97.0" y="995.0"/>
      <point x="96.0" y="996.0"/>
      <point x="96.0" y="1000.0" type="curve" smooth="yes"/>
      <point x="96.0" y="1020.0" type="line" smooth="yes"/>
      <point x="96.0" y="1024.0"/>
      <point x="97.0" y="1025.0"/>
    </contour>
    <contour>
      <point x="381.0" y="1400.0" type="curve" smooth="yes"/>
      <point x="401.0" y="1400.0" type="line" smooth="yes"/>
      <point x="406.0" y="1400.0"/>
      <point x="406.0" y="1399.0"/>
      <point x="405.0" y="1395.0" type="curve" smooth="yes"/>
      <point x="242.0" y="5.0" type="line" smooth="yes"/>
      <point x="241.0" y="1.0"/>
      <point x="241.0" y="0.0"/>
      <point x="236.0" y="0.0" type="curve" smooth="yes"/>
      <point x="216.0" y="0.0" type="line" smooth="yes"/>
      <point x="211.0" y="0.0"/>
      <point x="211.0" y="1.0"/>
      <point x="212.0" y="5.0" type="curve" smooth="yes"/>
      <point x="375.0" y="1395.0" type="line" smooth="yes"/>
      <point x="376.0" y="1399.0"/>
      <point x="376.0" y="1400.0"/>
    </contour>
    <contour>
      <point x="256.0" y="1400.0" type="curve" smooth="yes"/>
      <point x="276.0" y="1400.0" type="line" smooth="yes"/>
      <point x="280.0" y="1400.0"/>
      <point x="281.0" y="1399.0"/>
      <point x="280.0" y="1395.0" type="curve" smooth="yes"/>
      <point x="117.0" y="5.0" type="line" smooth="yes"/>
      <point x="116.0" y="1.0"/>
      <point x="115.0" y="0.0"/>
      <point x="111.0" y="0.0" type="curve" smooth="yes"/>
      <point x="91.0" y="0.0" type="line" smooth="yes"/>
      <point x="87.0" y="0.0"/>
      <point x="86.0" y="1.0"/>
      <point x="87.0" y="5.0" type="curve" smooth="yes"/>
      <point x="250.0" y="1395.0" type="line" smooth="yes"/>
      <point x="251.0" y="1399.0"/>
      <point x="252.0" y="1400.0"/>
    </contour>
  </outline>
</glyph>
<glyph name="dollar" format="2">
  <advance height="960" width="374"/>
  <unicode hex="0024"/>
  <outline>
    <contour>
      <point x="60.0" y="524.0" type="curve" smooth="yes"/>
      <point x="80.0" y="524.0" type="line" smooth="yes"/>
      <point x="81.0" y="524.0"/>
      <point x="84.9847330468" y="523.999941729"/>
      <point x="85.0" y="520.0" type="curve" smooth="yes"/>
      <point x="86.0" y="258.0" type="line" smooth="yes"/>
      <point x="86.6526622478" y="87.0024910773"/>
      <point x="124.0" y="25.0"/>
      <point x="180.0" y="25.0" type="curve" smooth="yes"/>
      <point x="233.0" y="25.0"/>
      <point x="297.0" y="88.0"/>
      <point x="297.0" y="294.0" type="curve" smooth="yes"/>
      <point x="297.0" y="439.0"/>
      <point x="224.0" y="595.0"/>
      <point x="171.0" y="712.0" type="curve" smooth="yes"/>
      <point x="106.0" y="855.0"/>
      <point x="75.0" y="971.0"/>
      <point x="75.0" y="1166.0" type="curve" smooth="yes"/>
      <point x="75.0" y="1336.0"/>
      <point x="103.0" y="1405.0"/>
      <point x="192.0" y="1405.0" type="curve" smooth="yes"/>
      <point x="285.0" y="1405.0"/>
      <point x="301.0" y="1328.0"/>
      <point x="301.0" y="1150.0" type="curve" smooth="yes"/>
      <point x="301.0" y="906.0" type="line" smooth="yes"/>
      <point x="301.0" y="902.0"/>
      <point x="299.0" y="902.0"/>
      <point x="296.0" y="902.0" type="curve" smooth="yes"/>
      <point x="276.0" y="902.0" type="line" smooth="yes"/>
      <point x="273.0" y="902.0"/>
      <point x="271.0" y="903.0"/>
      <point x="271.0" y="906.0" type="curve" smooth="yes"/>
      <point x="271.0" y="1146.0" type="line" smooth="yes"/>
      <point x="271.0" y="1324.0"/>
      <point x="251.0" y="1375.0"/>
      <point x="192.0" y="1375.0" type="curve" smooth="yes"/>
      <point x="121.0" y="1375.0"/>
      <point x="105.0" y="1311.0"/>
      <point x="105.0" y="1166.0" type="curve" smooth="yes"/>
      <point x="105.0" y="976.0"/>
      <point x="133.0" y="869.0"/>
      <point x="198.0" y="732.0" type="curve" smooth="yes"/>
      <point x="255.0" y="611.0"/>
      <point x="327.0" y="472.0"/>
      <point x="327.0" y="294.0" type="curve" smooth="yes"/>
      <point x="327.0" y="71.0"/>
      <point x="255.0" y="-5.0"/>
      <point x="180.0" y="-5.0" type="curve" smooth="yes"/>
      <point x="109.0" y="-5.0"/>
      <point x="55.0" y="55.0"/>
      <point x="55.0" y="234.0" type="curve" smooth="yes"/>
      <point x="55.0" y="520.0" type="line" smooth="yes"/>
      <point x="55.0" y="524.0"/>
      <point x="59.0" y="524.0"/>
    </contour>
    <contour>
      <point x="179.0" y="1590.0" type="curve" smooth="yes"/>
      <point x="189.0" y="1590.0" type="line" smooth="yes"/>
      <point x="193.0" y="1590.0"/>
      <point x="194.0" y="1589.0"/>
      <point x="194.0" y="1585.0" type="curve" smooth="yes"/>
      <point x="194.0" y="-185.0" type="line" smooth="yes"/>
      <point x="194.0" y="-189.0"/>
      <point x="193.0" y="-190.0"/>
      <point x="189.0" y="-190.0" type="curve" smooth="yes"/>
      <point x="179.0" y="-190.0" type="line" smooth="yes"/>
      <point x="175.0" y="-190.0"/>
      <point x="174.0" y="-189.0"/>
      <point x="174.0" y="-185.0" type="curve" smooth="yes"/>
      <point x="174.0" y="1585.0" type="line" smooth="yes"/>
      <point x="174.0" y="1589.0"/>
      <point x="175.0" y="1590.0"/>
    </contour>
  </outline>
</glyph>
<glyph name="ampersand" format="2">
  <advance height="1920" width="555"/>
  <unicode hex="0026"/>
  <outline>
    <contour>
      <point x="473.0" y="5.0" type="curve" smooth="yes"/>
      <point x="215.0" y="1036.0" type="line" smooth="yes"/>
      <point x="189.0" y="1125.0"/>
      <point x="174.0" y="1175.0"/>
      <point x="174.0" y="1241.0" type="curve" smooth="yes"/>
      <point x="174.0" y="1331.0"/>
      <point x="214.0" y="1405.0"/>
      <point x="318.0" y="1405.0" type="curve" smooth="yes"/>
      <point x="422.0" y="1405.0"/>
      <point x="466.0" y="1336.0"/>
      <point x="466.0" y="1231.0" type="curve" smooth="yes"/>
      <point x="466.0" y="1094.0"/>
      <point x="392.0" y="1013.0"/>
      <point x="244.0" y="948.0" type="curve" smooth="yes"/>
      <point x="116.0" y="892.0"/>
      <point x="73.0" y="826.0"/>
      <point x="73.0" y="704.0" type="curve" smooth="yes"/>
      <point x="73.0" y="665.0"/>
      <point x="92.0" y="570.0"/>
      <point x="110.0" y="503.0" type="curve" smooth="yes"/>
      <point x="181.0" y="236.0" type="line" smooth="yes"/>
      <point x="215.0" y="107.0"/>
      <point x="221.0" y="25.0"/>
      <point x="291.0" y="25.0" type="curve" smooth="yes"/>
      <point x="407.0" y="25.0"/>
      <point x="485.0" y="360.0"/>
      <point x="492.0" y="644.0" type="curve" smooth="yes"/>
      <point x="492.0" y="647.0"/>
      <point x="495.0" y="648.0"/>
      <point x="498.0" y="648.0" type="curve" smooth="yes"/>
      <point x="508.0" y="648.0" type="line" smooth="yes"/>
      <point x="512.0" y="648.0"/>
      <point x="514.0" y="646.0"/>
      <point x="514.0" y="642.0" type="curve" smooth="yes"/>
      <point x="504.0" y="347.0"/>
      <point x="435.0" y="-5.0"/>
      <point x="291.0" y="-5.0" type="curve" smooth="yes"/>
      <point x="203.0" y="-5.0"/>
      <point x="191.0" y="75.0"/>
      <point x="146.0" y="249.0" type="curve" smooth="yes"/>
      <point x="84.0" y="489.0" type="line" smooth="yes"/>
      <point x="61.0" y="578.0"/>
      <point x="43.0" y="646.0"/>
      <point x="43.0" y="704.0" type="curve" smooth="yes"/>
      <point x="43.0" y="858.0"/>
      <point x="117.0" y="916.0"/>
      <point x="240.0" y="975.0" type="curve" smooth="yes"/>
      <point x="377.0" y="1041.0"/>
      <point x="436.0" y="1099.0"/>
      <point x="436.0" y="1226.0" type="curve" smooth="yes"/>
      <point x="436.0" y="1326.0"/>
      <point x="401.0" y="1375.0"/>
      <point x="318.0" y="1375.0" type="curve" smooth="yes"/>
      <point x="240.0" y="1375.0"/>
      <point x="204.0" y="1316.0"/>
      <point x="204.0" y="1241.0" type="curve" smooth="yes"/>
      <point x="204.0" y="1181.0"/>
      <point x="234.0" y="1087.0"/>
      <point x="241.0" y="1056.0" type="curve" smooth="yes"/>
      <point x="503.0" y="5.0" type="line" smooth="yes"/>
      <point x="504.0" y="2.0"/>
      <point x="505.0" y="0.0"/>
      <point x="501.0" y="0.0" type="curve" smooth="yes"/>
      <point x="481.0" y="0.0" type="line" smooth="yes"/>
      <point x="477.0" y="0.0"/>
      <point x="475.0" y="2.0"/>
    </contour>
  </outline>
</glyph>
<glyph name="quotesingle" format="2">
  <advance height="1920" width="275"/>
  <unicode hex="0027"/>
  <outline>
    <contour>
      <point x="140.0" y="930.0" type="curve" smooth="yes"/>
      <point x="136.0" y="930.0" type="line" smooth="yes"/>
      <point x="129.0" y="930.0"/>
      <point x="127.0" y="933.0"/>
      <point x="126.0" y="940.0" type="curve" smooth="yes"/>
      <point x="124.0" y="1150.0" type="line" smooth="yes"/>
      <point x="124.0" y="1187.0"/>
      <point x="122.0" y="1203.0"/>
      <point x="122.0" y="1230.0" type="curve" smooth="yes"/>
      <point x="122.0" y="1410.0" type="line" smooth="yes"/>
      <point x="122.0" y="1417.0"/>
      <point x="125.0" y="1420.0"/>
      <point x="132.0" y="1420.0" type="curve" smooth="yes"/>
      <point x="142.0" y="1420.0" type="line" smooth="yes"/>
      <point x="149.0" y="1420.0"/>
      <point x="152.0" y="1417.0"/>
      <point x="152.0" y="1410.0" type="curve" smooth="yes"/>
      <point x="152.0" y="1230.0" type="line" smooth="yes"/>
      <point x="152.0" y="1203.0"/>
      <point x="152.0" y="1187.0"/>
      <point x="152.0" y="1150.0" type="curve" smooth="yes"/>
      <point x="150.0" y="940.0" type="line" smooth="yes"/>
      <point x="149.0" y="933.0"/>
      <point x="147.0" y="930.0"/>
    </contour>
  </outline>
</glyph>
<glyph name="parenright" format="2">
  <advance height="2048" width="294"/>
  <unicode hex="0029"/>
  <outline>
    <contour>
      <point x="259.0" y="26.0" type="line" smooth="yes"/>
      <point x="259.0" y="-176.0"/>
      <point x="190.0" y="-336.0"/>
      <point x="50.0" y="-364.0" type="curve" smooth="yes"/>
      <point x="46.0" y="-365.0"/>
      <point x="45.0" y="-364.0"/>
      <point x="45.0" y="-360.0" type="curve" smooth="yes"/>
      <point x="45.0" y="-355.0" type="line" smooth="yes"/>
      <point x="45.0" y="-352.0"/>
      <point x="46.0" y="-349.0"/>
      <point x="49.0" y="-348.0" type="curve" smooth="yes"/>
      <point x="158.0" y="-317.0"/>
      <point x="229.0" y="-184.0"/>
      <point x="229.0" y="16.0" type="curve" smooth="yes"/>
      <point x="229.0" y="1229.0" type="line" smooth="yes"/>
      <point x="229.0" y="1429.0"/>
      <point x="158.0" y="1562.0"/>
      <point x="49.0" y="1593.0" type="curve" smooth="yes"/>
      <point x="46.0" y="1594.0"/>
      <point x="45.0" y="1597.0"/>
      <point x="45.0" y="1600.0" type="curve" smooth="yes"/>
      <point x="45.0" y="1605.0" type="line" smooth="yes"/>
      <point x="45.0" y="1609.0"/>
      <point x="46.0" y="1610.0"/>
      <point x="50.0" y="1609.0" type="curve" smooth="yes"/>
      <point x="190.0" y="1581.0"/>
      <point x="259.0" y="1421.0"/>
      <point x="259.0" y="1219.0" type="curve" smooth="yes"/>
    </contour>
  </outline>
</glyph>
<glyph name="asterisk" format="2">
  <advance height="2048" width="500"/>
  <unicode hex="002A"/>
  <outline>
    <contour>
      <point x="251.0" y="1205.0" type="line"/>
      <point x="248.0" y="1215.0" type="line"/>
      <point x="410.0" y="1283.0" type="line" smooth="yes"/>
      <point x="414.0" y="1284.0"/>
      <point x="415.0" y="1285.0"/>
      <point x="419.0" y="1286.0" type="curve" smooth="yes"/>
      <point x="444.0" y="1290.0" type="line" smooth="yes"/>
      <point x="448.0" y="1291.0"/>
      <point x="450.0" y="1289.0"/>
      <point x="451.0" y="1285.0" type="curve" smooth="yes"/>
      <point x="457.0" y="1267.0" type="line" smooth="yes"/>
      <point x="458.0" y="1263.0"/>
      <point x="458.0" y="1262.0"/>
      <point x="454.0" y="1261.0" type="curve" smooth="yes"/>
      <point x="431.0" y="1250.0" type="line" smooth="yes"/>
      <point x="427.0" y="1249.0"/>
      <point x="426.0" y="1247.0"/>
      <point x="422.0" y="1246.0" type="curve" smooth="yes"/>
    </contour>
    <contour>
      <point x="245.0" y="1207.0" type="line"/>
      <point x="254.0" y="1213.0" type="line"/>
      <point x="368.0" y="1080.0" type="line" smooth="yes"/>
      <point x="370.0" y="1077.0"/>
      <point x="372.0" y="1075.0"/>
      <point x="374.0" y="1072.0" type="curve" smooth="yes"/>
      <point x="385.0" y="1049.0" type="line" smooth="yes"/>
      <point x="387.0" y="1046.0"/>
      <point x="387.0" y="1044.0"/>
      <point x="384.0" y="1042.0" type="curve" smooth="yes"/>
      <point x="368.0" y="1030.0" type="line" smooth="yes"/>
      <point x="365.0" y="1028.0"/>
      <point x="363.0" y="1029.0"/>
      <point x="361.0" y="1032.0" type="curve" smooth="yes"/>
      <point x="343.0" y="1049.0" type="line" smooth="yes"/>
      <point x="341.0" y="1052.0"/>
      <point x="339.0" y="1055.0"/>
      <point x="337.0" y="1058.0" type="curve" smooth="yes"/>
    </contour>
    <contour>
      <point x="245.0" y="1213.0" type="line"/>
      <point x="254.0" y="1207.0" type="line"/>
      <point x="162.0" y="1057.0" type="line" smooth="yes"/>
      <point x="160.0" y="1054.0"/>
      <point x="159.0" y="1052.0"/>
      <point x="157.0" y="1049.0" type="curve" smooth="yes"/>
      <point x="139.0" y="1031.0" type="line" smooth="yes"/>
      <point x="137.0" y="1028.0"/>
      <point x="134.0" y="1028.0"/>
      <point x="131.0" y="1030.0" type="curve" smooth="yes"/>
      <point x="115.0" y="1042.0" type="line" smooth="yes"/>
      <point x="112.0" y="1044.0"/>
      <point x="112.0" y="1046.0"/>
      <point x="114.0" y="1049.0" type="curve" smooth="yes"/>
      <point x="126.0" y="1071.0" type="line" smooth="yes"/>
      <point x="128.0" y="1074.0"/>
      <point x="130.0" y="1076.0"/>
      <point x="132.0" y="1079.0" type="curve" smooth="yes"/>
    </contour>
    <contour>
      <point x="251.0" y="1215.0" type="line"/>
      <point x="248.0" y="1205.0" type="line"/>
      <point x="77.0" y="1246.0" type="line" smooth="yes"/>
      <point x="73.0" y="1247.0"/>
      <point x="72.0" y="1248.0"/>
      <point x="68.0" y="1249.0" type="curve" smooth="yes"/>
      <point x="45.0" y="1260.0" type="line" smooth="yes"/>
      <point x="41.0" y="1261.0"/>
      <point x="41.0" y="1263.0"/>
      <point x="42.0" y="1267.0" type="curve" smooth="yes"/>
      <point x="48.0" y="1285.0" type="line" smooth="yes"/>
      <point x="49.0" y="1289.0"/>
      <point x="50.0" y="1290.0"/>
      <point x="54.0" y="1289.0" type="curve" smooth="yes"/>
      <point x="79.0" y="1285.0" type="line" smooth="yes"/>
      <point x="83.0" y="1284.0"/>
      <point x="85.0" y="1283.0"/>
      <point x="89.0" y="1282.0" type="curve" smooth="yes"/>
    </contour>
    <contour>
      <point x="255.0" y="1210.0" type="line"/>
      <point x="244.0" y="1210.0" type="line"/>
      <point x="230.0" y="1385.0" type="line" smooth="yes"/>
      <point x="230.0" y="1389.0"/>
      <point x="230.0" y="1391.0"/>
      <point x="230.0" y="1395.0" type="curve" smooth="yes"/>
      <point x="234.0" y="1420.0" type="line" smooth="yes"/>
      <point x="234.0" y="1424.0"/>
      <point x="236.0" y="1425.0"/>
      <point x="240.0" y="1425.0" type="curve" smooth="yes"/>
      <point x="259.0" y="1425.0" type="line" smooth="yes"/>
      <point x="263.0" y="1425.0"/>
      <point x="264.0" y="1424.0"/>
      <point x="264.0" y="1420.0" type="curve" smooth="yes"/>
      <point x="268.0" y="1395.0" type="line" smooth="yes"/>
      <point x="268.0" y="1391.0"/>
      <point x="268.0" y="1389.0"/>
      <point x="268.0" y="1385.0" type="curve" smooth="yes"/>
    </contour>
  </outline>
</glyph>
<glyph name="plus" format="2">
  <advance height="1920" width="540"/>
  <unicode hex="002B"/>
  <outline>
    <contour>
      <point x="45.0" y="675.0" type="curve" smooth="yes"/>
      <point x="45.0" y="697.0" type="line" smooth="yes"/>
      <point x="45.0" y="701.0"/>
      <point x="47.0" y="702.0"/>
      <point x="51.0" y="702.0" type="curve" smooth="yes"/>
      <point x="489.0" y="702.0" type="line" smooth="yes"/>
      <point x="493.0" y="702.0"/>
      <point x="495.0" y="701.0"/>
      <point x="495.0" y="697.0" type="curve" smooth="yes"/>
      <point x="495.0" y="675.0" type="line" smooth="yes"/>
      <point x="495.0" y="671.0"/>
      <point x="493.0" y="671.0"/>
      <point x="489.0" y="671.0" type="curve" smooth="yes"/>
      <point x="51.0" y="671.0" type="line" smooth="yes"/>
      <point x="47.0" y="671.0"/>
      <point x="45.0" y="671.0"/>
    </contour>
    <contour>
      <point x="261.0" y="935.0" type="curve" smooth="yes"/>
      <point x="279.0" y="935.0" type="line" smooth="yes"/>
      <point x="283.0" y="935.0"/>
      <point x="285.0" y="934.0"/>
      <point x="285.0" y="930.0" type="curve" smooth="yes"/>
      <point x="285.0" y="430.0" type="line" smooth="yes"/>
      <point x="285.0" y="426.0"/>
      <point x="283.0" y="425.0"/>
      <point x="279.0" y="425.0" type="curve" smooth="yes"/>
      <point x="261.0" y="425.0" type="line" smooth="yes"/>
      <point x="257.0" y="425.0"/>
      <point x="255.0" y="426.0"/>
      <point x="255.0" y="430.0" type="curve" smooth="yes"/>
      <point x="255.0" y="930.0" type="line" smooth="yes"/>
      <point x="255.0" y="934.0"/>
      <point x="257.0" y="935.0"/>
    </contour>
  </outline>
</glyph>
<glyph name="comma" format="2">
  <advance height="1920" width="275"/>
  <unicode hex="002C"/>
  <outline>
    <contour>
      <point x="104.0" y="-210.0" type="curve" smooth="yes"/>
      <point x="102.0" y="-210.0" type="line" smooth="yes"/>
      <point x="95.0" y="-210.0"/>
      <point x="94.0" y="-208.0"/>
      <point x="96.0" y="-200.0" type="curve" smooth="yes"/>
      <point x="134.0" y="0.0" type="line"/>
      <point x="128.0" y="0.0" type="line" smooth="yes"/>
      <point x="119.0" y="0.0"/>
      <point x="118.0" y="1.0"/>
      <point x="118.0" y="10.0" type="curve" smooth="yes"/>
      <point x="118.0" y="200.0" type="line" smooth="yes"/>
      <point x="118.0" y="207.0"/>
      <point x="121.0" y="210.0"/>
      <point x="128.0" y="210.0" type="curve" smooth="yes"/>
      <point x="148.0" y="210.0" type="line" smooth="yes"/>
      <point x="155.0" y="210.0"/>
      <point x="158.0" y="207.0"/>
      <point x="158.0" y="200.0" type="curve" smooth="yes"/>
      <point x="158.0" y="20.0" type="line" smooth="yes"/>
      <point x="158.0" y="13.0"/>
      <point x="158.0" y="7.0"/>
      <point x="156.0" y="0.0" type="curve" smooth="yes"/>
      <point x="114.0" y="-200.0" type="line" smooth="yes"/>
      <point x="112.0" y="-209.0"/>
      <point x="110.0" y="-210.0"/>
    </contour>
  </outline>
</glyph>
<glyph name="hyphen" format="2">
  <advance height="1920" width="329"/>
  <unicode hex="002D"/>
  <outline>
    <contour>
      <point x="42.0" y="603.0" type="curve" smooth="yes"/>
      <point x="42.0" y="622.0" type="line" smooth="yes"/>
      <point x="42.0" y="626.0"/>
      <point x="44.0" y="627.0"/>
      <point x="48.0" y="627.0" type="curve" smooth="yes"/>
      <point x="282.0" y="627.0" type="line" smooth="yes"/>
      <point x="286.0" y="627.0"/>
      <point x="288.0" y="626.0"/>
      <point x="288.0" y="622.0" type="curve" smooth="yes"/>
      <point x="288.0" y="603.0" type="line" smooth="yes"/>
      <point x="288.0" y="599.0"/>
      <point x="286.0" y="598.0"/>
      <point x="282.0" y="598.0" type="curve" smooth="yes"/>
      <point x="48.0" y="598.0" type="line" smooth="yes"/>
      <point x="44.0" y="598.0"/>
      <point x="42.0" y="599.0"/>
    </contour>
  </outline>
</glyph>
<glyph name="period" format="2">
  <advance height="1920" width="275"/>
  <unicode hex="002E"/>
  <outline>
    <contour>
      <point x="148.0" y="0.0" type="curve" smooth="yes"/>
      <point x="128.0" y="0.0" type="line" smooth="yes"/>
      <point x="121.0" y="0.0"/>
      <point x="118.0" y="3.0"/>
      <point x="118.0" y="10.0" type="curve" smooth="yes"/>
      <point x="118.0" y="200.0" type="line" smooth="yes"/>
      <point x="118.0" y="207.0"/>
      <point x="121.0" y="210.0"/>
      <point x="128.0" y="210.0" type="curve" smooth="yes"/>
      <point x="148.0" y="210.0" type="line" smooth="yes"/>
      <point x="155.0" y="210.0"/>
      <point x="158.0" y="207.0"/>
      <point x="158.0" y="200.0" type="curve" smooth="yes"/>
      <point x="158.0" y="10.0" type="line" smooth="yes"/>
      <point x="158.0" y="3.0"/>
      <point x="155.0" y="0.0"/>
    </contour>
  </outline>
</glyph>
<glyph name="slash" format="2">
  <advance height="2048" width="380"/>
  <unicode hex="002F"/>
  <outline>
    <contour>
      <point x="362.0" y="1395.0" type="curve" smooth="yes"/>
      <point x="53.0" y="-95.0" type="line" smooth="yes"/>
      <point x="51.0" y="-99.0"/>
      <point x="50.0" y="-100.0"/>
      <point x="46.0" y="-100.0" type="curve" smooth="yes"/>
      <point x="28.0" y="-100.0" type="line" smooth="yes"/>
      <point x="24.0" y="-100.0"/>
      <point x="22.0" y="-99.0"/>
      <point x="23.0" y="-95.0" type="curve" smooth="yes"/>
      <point x="332.0" y="1395.0" type="line" smooth="yes"/>
      <point x="333.0" y="1399.0"/>
      <point x="336.0" y="1400.0"/>
      <point x="339.0" y="1400.0" type="curve" smooth="yes"/>
      <point x="357.0" y="1400.0" type="line" smooth="yes"/>
      <point x="361.0" y="1400.0"/>
      <point x="363.0" y="1399.0"/>
    </contour>
  </outline>
</glyph>
<glyph name="zero" format="2">
  <advance height="1920" width="380"/>
  <unicode hex="0030"/>
  <outline>
    <contour>
      <point x="68.0" y="244.0" type="curve" smooth="yes"/>
      <point x="68.0" y="1155.0" type="line" smooth="yes"/>
      <point x="68.0" y="1318.0"/>
      <point x="79.0" y="1405.0"/>
      <point x="190.0" y="1405.0" type="curve" smooth="yes"/>
      <point x="301.0" y="1405.0"/>
      <point x="312.0" y="1318.0"/>
      <point x="312.0" y="1155.0" type="curve" smooth="yes"/>
      <point x="312.0" y="244.0" type="line" smooth="yes"/>
      <point x="312.0" y="81.0"/>
      <point x="301.0" y="-5.0"/>
      <point x="190.0" y="-5.0" type="curve" smooth="yes"/>
      <point x="79.0" y="-5.0"/>
      <point x="68.0" y="81.0"/>
    </contour>
    <contour>
      <point x="98.0" y="254.0" type="line" smooth="yes"/>
      <point x="98.0" y="130.0"/>
      <point x="103.0" y="25.0"/>
      <point x="190.0" y="25.0" type="curve" smooth="yes"/>
      <point x="277.0" y="25.0"/>
      <point x="282.0" y="130.0"/>
      <point x="282.0" y="254.0" type="curve" smooth="yes"/>
      <point x="282.0" y="1145.0" type="line" smooth="yes"/>
      <point x="282.0" y="1269.0"/>
      <point x="277.0" y="1375.0"/>
      <point x="190.0" y="1375.0" type="curve" smooth="yes"/>
      <point x="103.0" y="1375.0"/>
      <point x="98.0" y="1269.0"/>
      <point x="98.0" y="1145.0" type="curve" smooth="yes"/>
    </contour>
  </outline>
</glyph>
<glyph name="one" format="2">
  <advance height="1920" width="232"/>
  <unicode hex="0031"/>
  <outline>
    <contour>
      <point x="107.0" y="1376.0" type="curve" smooth="yes"/>
      <point x="115.0" y="1384.0"/>
      <point x="114.0" y="1400.0"/>
      <point x="115.0" y="1440.0" type="curve" smooth="yes"/>
      <point x="115.0" y="1447.0"/>
      <point x="115.0" y="1450.0"/>
      <point x="122.0" y="1450.0" type="curve" smooth="yes"/>
      <point x="124.0" y="1450.0" type="line" smooth="yes"/>
      <point x="131.0" y="1450.0"/>
      <point x="131.0" y="1447.0"/>
      <point x="131.0" y="1440.0" type="curve" smooth="yes"/>
      <point x="131.0" y="10.0" type="line" smooth="yes"/>
      <point x="131.0" y="3.0"/>
      <point x="128.0" y="0.0"/>
      <point x="121.0" y="0.0" type="curve" smooth="yes"/>
      <point x="111.0" y="0.0" type="line" smooth="yes"/>
      <point x="104.0" y="0.0"/>
      <point x="101.0" y="3.0"/>
      <point x="101.0" y="10.0" type="curve" smooth="yes"/>
      <point x="101.0" y="1364.0" type="line" smooth="yes"/>
      <point x="101.0" y="1371.0"/>
      <point x="104.0" y="1373.0"/>
    </contour>
  </outline>
</glyph>
<glyph name="two" format="2">
  <advance height="1920" width="357"/>
  <unicode hex="0032"/>
  <outline>
    <contour>
      <point x="60.0" y="130.0" type="line" smooth="yes"/>
      <point x="60.0" y="482.0"/>
      <point x="258.0" y="668.0"/>
      <point x="258.0" y="967.0" type="curve" smooth="yes"/>
      <point x="258.0" y="1138.0" type="line" smooth="yes"/>
      <point x="258.0" y="1323.0"/>
      <point x="247.0" y="1375.0"/>
      <point x="185.0" y="1375.0" type="curve" smooth="yes"/>
      <point x="115.0" y="1375.0"/>
      <point x="102.0" y="1270.0"/>
      <point x="102.0" y="1140.0" type="curve" smooth="yes"/>
      <point x="102.0" y="817.0" type="line" smooth="yes"/>
      <point x="102.0" y="813.0"/>
      <point x="102.0" y="812.0"/>
      <point x="98.0" y="812.0" type="curve" smooth="yes"/>
      <point x="78.0" y="812.0" type="line" smooth="yes"/>
      <point x="74.0" y="812.0"/>
      <point x="72.0" y="813.0"/>
      <point x="72.0" y="817.0" type="curve" smooth="yes"/>
      <point x="72.0" y="1140.0" type="line" smooth="yes"/>
      <point x="72.0" y="1321.0"/>
      <point x="101.0" y="1405.0"/>
      <point x="185.0" y="1405.0" type="curve" smooth="yes"/>
      <point x="274.0" y="1405.0"/>
      <point x="288.0" y="1340.0"/>
      <point x="288.0" y="1135.0" type="curve" smooth="yes"/>
      <point x="288.0" y="1005.0" type="line" smooth="yes"/>
      <point x="288.0" y="647.0"/>
      <point x="90.0" y="460.0"/>
      <point x="90.0" y="150.0" type="curve" smooth="yes"/>
      <point x="90.0" y="30.0" type="line"/>
      <point x="300.0" y="30.0" type="line" smooth="yes"/>
      <point x="304.0" y="30.0"/>
      <point x="305.0" y="29.0"/>
      <point x="305.0" y="25.0" type="curve" smooth="yes"/>
      <point x="305.0" y="5.0" type="line" smooth="yes"/>
      <point x="305.0" y="1.0"/>
      <point x="304.0" y="0.0"/>
      <point x="300.0" y="0.0" type="curve" smooth="yes"/>
      <point x="65.0" y="0.0" type="line" smooth="yes"/>
      <point x="61.0" y="0.0"/>
      <point x="60.0" y="1.0"/>
      <point x="60.0" y="5.0" type="curve" smooth="yes"/>
    </contour>
  </outline>
</glyph>
<glyph name="four" format="2">
  <advance height="1920" width="425"/>
  <unicode hex="0034"/>
  <outline>
    <contour>
      <point x="384.0" y="430.0" type="curve" smooth="yes"/>
      <point x="384.0" y="410.0" type="line" smooth="yes"/>
      <point x="384.0" y="406.0"/>
      <point x="383.0" y="405.0"/>
      <point x="379.0" y="405.0" type="curve" smooth="yes"/>
      <point x="289.0" y="405.0" type="line"/>
      <point x="289.0" y="5.0" type="line" smooth="yes"/>
      <point x="289.0" y="1.0"/>
      <point x="288.0" y="0.0"/>
      <point x="284.0" y="0.0" type="curve" smooth="yes"/>
      <point x="264.0" y="0.0" type="line" smooth="yes"/>
      <point x="260.0" y="0.0"/>
      <point x="259.0" y="1.0"/>
      <point x="259.0" y="5.0" type="curve" smooth="yes"/>
      <point x="259.0" y="405.0" type="line"/>
      <point x="24.0" y="405.0" type="line" smooth="yes"/>
      <point x="20.0" y="405.0"/>
      <point x="19.0" y="406.0"/>
      <point x="19.0" y="410.0" type="curve" smooth="yes"/>
      <point x="19.0" y="420.0" type="line" smooth="yes"/>
      <point x="19.0" y="424.0"/>
      <point x="21.0" y="431.0"/>
      <point x="22.0" y="435.0" type="curve" smooth="yes"/>
      <point x="270.0" y="1395.0" type="line" smooth="yes"/>
      <point x="271.0" y="1398.0"/>
      <point x="272.0" y="1400.0"/>
      <point x="276.0" y="1400.0" type="curve" smooth="yes"/>
      <point x="284.0" y="1400.0" type="line" smooth="yes"/>
      <point x="288.0" y="1400.0"/>
      <point x="289.0" y="1399.0"/>
      <point x="289.0" y="1395.0" type="curve" smooth="yes"/>
      <point x="289.0" y="435.0" type="line"/>
      <point x="379.0" y="435.0" type="line" smooth="yes"/>
      <point x="383.0" y="435.0"/>
      <point x="384.0" y="434.0"/>
    </contour>
    <contour>
      <point x="259.0" y="435.0" type="line"/>
      <point x="259.0" y="1260.0" type="line"/>
      <point x="46.0" y="435.0" type="line"/>
    </contour>
  </outline>
</glyph>
<glyph name="five" format="2">
  <advance height="1920" width="366"/>
  <unicode hex="0035"/>
  <outline>
    <contour>
      <point x="76.0" y="364.0" type="curve" smooth="yes"/>
      <point x="96.0" y="364.0" type="line" smooth="yes"/>
      <point x="99.0" y="364.0"/>
      <point x="101.0" y="363.0"/>
      <point x="101.0" y="360.0" type="curve" smooth="yes"/>
      <point x="101.0" y="91.0"/>
      <point x="126.0" y="25.0"/>
      <point x="178.0" y="25.0" type="curve" smooth="yes"/>
      <point x="242.0" y="25.0"/>
      <point x="256.0" y="133.0"/>
      <point x="256.0" y="319.0" type="curve" smooth="yes"/>
      <point x="256.0" y="612.0" type="line" smooth="yes"/>
      <point x="256.0" y="832.0"/>
      <point x="238.0" y="908.0"/>
      <point x="196.0" y="908.0" type="curve" smooth="yes"/>
      <point x="151.0" y="908.0"/>
      <point x="129.0" y="827.0"/>
      <point x="120.0" y="659.0" type="curve" smooth="yes"/>
      <point x="120.0" y="655.0"/>
      <point x="115.0" y="653.0"/>
      <point x="112.0" y="653.0" type="curve" smooth="yes"/>
      <point x="86.0" y="653.0" type="line" smooth="yes"/>
      <point x="82.0" y="653.0"/>
      <point x="81.0" y="655.0"/>
      <point x="82.0" y="659.0" type="curve" smooth="yes"/>
      <point x="116.0" y="1395.0" type="line" smooth="yes"/>
      <point x="117.0" y="1398.0"/>
      <point x="118.0" y="1400.0"/>
      <point x="122.0" y="1400.0" type="curve" smooth="yes"/>
      <point x="332.0" y="1400.0" type="line" smooth="yes"/>
      <point x="336.0" y="1400.0"/>
      <point x="336.0" y="1399.0"/>
      <point x="336.0" y="1395.0" type="curve" smooth="yes"/>
      <point x="336.0" y="1392.0" type="line" smooth="yes"/>
      <point x="336.0" y="1376.0"/>
      <point x="321.0" y="1370.0"/>
      <point x="236.0" y="1370.0" type="curve" smooth="yes"/>
      <point x="145.0" y="1370.0" type="line"/>
      <point x="113.0" y="690.0" type="line"/>
      <point x="105.0" y="690.0" type="line"/>
      <point x="112.0" y="802.0"/>
      <point x="126.0" y="938.0"/>
      <point x="196.0" y="938.0" type="curve" smooth="yes"/>
      <point x="271.0" y="938.0"/>
      <point x="286.0" y="854.0"/>
      <point x="286.0" y="596.0" type="curve" smooth="yes"/>
      <point x="286.0" y="294.0" type="line" smooth="yes"/>
      <point x="286.0" y="76.0"/>
      <point x="259.0" y="-5.0"/>
      <point x="178.0" y="-5.0" type="curve" smooth="yes"/>
      <point x="101.0" y="-5.0"/>
      <point x="75.0" y="51.0"/>
      <point x="71.0" y="359.0" type="curve" smooth="yes"/>
      <point x="71.0" y="363.0"/>
      <point x="72.0" y="364.0"/>
    </contour>
  </outline>
</glyph>
<glyph name="seven" format="2">
  <advance height="1920" width="334"/>
  <unicode hex="0037"/>
  <outline>
    <contour>
      <point x="304.0" y="1395.0" type="curve" smooth="yes"/>
      <point x="118.0" y="5.0" type="line" smooth="yes"/>
      <point x="116.0" y="1.0"/>
      <point x="114.0" y="0.0"/>
      <point x="110.0" y="0.0" type="curve" smooth="yes"/>
      <point x="92.0" y="0.0" type="line" smooth="yes"/>
      <point x="88.0" y="0.0"/>
      <point x="86.0" y="2.0"/>
      <point x="88.0" y="5.0" type="curve" smooth="yes"/>
      <point x="276.0" y="1370.0" type="line"/>
      <point x="30.0" y="1370.0" type="line" smooth="yes"/>
      <point x="26.0" y="1370.0"/>
      <point x="26.0" y="1371.0"/>
      <point x="26.0" y="1375.0" type="curve" smooth="yes"/>
      <point x="26.0" y="1395.0" type="line" smooth="yes"/>
      <point x="26.0" y="1399.0"/>
      <point x="26.0" y="1400.0"/>
      <point x="30.0" y="1400.0" type="curve" smooth="yes"/>
      <point x="300.0" y="1400.0" type="line" smooth="yes"/>
      <point x="304.0" y="1400.0"/>
      <point x="306.0" y="1398.0"/>
    </contour>
  </outline>
</glyph>
<glyph name="nine" format="2">
  <advance height="1920" width="406"/>
  <unicode hex="0039"/>
  <outline>
    <contour>
      <point x="190.0" y="636.0" type="curve" smooth="yes"/>
      <point x="270.0" y="636.0"/>
      <point x="308.0" y="713.0"/>
      <point x="308.0" y="805.0" type="curve" smooth="yes"/>
      <point x="308.0" y="840.0" type="line"/>
      <point x="316.0" y="790.0" type="line"/>
      <point x="316.0" y="678.0"/>
      <point x="278.0" y="606.0"/>
      <point x="190.0" y="606.0" type="curve" smooth="yes"/>
      <point x="102.0" y="606.0"/>
      <point x="70.0" y="666.0"/>
      <point x="70.0" y="823.0" type="curve" smooth="yes"/>
      <point x="70.0" y="1196.0" type="line" smooth="yes"/>
      <point x="70.0" y="1335.0"/>
      <point x="94.0" y="1405.0"/>
      <point x="200.0" y="1405.0" type="curve" smooth="yes"/>
      <point x="338.0" y="1405.0"/>
      <point x="338.0" y="1316.0"/>
      <point x="338.0" y="1136.0" type="curve" smooth="yes"/>
      <point x="338.0" y="279.0" type="line" smooth="yes"/>
      <point x="338.0" y="79.0"/>
      <point x="314.0" y="-5.0"/>
      <point x="206.0" y="-5.0" type="curve" smooth="yes"/>
      <point x="98.0" y="-5.0"/>
      <point x="74.0" y="78.0"/>
      <point x="74.0" y="210.0" type="curve" smooth="yes"/>
      <point x="74.0" y="445.0" type="line" smooth="yes"/>
      <point x="74.0" y="449.0"/>
      <point x="74.0" y="450.0"/>
      <point x="78.0" y="450.0" type="curve" smooth="yes"/>
      <point x="98.0" y="450.0" type="line" smooth="yes"/>
      <point x="102.0" y="450.0"/>
      <point x="104.0" y="449.0"/>
      <point x="104.0" y="445.0" type="curve" smooth="yes"/>
      <point x="104.0" y="210.0" type="line" smooth="yes"/>
      <point x="104.0" y="89.0"/>
      <point x="127.0" y="25.0"/>
      <point x="206.0" y="25.0" type="curve" smooth="yes"/>
      <point x="283.0" y="25.0"/>
      <point x="308.0" y="92.0"/>
      <point x="308.0" y="282.0" type="curve" smooth="yes"/>
      <point x="308.0" y="1189.0" type="line" smooth="yes"/>
      <point x="308.0" y="1314.0"/>
      <point x="294.0" y="1375.0"/>
      <point x="200.0" y="1375.0" type="curve" smooth="yes"/>
      <point x="120.0" y="1375.0"/>
      <point x="100.0" y="1312.0"/>
      <point x="100.0" y="1192.0" type="curve" smooth="yes"/>
      <point x="100.0" y="823.0" type="line" smooth="yes"/>
      <point x="100.0" y="681.0"/>
      <point x="128.0" y="636.0"/>
    </contour>
  </outline>
</glyph>
<glyph name="less" format="2">
  <advance height="1920" width="489"/>
  <unicode hex="003C"/>
  <outline>
    <contour>
      <point x="435.0" y="362.0" type="curve" smooth="yes"/>
      <point x="49.0" y="591.0" type="line" smooth="yes"/>
      <point x="46.0" y="593.0"/>
      <point x="45.0" y="595.0"/>
      <point x="45.0" y="599.0" type="curve" smooth="yes"/>
      <point x="45.0" y="601.0" type="line" smooth="yes"/>
      <point x="45.0" y="605.0"/>
      <point x="46.0" y="607.0"/>
      <point x="49.0" y="609.0" type="curve" smooth="yes"/>
      <point x="435.0" y="838.0" type="line" smooth="yes"/>
      <point x="438.0" y="840.0"/>
      <point x="439.0" y="840.0"/>
      <point x="439.0" y="836.0" type="curve" smooth="yes"/>
      <point x="439.0" y="818.0" type="line" smooth="yes"/>
      <point x="439.0" y="814.0"/>
      <point x="438.0" y="812.0"/>
      <point x="435.0" y="810.0" type="curve" smooth="yes"/>
      <point x="79.0" y="600.0" type="line"/>
      <point x="435.0" y="390.0" type="line" smooth="yes"/>
      <point x="438.0" y="388.0"/>
      <point x="439.0" y="386.0"/>
      <point x="439.0" y="382.0" type="curve" smooth="yes"/>
      <point x="439.0" y="364.0" type="line" smooth="yes"/>
      <point x="439.0" y="360.0"/>
      <point x="438.0" y="360.0"/>
    </contour>
  </outline>
</glyph>
<glyph name="equal" format="2">
  <advance height="1920" width="530"/>
  <unicode hex="003D"/>
  <outline>
    <contour>
      <point x="45.0" y="419.0" type="curve" smooth="yes"/>
      <point x="45.0" y="439.0" type="line" smooth="yes"/>
      <point x="45.0" y="443.0"/>
      <point x="46.0" y="444.0"/>
      <point x="50.0" y="444.0" type="curve" smooth="yes"/>
      <point x="480.0" y="444.0" type="line" smooth="yes"/>
      <point x="484.0" y="444.0"/>
      <point x="485.0" y="443.0"/>
      <point x="485.0" y="439.0" type="curve" smooth="yes"/>
      <point x="485.0" y="419.0" type="line" smooth="yes"/>
      <point x="485.0" y="415.0"/>
      <point x="484.0" y="414.0"/>
      <point x="480.0" y="414.0" type="curve" smooth="yes"/>
      <point x="50.0" y="414.0" type="line" smooth="yes"/>
      <point x="46.0" y="414.0"/>
      <point x="45.0" y="415.0"/>
    </contour>
    <contour>
      <point x="45.0" y="556.0" type="curve" smooth="yes"/>
      <point x="45.0" y="576.0" type="line" smooth="yes"/>
      <point x="45.0" y="580.0"/>
      <point x="46.0" y="581.0"/>
      <point x="50.0" y="581.0" type="curve" smooth="yes"/>
      <point x="480.0" y="581.0" type="line" smooth="yes"/>
      <point x="484.0" y="581.0"/>
      <point x="485.0" y="580.0"/>
      <point x="485.0" y="576.0" type="curve" smooth="yes"/>
      <point x="485.0" y="556.0" type="line" smooth="yes"/>
      <point x="485.0" y="552.0"/>
      <point x="484.0" y="551.0"/>
      <point x="480.0" y="551.0" type="curve" smooth="yes"/>
      <point x="50.0" y="551.0" type="line" smooth="yes"/>
      <point x="46.0" y="551.0"/>
      <point x="45.0" y="552.0"/>
    </contour>
  </outline>
</glyph>
<glyph name="A" format="2">
  <advance height="960" width="393"/>
  <unicode hex="0041"/>
  <anchor x="187.0" y="0.0" name="bottom"/>
  <anchor x="330.0" y="0.0" name="ogonek"/>
  <anchor x="191.0" y="1400.0" name="top"/>
  <outline>
    <contour>
      <point x="91.0" y="475.0" type="line"/>
      <point x="288.0" y="475.0" type="line"/>
      <point x="288.0" y="445.0" type="line"/>
      <point x="91.0" y="445.0" type="line"/>
    </contour>
    <contour>
      <point x="190.0" y="1345.0" type="line"/>
      <point x="65.0" y="5.0" type="line" smooth="yes"/>
      <point x="64.0" y="2.0"/>
      <point x="62.0" y="0.0"/>
      <point x="58.0" y="0.0" type="curve" smooth="yes"/>
      <point x="41.0" y="0.0" type="line" smooth="yes"/>
      <point x="37.0" y="0.0"/>
      <point x="37.0" y="2.0"/>
      <point x="38.0" y="5.0" type="curve" smooth="yes"/>
      <point x="168.0" y="1395.0" type="line" smooth="yes"/>
      <point x="169.0" y="1398.0"/>
      <point x="171.0" y="1400.0"/>
      <point x="175.0" y="1400.0" type="curve" smooth="yes"/>
      <point x="206.0" y="1400.0" type="line" smooth="yes"/>
      <point x="210.0" y="1400.0"/>
      <point x="211.0" y="1398.0"/>
      <point x="212.0" y="1395.0" type="curve" smooth="yes"/>
      <point x="356.0" y="5.0" type="line" smooth="yes"/>
      <point x="357.0" y="2.0"/>
      <point x="357.0" y="0.0"/>
      <point x="353.0" y="0.0" type="curve" smooth="yes"/>
      <point x="327.0" y="0.0" type="line" smooth="yes"/>
      <point x="323.0" y="0.0"/>
      <point x="321.0" y="1.0"/>
      <point x="320.0" y="5.0" type="curve" smooth="yes"/>
    </contour>
  </outline>
</glyph>
<glyph name="C" format="2">
  <advance height="960" width="420"/>
  <unicode hex="0043"/>
  <anchor x="226.0" y="0.0" name="bottom"/>
  <anchor x="216.0" y="1400.0" name="top"/>
  <outline>
    <contour>
      <point x="362.0" y="603.0" type="curve" smooth="yes"/>
      <point x="362.0" y="563.0"/>
      <point x="362.0" y="525.0"/>
      <point x="362.0" y="490.0" type="curve" smooth="yes"/>
      <point x="360.0" y="95.0"/>
      <point x="343.0" y="-5.0"/>
      <point x="199.0" y="-5.0" type="curve" smooth="yes"/>
      <point x="60.0" y="-5.0"/>
      <point x="55.0" y="129.0"/>
      <point x="55.0" y="359.0" type="curve" smooth="yes"/>
      <point x="55.0" y="1042.0" type="line" smooth="yes"/>
      <point x="55.0" y="1292.0"/>
      <point x="90.0" y="1405.0"/>
      <point x="214.0" y="1405.0" type="curve" smooth="yes"/>
      <point x="337.0" y="1405.0"/>
      <point x="356.0" y="1266.0"/>
      <point x="357.0" y="940.0" type="curve" smooth="yes"/>
      <point x="357.0" y="916.0"/>
      <point x="357.0" y="892.0"/>
      <point x="357.0" y="866.0" type="curve" smooth="yes"/>
      <point x="357.0" y="862.0"/>
      <point x="356.0" y="862.0"/>
      <point x="352.0" y="862.0" type="curve" smooth="yes"/>
      <point x="332.0" y="862.0" type="line" smooth="yes"/>
      <point x="328.0" y="862.0"/>
      <point x="327.0" y="862.0"/>
      <point x="327.0" y="866.0" type="curve" smooth="yes"/>
      <point x="326.0" y="1229.0"/>
      <point x="313.0" y="1375.0"/>
      <point x="214.0" y="1375.0" type="curve" smooth="yes"/>
      <point x="95.0" y="1375.0"/>
      <point x="85.0" y="1241.0"/>
      <point x="85.0" y="1046.0" type="curve" smooth="yes"/>
      <point x="85.0" y="354.0" type="line" smooth="yes"/>
      <point x="85.0" y="169.0"/>
      <point x="87.0" y="25.0"/>
      <point x="199.0" y="25.0" type="curve" smooth="yes"/>
      <point x="326.0" y="25.0"/>
      <point x="335.0" y="137.0"/>
      <point x="332.0" y="603.0" type="curve" smooth="yes"/>
      <point x="332.0" y="607.0"/>
      <point x="333.0" y="608.0"/>
      <point x="337.0" y="608.0" type="curve" smooth="yes"/>
      <point x="357.0" y="608.0" type="line" smooth="yes"/>
      <point x="361.0" y="608.0"/>
      <point x="362.0" y="607.0"/>
    </contour>
  </outline>
</glyph>
<glyph name="D" format="2">
  <advance height="960" width="406"/>
  <unicode hex="0044"/>
  <anchor x="162.0" y="0.0" name="bottom"/>
  <anchor x="177.0" y="1400.0" name="top"/>
  <outline>
    <contour>
      <point x="173.0" y="0.0" type="curve" smooth="yes"/>
      <point x="81.0" y="0.0" type="line" smooth="yes"/>
      <point x="77.0" y="0.0"/>
      <point x="76.0" y="1.0"/>
      <point x="76.0" y="5.0" type="curve" smooth="yes"/>
      <point x="76.0" y="1395.0" type="line" smooth="yes"/>
      <point x="76.0" y="1399.0"/>
      <point x="77.0" y="1400.0"/>
      <point x="81.0" y="1400.0" type="curve" smooth="yes"/>
      <point x="173.0" y="1400.0" type="line" smooth="yes"/>
      <point x="296.0" y="1400.0"/>
      <point x="353.0" y="1275.0"/>
      <point x="353.0" y="1022.0" type="curve" smooth="yes"/>
      <point x="353.0" y="369.0" type="line" smooth="yes"/>
      <point x="353.0" y="116.0"/>
      <point x="316.0" y="0.0"/>
    </contour>
    <contour>
      <point x="173.0" y="30.0" type="line" smooth="yes"/>
      <point x="297.0" y="30.0"/>
      <point x="323.0" y="155.0"/>
      <point x="323.0" y="364.0" type="curve" smooth="yes"/>
      <point x="323.0" y="1026.0" type="line" smooth="yes"/>
      <point x="323.0" y="1235.0"/>
      <point x="276.0" y="1370.0"/>
      <point x="173.0" y="1370.0" type="curve" smooth="yes"/>
      <point x="106.0" y="1370.0" type="line"/>
      <point x="106.0" y="30.0" type="line"/>
    </contour>
  </outline>
</glyph>
<glyph name="E" format="2">
  <advance height="960" width="370"/>
  <unicode hex="0045"/>
  <anchor x="192.0" y="0.0" name="bottom"/>
  <anchor x="300.0" y="0.0" name="ogonek"/>
  <anchor x="192.0" y="1400.0" name="top"/>
  <outline>
    <contour>
      <point x="106.0" y="720.0" type="line"/>
      <point x="251.0" y="720.0" type="line" smooth="yes"/>
      <point x="255.0" y="720.0"/>
      <point x="256.0" y="719.0"/>
      <point x="256.0" y="715.0" type="curve" smooth="yes"/>
      <point x="256.0" y="700.0" type="line" smooth="yes"/>
      <point x="256.0" y="696.0"/>
      <point x="255.0" y="695.0"/>
      <point x="251.0" y="695.0" type="curve" smooth="yes"/>
      <point x="106.0" y="695.0" type="line"/>
      <point x="106.0" y="30.0" type="line"/>
      <point x="336.0" y="30.0" type="line" smooth="yes"/>
      <point x="340.0" y="30.0"/>
      <point x="341.0" y="29.0"/>
      <point x="341.0" y="25.0" type="curve" smooth="yes"/>
      <point x="341.0" y="5.0" type="line" smooth="yes"/>
      <point x="341.0" y="1.0"/>
      <point x="340.0" y="0.0"/>
      <point x="336.0" y="0.0" type="curve" smooth="yes"/>
      <point x="81.0" y="0.0" type="line" smooth="yes"/>
      <point x="77.0" y="0.0"/>
      <point x="76.0" y="1.0"/>
      <point x="76.0" y="5.0" type="curve" smooth="yes"/>
      <point x="76.0" y="1395.0" type="line" smooth="yes"/>
      <point x="76.0" y="1399.0"/>
      <point x="77.0" y="1400.0"/>
      <point x="81.0" y="1400.0" type="curve" smooth="yes"/>
      <point x="326.0" y="1400.0" type="line" smooth="yes"/>
      <point x="330.0" y="1400.0"/>
      <point x="331.0" y="1399.0"/>
      <point x="331.0" y="1395.0" type="curve" smooth="yes"/>
      <point x="331.0" y="1375.0" type="line" smooth="yes"/>
      <point x="331.0" y="1371.0"/>
      <point x="330.0" y="1370.0"/>
      <point x="326.0" y="1370.0" type="curve" smooth="yes"/>
      <point x="106.0" y="1370.0" type="line"/>
    </contour>
  </outline>
</glyph>
<glyph name="F" format="2">
  <advance height="960" width="326"/>
  <unicode hex="0046"/>
  <anchor x="172.0" y="0.0" name="bottom"/>
  <anchor x="172.0" y="1400.0" name="top"/>
  <outline>
    <contour>
      <point x="106.0" y="720.0" type="line"/>
      <point x="256.0" y="720.0" type="line" smooth="yes"/>
      <point x="260.0" y="720.0"/>
      <point x="261.0" y="719.0"/>
      <point x="261.0" y="715.0" type="curve" smooth="yes"/>
      <point x="261.0" y="700.0" type="line" smooth="yes"/>
      <point x="261.0" y="696.0"/>
      <point x="260.0" y="695.0"/>
      <point x="256.0" y="695.0" type="curve" smooth="yes"/>
      <point x="106.0" y="695.0" type="line"/>
      <point x="106.0" y="5.0" type="line" smooth="yes"/>
      <point x="106.0" y="1.0"/>
      <point x="105.0" y="0.0"/>
      <point x="101.0" y="0.0" type="curve" smooth="yes"/>
      <point x="81.0" y="0.0" type="line" smooth="yes"/>
      <point x="77.0" y="0.0"/>
      <point x="76.0" y="1.0"/>
      <point x="76.0" y="5.0" type="curve" smooth="yes"/>
      <point x="76.0" y="1395.0" type="line" smooth="yes"/>
      <point x="76.0" y="1399.0"/>
      <point x="77.0" y="1400.0"/>
      <point x="81.0" y="1400.0" type="curve" smooth="yes"/>
      <point x="301.0" y="1400.0" type="line" smooth="yes"/>
      <point x="305.0" y="1400.0"/>
      <point x="306.0" y="1399.0"/>
      <point x="306.0" y="1395.0" type="curve" smooth="yes"/>
      <point x="306.0" y="1375.0" type="line" smooth="yes"/>
      <point x="306.0" y="1371.0"/>
      <point x="305.0" y="1370.0"/>
      <point x="301.0" y="1370.0" type="curve" smooth="yes"/>
      <point x="106.0" y="1370.0" type="line"/>
    </contour>
  </outline>
</glyph>
<glyph name="G" format="2">
  <advance height="960" width="420"/>
  <unicode hex="0047"/>
  <anchor x="212.0" y="0.0" name="bottom"/>
  <anchor x="211.0" y="1400.0" name="top"/>
  <outline>
    <contour>
      <point x="241.0" y="636.0" type="curve" smooth="yes"/>
      <point x="241.0" y="655.0" type="line" smooth="yes"/>
      <point x="241.0" y="659.0"/>
      <point x="242.0" y="660.0"/>
      <point x="246.0" y="660.0" type="curve" smooth="yes"/>
      <point x="357.0" y="660.0" type="line" smooth="yes"/>
      <point x="361.0" y="660.0"/>
      <point x="362.0" y="659.0"/>
      <point x="362.0" y="655.0" type="curve" smooth="yes"/>
      <point x="362.0" y="5.0" type="line" smooth="yes"/>
      <point x="362.0" y="1.0"/>
      <point x="361.0" y="0.0"/>
      <point x="357.0" y="0.0" type="curve" smooth="yes"/>
      <point x="352.0" y="0.0" type="line" smooth="yes"/>
      <point x="348.0" y="0.0"/>
      <point x="347.0" y="1.0"/>
      <point x="346.0" y="5.0" type="curve" smooth="yes"/>
      <point x="332.0" y="520.0" type="line"/>
      <point x="352.0" y="640.0" type="line"/>
      <point x="342.0" y="165.0"/>
      <point x="313.0" y="-5.0"/>
      <point x="184.0" y="-5.0" type="curve" smooth="yes"/>
      <point x="79.0" y="-5.0"/>
      <point x="55.0" y="89.0"/>
      <point x="55.0" y="379.0" type="curve" smooth="yes"/>
      <point x="55.0" y="1022.0" type="line" smooth="yes"/>
      <point x="55.0" y="1272.0"/>
      <point x="79.0" y="1405.0"/>
      <point x="204.0" y="1405.0" type="curve" smooth="yes"/>
      <point x="323.0" y="1405.0"/>
      <point x="344.0" y="1310.0"/>
      <point x="345.0" y="1124.0" type="curve" smooth="yes"/>
      <point x="345.0" y="1040.0"/>
      <point x="345.0" y="951.0"/>
      <point x="347.0" y="867.0" type="curve" smooth="yes"/>
      <point x="347.0" y="863.0"/>
      <point x="346.0" y="863.0"/>
      <point x="342.0" y="863.0" type="curve" smooth="yes"/>
      <point x="322.0" y="863.0" type="line" smooth="yes"/>
      <point x="318.0" y="863.0"/>
      <point x="317.0" y="863.0"/>
      <point x="317.0" y="867.0" type="curve" smooth="yes"/>
      <point x="313.0" y="1241.0"/>
      <point x="323.0" y="1375.0"/>
      <point x="204.0" y="1375.0" type="curve" smooth="yes"/>
      <point x="98.0" y="1375.0"/>
      <point x="85.0" y="1221.0"/>
      <point x="85.0" y="1026.0" type="curve" smooth="yes"/>
      <point x="85.0" y="374.0" type="line" smooth="yes"/>
      <point x="85.0" y="139.0"/>
      <point x="99.0" y="25.0"/>
      <point x="184.0" y="25.0" type="curve" smooth="yes"/>
      <point x="288.0" y="25.0"/>
      <point x="320.0" y="176.0"/>
      <point x="332.0" y="638.0" type="curve"/>
      <point x="338.0" y="630.0" type="line"/>
      <point x="246.0" y="630.0" type="line" smooth="yes"/>
      <point x="242.0" y="630.0"/>
      <point x="241.0" y="632.0"/>
    </contour>
  </outline>
</glyph>
<glyph name="H" format="2">
  <advance height="960" width="400"/>
  <unicode hex="0048"/>
  <anchor x="182.0" y="0.0" name="bottom"/>
  <anchor x="181.0" y="1400.0" name="top"/>
  <outline>
    <contour>
      <point x="307.0" y="1400.0" type="curve" smooth="yes"/>
      <point x="327.0" y="1400.0" type="line" smooth="yes"/>
      <point x="331.0" y="1400.0"/>
      <point x="332.0" y="1399.0"/>
      <point x="332.0" y="1395.0" type="curve" smooth="yes"/>
      <point x="332.0" y="5.0" type="line" smooth="yes"/>
      <point x="332.0" y="1.0"/>
      <point x="331.0" y="0.0"/>
      <point x="327.0" y="0.0" type="curve" smooth="yes"/>
      <point x="307.0" y="0.0" type="line" smooth="yes"/>
      <point x="303.0" y="0.0"/>
      <point x="302.0" y="1.0"/>
      <point x="302.0" y="5.0" type="curve" smooth="yes"/>
      <point x="302.0" y="695.0" type="line"/>
      <point x="100.0" y="695.0" type="line"/>
      <point x="100.0" y="5.0" type="line" smooth="yes"/>
      <point x="100.0" y="1.0"/>
      <point x="99.0" y="0.0"/>
      <point x="95.0" y="0.0" type="curve" smooth="yes"/>
      <point x="75.0" y="0.0" type="line" smooth="yes"/>
      <point x="71.0" y="0.0"/>
      <point x="70.0" y="1.0"/>
      <point x="70.0" y="5.0" type="curve" smooth="yes"/>
      <point x="70.0" y="1395.0" type="line" smooth="yes"/>
      <point x="70.0" y="1399.0"/>
      <point x="71.0" y="1400.0"/>
      <point x="75.0" y="1400.0" type="curve" smooth="yes"/>
      <point x="95.0" y="1400.0" type="line" smooth="yes"/>
      <point x="99.0" y="1400.0"/>
      <point x="100.0" y="1399.0"/>
      <point x="100.0" y="1395.0" type="curve" smooth="yes"/>
      <point x="100.0" y="720.0" type="line"/>
      <point x="302.0" y="720.0" type="line"/>
      <point x="302.0" y="1395.0" type="line" smooth="yes"/>
      <point x="302.0" y="1399.0"/>
      <point x="303.0" y="1400.0"/>
    </contour>
  </outline>
</glyph>
<glyph name="I" format="2">
  <advance height="960" width="177"/>
  <unicode hex="0049"/>
  <anchor x="69.0" y="0.0" name="bottom"/>
  <anchor x="69.0" y="0.0" name="ogonek"/>
  <anchor x="70.0" y="1400.0" name="top"/>
  <outline>
    <contour>
      <point x="60.0" y="1400.0" type="curve" smooth="yes"/>
      <point x="80.0" y="1400.0" type="line" smooth="yes"/>
      <point x="84.0" y="1400.0"/>
      <point x="85.0" y="1399.0"/>
      <point x="85.0" y="1395.0" type="curve" smooth="yes"/>
      <point x="85.0" y="5.0" type="line" smooth="yes"/>
      <point x="85.0" y="1.0"/>
      <point x="84.0" y="0.0"/>
      <point x="80.0" y="0.0" type="curve" smooth="yes"/>
      <point x="60.0" y="0.0" type="line" smooth="yes"/>
      <point x="56.0" y="0.0"/>
      <point x="55.0" y="1.0"/>
      <point x="55.0" y="5.0" type="curve" smooth="yes"/>
      <point x="55.0" y="1395.0" type="line" smooth="yes"/>
      <point x="55.0" y="1399.0"/>
      <point x="56.0" y="1400.0"/>
    </contour>
  </outline>
</glyph>
<glyph name="J" format="2">
  <advance height="960" width="315"/>
  <unicode hex="004A"/>
  <anchor x="129.0" y="0.0" name="bottom"/>
  <anchor x="228.0" y="1400.0" name="top"/>
  <outline>
    <contour>
      <point x="211.0" y="1400.0" type="curve" smooth="yes"/>
      <point x="231.0" y="1400.0" type="line" smooth="yes"/>
      <point x="235.0" y="1400.0"/>
      <point x="237.0" y="1399.0"/>
      <point x="237.0" y="1395.0" type="curve" smooth="yes"/>
      <point x="237.0" y="269.0" type="line" smooth="yes"/>
      <point x="237.0" y="56.0"/>
      <point x="226.0" y="-5.0"/>
      <point x="137.0" y="-5.0" type="curve" smooth="yes"/>
      <point x="53.0" y="-5.0"/>
      <point x="40.0" y="57.0"/>
      <point x="40.0" y="239.0" type="curve" smooth="yes"/>
      <point x="40.0" y="657.0" type="line" smooth="yes"/>
      <point x="40.0" y="661.0"/>
      <point x="42.0" y="663.0"/>
      <point x="46.0" y="663.0" type="curve" smooth="yes"/>
      <point x="60.0" y="663.0" type="line" smooth="yes"/>
      <point x="64.0" y="663.0"/>
      <point x="66.0" y="661.0"/>
      <point x="66.0" y="657.0" type="curve" smooth="yes"/>
      <point x="66.0" y="244.0" type="line" smooth="yes"/>
      <point x="66.0" y="88.0"/>
      <point x="76.0" y="25.0"/>
      <point x="137.0" y="25.0" type="curve" smooth="yes"/>
      <point x="202.0" y="25.0"/>
      <point x="207.0" y="84.0"/>
      <point x="207.0" y="254.0" type="curve" smooth="yes"/>
      <point x="207.0" y="1395.0" type="line" smooth="yes"/>
      <point x="207.0" y="1399.0"/>
      <point x="207.0" y="1400.0"/>
    </contour>
  </outline>
</glyph>
<glyph name="K" format="2">
  <advance height="960" width="375"/>
  <unicode hex="004B"/>
  <anchor x="166.0" y="0.0" name="bottom"/>
  <anchor x="166.0" y="1400.0" name="top"/>
  <outline>
    <contour>
      <point x="75.0" y="1400.0" type="curve" smooth="yes"/>
      <point x="95.0" y="1400.0" type="line" smooth="yes"/>
      <point x="99.0" y="1400.0"/>
      <point x="100.0" y="1399.0"/>
      <point x="100.0" y="1395.0" type="curve" smooth="yes"/>
      <point x="100.0" y="5.0" type="line" smooth="yes"/>
      <point x="100.0" y="1.0"/>
      <point x="99.0" y="0.0"/>
      <point x="95.0" y="0.0" type="curve" smooth="yes"/>
      <point x="75.0" y="0.0" type="line" smooth="yes"/>
      <point x="71.0" y="0.0"/>
      <point x="70.0" y="1.0"/>
      <point x="70.0" y="5.0" type="curve" smooth="yes"/>
      <point x="70.0" y="1395.0" type="line" smooth="yes"/>
      <point x="70.0" y="1399.0"/>
      <point x="71.0" y="1400.0"/>
    </contour>
    <contour>
      <point x="151.0" y="757.0" type="line"/>
      <point x="170.0" y="815.0" type="line"/>
      <point x="343.0" y="5.0" type="line" smooth="yes"/>
      <point x="346.0" y="1.0"/>
      <point x="346.0" y="0.0"/>
      <point x="342.0" y="0.0" type="curve" smooth="yes"/>
      <point x="317.0" y="0.0" type="line" smooth="yes"/>
      <point x="313.0" y="0.0"/>
      <point x="309.0" y="1.0"/>
      <point x="308.0" y="5.0" type="curve" smooth="yes"/>
    </contour>
    <contour>
      <point x="307.0" y="1395.0" type="line" smooth="yes"/>
      <point x="310.0" y="1397.0"/>
      <point x="312.0" y="1400.0"/>
      <point x="317.0" y="1400.0" type="curve" smooth="yes"/>
      <point x="334.0" y="1400.0" type="line" smooth="yes"/>
      <point x="340.0" y="1400.0"/>
      <point x="341.0" y="1399.0"/>
      <point x="337.0" y="1395.0" type="curve" smooth="yes"/>
      <point x="166.0" y="715.0" type="line"/>
      <point x="164.0" y="723.0" type="line"/>
      <point x="78.0" y="385.0" type="line"/>
      <point x="75.0" y="460.0" type="line"/>
    </contour>
  </outline>
</glyph>
<glyph name="L" format="2">
  <advance height="960" width="273"/>
  <unicode hex="004C"/>
  <anchor x="166.0" y="0.0" name="bottom"/>
  <anchor x="86.0" y="1400.0" name="top"/>
  <outline>
    <contour>
      <point x="75.0" y="1400.0" type="curve" smooth="yes"/>
      <point x="95.0" y="1400.0" type="line" smooth="yes"/>
      <point x="99.0" y="1400.0"/>
      <point x="100.0" y="1399.0"/>
      <point x="100.0" y="1395.0" type="curve" smooth="yes"/>
      <point x="100.0" y="30.0" type="line"/>
      <point x="250.0" y="30.0" type="line" smooth="yes"/>
      <point x="254.0" y="30.0"/>
      <point x="255.0" y="29.0"/>
      <point x="255.0" y="25.0" type="curve" smooth="yes"/>
      <point x="255.0" y="5.0" type="line" smooth="yes"/>
      <point x="255.0" y="1.0"/>
      <point x="254.0" y="0.0"/>
      <point x="250.0" y="0.0" type="curve" smooth="yes"/>
      <point x="75.0" y="0.0" type="line" smooth="yes"/>
      <point x="71.0" y="0.0"/>
      <point x="70.0" y="1.0"/>
      <point x="70.0" y="5.0" type="curve" smooth="yes"/>
      <point x="70.0" y="1395.0" type="line" smooth="yes"/>
      <point x="70.0" y="1399.0"/>
      <point x="71.0" y="1400.0"/>
    </contour>
  </outline>
</glyph>
<glyph name="M" format="2">
  <advance height="960" width="511"/>
  <unicode hex="004D"/>
  <anchor x="254.0" y="0.0" name="bottom"/>
  <anchor x="256.0" y="1400.0" name="top"/>
  <outline>
    <contour>
      <point x="95.0" y="1260.0" type="line"/>
      <point x="95.0" y="5.0" type="line" smooth="yes"/>
      <point x="95.0" y="1.0"/>
      <point x="94.0" y="0.0"/>
      <point x="90.0" y="0.0" type="curve" smooth="yes"/>
      <point x="75.0" y="0.0" type="line" smooth="yes"/>
      <point x="71.0" y="0.0"/>
      <point x="70.0" y="1.0"/>
      <point x="70.0" y="5.0" type="curve" smooth="yes"/>
      <point x="70.0" y="1395.0" type="line" smooth="yes"/>
      <point x="70.0" y="1399.0"/>
      <point x="71.0" y="1400.0"/>
      <point x="75.0" y="1400.0" type="curve" smooth="yes"/>
      <point x="99.0" y="1400.0" type="line" smooth="yes"/>
      <point x="103.0" y="1400.0"/>
      <point x="105.0" y="1399.0"/>
      <point x="106.0" y="1395.0" type="curve" smooth="yes"/>
      <point x="259.0" y="134.0" type="line"/>
      <point x="406.0" y="1395.0" type="line" smooth="yes"/>
      <point x="407.0" y="1399.0"/>
      <point x="409.0" y="1400.0"/>
      <point x="413.0" y="1400.0" type="curve" smooth="yes"/>
      <point x="438.0" y="1400.0" type="line" smooth="yes"/>
      <point x="442.0" y="1400.0"/>
      <point x="443.0" y="1399.0"/>
      <point x="443.0" y="1395.0" type="curve" smooth="yes"/>
      <point x="443.0" y="5.0" type="line" smooth="yes"/>
      <point x="443.0" y="1.0"/>
      <point x="442.0" y="0.0"/>
      <point x="438.0" y="0.0" type="curve" smooth="yes"/>
      <point x="418.0" y="0.0" type="line" smooth="yes"/>
      <point x="414.0" y="0.0"/>
      <point x="413.0" y="1.0"/>
      <point x="413.0" y="5.0" type="curve" smooth="yes"/>
      <point x="413.0" y="1254.0" type="line"/>
      <point x="263.0" y="5.0" type="line" smooth="yes"/>
      <point x="262.0" y="1.0"/>
      <point x="261.0" y="0.0"/>
      <point x="257.0" y="0.0" type="curve" smooth="yes"/>
      <point x="256.0" y="0.0" type="line" smooth="yes"/>
      <point x="252.0" y="0.0"/>
      <point x="250.0" y="1.0"/>
      <point x="249.0" y="5.0" type="curve" smooth="yes"/>
    </contour>
  </outline>
</glyph>
<glyph name="N" format="2">
  <advance height="960" width="400"/>
  <unicode hex="004E"/>
  <anchor x="196.0" y="0.0" name="bottom"/>
  <anchor x="201.0" y="1400.0" name="top"/>
  <outline>
    <contour>
      <point x="307.0" y="1400.0" type="curve" smooth="yes"/>
      <point x="327.0" y="1400.0" type="line" smooth="yes"/>
      <point x="331.0" y="1400.0"/>
      <point x="332.0" y="1399.0"/>
      <point x="332.0" y="1395.0" type="curve" smooth="yes"/>
      <point x="332.0" y="5.0" type="line" smooth="yes"/>
      <point x="332.0" y="1.0"/>
      <point x="331.0" y="0.0"/>
      <point x="327.0" y="0.0" type="curve" smooth="yes"/>
      <point x="322.0" y="0.0" type="line" smooth="yes"/>
      <point x="318.0" y="0.0"/>
      <point x="314.0" y="1.0"/>
      <point x="313.0" y="5.0" type="curve" smooth="yes"/>
      <point x="76.0" y="1388.0" type="line"/>
      <point x="100.0" y="1328.0" type="line"/>
      <point x="100.0" y="5.0" type="line" smooth="yes"/>
      <point x="100.0" y="1.0"/>
      <point x="99.0" y="0.0"/>
      <point x="95.0" y="0.0" type="curve" smooth="yes"/>
      <point x="75.0" y="0.0" type="line" smooth="yes"/>
      <point x="71.0" y="0.0"/>
      <point x="70.0" y="1.0"/>
      <point x="70.0" y="5.0" type="curve" smooth="yes"/>
      <point x="70.0" y="1395.0" type="line" smooth="yes"/>
      <point x="70.0" y="1399.0"/>
      <point x="71.0" y="1400.0"/>
      <point x="75.0" y="1400.0" type="curve" smooth="yes"/>
      <point x="90.0" y="1400.0" type="line" smooth="yes"/>
      <point x="94.0" y="1400.0"/>
      <point x="98.0" y="1399.0"/>
      <point x="99.0" y="1395.0" type="curve" smooth="yes"/>
      <point x="326.0" y="76.0" type="line"/>
      <point x="302.0" y="136.0" type="line"/>
      <point x="302.0" y="1395.0" type="line" smooth="yes"/>
      <point x="302.0" y="1399.0"/>
      <point x="303.0" y="1400.0"/>
    </contour>
  </outline>
</glyph>
<glyph name="O" format="2">
  <advance height="960" width="415"/>
  <unicode hex="004F"/>
  <anchor x="206.0" y="0.0" name="bottom"/>
  <anchor x="206.0" y="1400.0" name="top"/>
  <outline>
    <contour>
      <point x="55.0" y="309.0" type="curve" smooth="yes"/>
      <point x="55.0" y="1092.0" type="line" smooth="yes"/>
      <point x="55.0" y="1329.0"/>
      <point x="87.0" y="1405.0"/>
      <point x="208.0" y="1405.0" type="curve" smooth="yes"/>
      <point x="329.0" y="1405.0"/>
      <point x="362.0" y="1328.0"/>
      <point x="362.0" y="1092.0" type="curve" smooth="yes"/>
      <point x="362.0" y="309.0" type="line" smooth="yes"/>
      <point x="362.0" y="72.0"/>
      <point x="329.0" y="-5.0"/>
      <point x="208.0" y="-5.0" type="curve" smooth="yes"/>
      <point x="87.0" y="-5.0"/>
      <point x="55.0" y="72.0"/>
    </contour>
    <contour>
      <point x="85.0" y="304.0" type="line" smooth="yes"/>
      <point x="85.0" y="106.0"/>
      <point x="112.0" y="25.0"/>
      <point x="208.0" y="25.0" type="curve" smooth="yes"/>
      <point x="304.0" y="25.0"/>
      <point x="332.0" y="107.0"/>
      <point x="332.0" y="304.0" type="curve" smooth="yes"/>
      <point x="332.0" y="1096.0" type="line" smooth="yes"/>
      <point x="332.0" y="1293.0"/>
      <point x="304.0" y="1375.0"/>
      <point x="208.0" y="1375.0" type="curve" smooth="yes"/>
      <point x="112.0" y="1375.0"/>
      <point x="85.0" y="1294.0"/>
      <point x="85.0" y="1096.0" type="curve" smooth="yes"/>
    </contour>
  </outline>
</glyph>
<glyph name="P" format="2">
  <advance height="960" width="355"/>
  <unicode hex="0050"/>
  <anchor x="88.0" y="0.0" name="bottom"/>
  <anchor x="162.0" y="1400.0" name="top"/>
  <outline>
    <contour>
      <point x="106.0" y="1370.0" type="line"/>
      <point x="106.0" y="665.0" type="line"/>
      <point x="156.0" y="665.0" type="line" smooth="yes"/>
      <point x="217.0" y="665.0"/>
      <point x="270.0" y="679.0"/>
      <point x="270.0" y="859.0" type="curve" smooth="yes"/>
      <point x="270.0" y="1161.0" type="line" smooth="yes"/>
      <point x="270.0" y="1321.0"/>
      <point x="227.0" y="1370.0"/>
      <point x="146.0" y="1370.0" type="curve" smooth="yes"/>
    </contour>
    <contour>
      <point x="121.0" y="1400.0" type="line" smooth="yes"/>
      <point x="255.0" y="1400.0"/>
      <point x="300.0" y="1351.0"/>
      <point x="300.0" y="1146.0" type="curve" smooth="yes"/>
      <point x="300.0" y="874.0" type="line" smooth="yes"/>
      <point x="300.0" y="669.0"/>
      <point x="247.0" y="635.0"/>
      <point x="141.0" y="635.0" type="curve" smooth="yes"/>
      <point x="106.0" y="635.0" type="line"/>
      <point x="106.0" y="5.0" type="line" smooth="yes"/>
      <point x="106.0" y="1.0"/>
      <point x="105.0" y="0.0"/>
      <point x="101.0" y="0.0" type="curve" smooth="yes"/>
      <point x="81.0" y="0.0" type="line" smooth="yes"/>
      <point x="77.0" y="0.0"/>
      <point x="76.0" y="1.0"/>
      <point x="76.0" y="5.0" type="curve" smooth="yes"/>
      <point x="76.0" y="1395.0" type="line" smooth="yes"/>
      <point x="76.0" y="1399.0"/>
      <point x="77.0" y="1400.0"/>
      <point x="81.0" y="1400.0" type="curve" smooth="yes"/>
    </contour>
  </outline>
</glyph>
<glyph name="Q" format="2">
  <advance height="960" width="510"/>
  <unicode hex="0051"/>
  <anchor x="216.0" y="0.0" name="bottom"/>
  <anchor x="206.0" y="1400.0" name="top"/>
  <outline>
    <contour>
      <point x="489.0" y="23.0" type="curve" smooth="yes"/>
      <point x="489.0" y="5.0" type="line" smooth="yes"/>
      <point x="489.0" y="1.0"/>
      <point x="490.0" y="0.0"/>
      <point x="484.0" y="-2.0" type="curve" smooth="yes"/>
      <point x="389.0" y="-38.0"/>
      <point x="332.0" y="36.0"/>
      <point x="342.0" y="179.0" type="curve"/>
      <point x="350.0" y="294.0" type="line"/>
      <point x="350.0" y="119.0"/>
      <point x="327.0" y="-5.0"/>
      <point x="208.0" y="-5.0" type="curve" smooth="yes"/>
      <point x="69.0" y="-5.0"/>
      <point x="55.0" y="119.0"/>
      <point x="55.0" y="294.0" type="curve" smooth="yes"/>
      <point x="55.0" y="1106.0" type="line" smooth="yes"/>
      <point x="55.0" y="1301.0"/>
      <point x="83.0" y="1405.0"/>
      <point x="208.0" y="1405.0" type="curve" smooth="yes"/>
      <point x="333.0" y="1405.0"/>
      <point x="362.0" y="1301.0"/>
      <point x="362.0" y="1106.0" type="curve" smooth="yes"/>
      <point x="362.0" y="174.0" type="line" smooth="yes"/>
      <point x="362.0" y="72.0"/>
      <point x="397.0" y="-10.0"/>
      <point x="483.0" y="28.0" type="curve" smooth="yes"/>
      <point x="488.0" y="30.0"/>
      <point x="489.0" y="26.0"/>
    </contour>
    <contour>
      <point x="332.0" y="279.0" type="curve" smooth="yes"/>
      <point x="332.0" y="1122.0" type="line" smooth="yes"/>
      <point x="332.0" y="1293.0"/>
      <point x="302.0" y="1375.0"/>
      <point x="208.0" y="1375.0" type="curve" smooth="yes"/>
      <point x="114.0" y="1375.0"/>
      <point x="85.0" y="1293.0"/>
      <point x="85.0" y="1122.0" type="curve" smooth="yes"/>
      <point x="85.0" y="279.0" type="line" smooth="yes"/>
      <point x="85.0" y="144.0"/>
      <point x="99.0" y="25.0"/>
      <point x="208.0" y="25.0" type="curve" smooth="yes"/>
      <point x="317.0" y="25.0"/>
      <point x="332.0" y="144.0"/>
    </contour>
  </outline>
</glyph>
<glyph name="R" format="2">
  <advance height="960" width="408"/>
  <unicode hex="0052"/>
  <anchor x="188.0" y="0.0" name="bottom"/>
  <anchor x="187.0" y="1400.0" name="top"/>
  <outline>
    <contour>
      <point x="106.0" y="1370.0" type="line"/>
      <point x="106.0" y="720.0" type="line"/>
      <point x="171.0" y="720.0" type="line" smooth="yes"/>
      <point x="236.0" y="720.0"/>
      <point x="291.0" y="779.0"/>
      <point x="291.0" y="909.0" type="curve" smooth="yes"/>
      <point x="291.0" y="1161.0" type="line" smooth="yes"/>
      <point x="291.0" y="1281.0"/>
      <point x="276.0" y="1370.0"/>
      <point x="171.0" y="1370.0" type="curve" smooth="yes"/>
    </contour>
    <contour>
      <point x="171.0" y="1400.0" type="line" smooth="yes"/>
      <point x="295.0" y="1400.0"/>
      <point x="321.0" y="1321.0"/>
      <point x="321.0" y="1151.0" type="curve" smooth="yes"/>
      <point x="321.0" y="929.0" type="line" smooth="yes"/>
      <point x="321.0" y="749.0"/>
      <point x="240.0" y="705.0"/>
      <point x="171.0" y="705.0" type="curve"/>
      <point x="171.0" y="710.0" type="line"/>
      <point x="240.0" y="710.0"/>
      <point x="315.0" y="681.0"/>
      <point x="315.0" y="561.0" type="curve" smooth="yes"/>
      <point x="315.0" y="234.0" type="line" smooth="yes"/>
      <point x="315.0" y="116.0"/>
      <point x="331.0" y="64.0"/>
      <point x="354.0" y="30.0" type="curve" smooth="yes"/>
      <point x="358.0" y="24.0"/>
      <point x="358.0" y="23.0"/>
      <point x="358.0" y="20.0" type="curve" smooth="yes"/>
      <point x="358.0" y="5.0" type="line" smooth="yes"/>
      <point x="358.0" y="1.0"/>
      <point x="357.0" y="0.0"/>
      <point x="353.0" y="0.0" type="curve" smooth="yes"/>
      <point x="340.0" y="0.0" type="line" smooth="yes"/>
      <point x="336.0" y="0.0"/>
      <point x="335.0" y="0.0"/>
      <point x="332.0" y="4.0" type="curve" smooth="yes"/>
      <point x="304.0" y="44.0"/>
      <point x="285.0" y="90.0"/>
      <point x="285.0" y="234.0" type="curve" smooth="yes"/>
      <point x="285.0" y="576.0" type="line" smooth="yes"/>
      <point x="285.0" y="646.0"/>
      <point x="246.0" y="695.0"/>
      <point x="171.0" y="695.0" type="curve" smooth="yes"/>
      <point x="106.0" y="695.0" type="line"/>
      <point x="106.0" y="5.0" type="line" smooth="yes"/>
      <point x="106.0" y="1.0"/>
      <point x="105.0" y="0.0"/>
      <point x="101.0" y="0.0" type="curve" smooth="yes"/>
      <point x="81.0" y="0.0" type="line" smooth="yes"/>
      <point x="77.0" y="0.0"/>
      <point x="76.0" y="1.0"/>
      <point x="76.0" y="5.0" type="curve" smooth="yes"/>
      <point x="76.0" y="1395.0" type="line" smooth="yes"/>
      <point x="76.0" y="1399.0"/>
      <point x="77.0" y="1400.0"/>
      <point x="81.0" y="1400.0" type="curve" smooth="yes"/>
    </contour>
  </outline>
</glyph>
<glyph name="T" format="2">
  <advance height="960" width="369"/>
  <unicode hex="0054"/>
  <anchor x="184.0" y="0.0" name="bottom"/>
  <anchor x="184.0" y="1400.0" name="top"/>
  <outline>
    <contour>
      <point x="17.0" y="1400.0" type="curve" smooth="yes"/>
      <point x="352.0" y="1400.0" type="line" smooth="yes"/>
      <point x="356.0" y="1400.0"/>
      <point x="357.0" y="1399.0"/>
      <point x="357.0" y="1395.0" type="curve" smooth="yes"/>
      <point x="357.0" y="1375.0" type="line" smooth="yes"/>
      <point x="357.0" y="1371.0"/>
      <point x="356.0" y="1370.0"/>
      <point x="352.0" y="1370.0" type="curve" smooth="yes"/>
      <point x="202.0" y="1370.0" type="line"/>
      <point x="202.0" y="5.0" type="line" smooth="yes"/>
      <point x="202.0" y="1.0"/>
      <point x="201.0" y="0.0"/>
      <point x="197.0" y="0.0" type="curve" smooth="yes"/>
      <point x="172.0" y="0.0" type="line" smooth="yes"/>
      <point x="168.0" y="0.0"/>
      <point x="167.0" y="1.0"/>
      <point x="167.0" y="5.0" type="curve" smooth="yes"/>
      <point x="167.0" y="1370.0" type="line"/>
      <point x="17.0" y="1370.0" type="line" smooth="yes"/>
      <point x="13.0" y="1370.0"/>
      <point x="12.0" y="1371.0"/>
      <point x="12.0" y="1375.0" type="curve" smooth="yes"/>
      <point x="12.0" y="1395.0" type="line" smooth="yes"/>
      <point x="12.0" y="1399.0"/>
      <point x="13.0" y="1400.0"/>
    </contour>
  </outline>
</glyph>
<glyph name="U" format="2">
  <advance height="960" width="398"/>
  <unicode hex="0055"/>
  <anchor x="203.0" y="0.0" name="bottom"/>
  <anchor x="251.0" y="20.0" name="ogonek"/>
  <anchor x="203.0" y="1400.0" name="top"/>
  <outline>
    <contour>
      <point x="296.0" y="174.0" type="curve" smooth="yes"/>
      <point x="296.0" y="1395.0" type="line" smooth="yes"/>
      <point x="296.0" y="1399.0"/>
      <point x="297.0" y="1400.0"/>
      <point x="301.0" y="1400.0" type="curve" smooth="yes"/>
      <point x="321.0" y="1400.0" type="line" smooth="yes"/>
      <point x="325.0" y="1400.0"/>
      <point x="326.0" y="1399.0"/>
      <point x="326.0" y="1395.0" type="curve" smooth="yes"/>
      <point x="326.0" y="199.0" type="line" smooth="yes"/>
      <point x="326.0" y="59.0"/>
      <point x="285.0" y="-5.0"/>
      <point x="200.0" y="-5.0" type="curve" smooth="yes"/>
      <point x="125.0" y="-5.0"/>
      <point x="74.0" y="28.0"/>
      <point x="74.0" y="204.0" type="curve" smooth="yes"/>
      <point x="74.0" y="1395.0" type="line" smooth="yes"/>
      <point x="74.0" y="1399.0"/>
      <point x="75.0" y="1400.0"/>
      <point x="79.0" y="1400.0" type="curve" smooth="yes"/>
      <point x="104.0" y="1400.0" type="line" smooth="yes"/>
      <point x="108.0" y="1400.0"/>
      <point x="109.0" y="1399.0"/>
      <point x="109.0" y="1395.0" type="curve" smooth="yes"/>
      <point x="109.0" y="184.0" type="line" smooth="yes"/>
      <point x="109.0" y="64.0"/>
      <point x="145.0" y="25.0"/>
      <point x="200.0" y="25.0" type="curve" smooth="yes"/>
      <point x="260.0" y="25.0"/>
      <point x="296.0" y="84.0"/>
    </contour>
  </outline>
</glyph>
<glyph name="V" format="2">
  <advance height="960" width="390"/>
  <unicode hex="0056"/>
  <anchor x="203.0" y="0.0" name="bottom"/>
  <anchor x="202.0" y="1400.0" name="top"/>
  <outline>
    <contour>
      <point x="203.0" y="55.0" type="line"/>
      <point x="327.0" y="1395.0" type="line" smooth="yes"/>
      <point x="328.0" y="1398.0"/>
      <point x="330.0" y="1400.0"/>
      <point x="334.0" y="1400.0" type="curve" smooth="yes"/>
      <point x="351.0" y="1400.0" type="line" smooth="yes"/>
      <point x="355.0" y="1400.0"/>
      <point x="355.0" y="1398.0"/>
      <point x="354.0" y="1395.0" type="curve" smooth="yes"/>
      <point x="225.0" y="5.0" type="line" smooth="yes"/>
      <point x="224.0" y="2.0"/>
      <point x="222.0" y="0.0"/>
      <point x="218.0" y="0.0" type="curve" smooth="yes"/>
      <point x="187.0" y="0.0" type="line" smooth="yes"/>
      <point x="183.0" y="0.0"/>
      <point x="182.0" y="2.0"/>
      <point x="181.0" y="5.0" type="curve" smooth="yes"/>
      <point x="38.0" y="1395.0" type="line" smooth="yes"/>
      <point x="37.0" y="1398.0"/>
      <point x="37.0" y="1400.0"/>
      <point x="41.0" y="1400.0" type="curve" smooth="yes"/>
      <point x="67.0" y="1400.0" type="line" smooth="yes"/>
      <point x="71.0" y="1400.0"/>
      <point x="73.0" y="1399.0"/>
      <point x="74.0" y="1395.0" type="curve" smooth="yes"/>
    </contour>
  </outline>
</glyph>
<glyph name="W" format="2">
  <advance height="960" width="655"/>
  <unicode hex="0057"/>
  <anchor x="337.0" y="0.0" name="bottom"/>
  <anchor x="337.0" y="1400.0" name="top"/>
  <outline>
    <contour>
      <point x="187.0" y="55.0" type="line"/>
      <point x="309.0" y="1395.0" type="line" smooth="yes"/>
      <point x="310.0" y="1398.0"/>
      <point x="311.0" y="1400.0"/>
      <point x="315.0" y="1400.0" type="curve" smooth="yes"/>
      <point x="356.0" y="1400.0" type="line" smooth="yes"/>
      <point x="360.0" y="1400.0"/>
      <point x="362.0" y="1398.0"/>
      <point x="363.0" y="1395.0" type="curve" smooth="yes"/>
      <point x="480.0" y="47.0" type="line"/>
      <point x="597.0" y="1395.0" type="line" smooth="yes"/>
      <point x="598.0" y="1398.0"/>
      <point x="600.0" y="1400.0"/>
      <point x="604.0" y="1400.0" type="curve" smooth="yes"/>
      <point x="622.0" y="1400.0" type="line" smooth="yes"/>
      <point x="626.0" y="1400.0"/>
      <point x="626.0" y="1398.0"/>
      <point x="625.0" y="1395.0" type="curve" smooth="yes"/>
      <point x="501.0" y="5.0" type="line" smooth="yes"/>
      <point x="500.0" y="1.0"/>
      <point x="499.0" y="0.0"/>
      <point x="495.0" y="0.0" type="curve" smooth="yes"/>
      <point x="457.0" y="0.0" type="line" smooth="yes"/>
      <point x="454.0" y="0.0"/>
      <point x="451.0" y="1.0"/>
      <point x="450.0" y="5.0" type="curve" smooth="yes"/>
      <point x="332.0" y="1345.0" type="line"/>
      <point x="209.0" y="5.0" type="line" smooth="yes"/>
      <point x="208.0" y="1.0"/>
      <point x="207.0" y="0.0"/>
      <point x="203.0" y="0.0" type="curve" smooth="yes"/>
      <point x="165.0" y="0.0" type="line" smooth="yes"/>
      <point x="161.0" y="0.0"/>
      <point x="160.0" y="1.0"/>
      <point x="159.0" y="5.0" type="curve" smooth="yes"/>
      <point x="39.0" y="1395.0" type="line" smooth="yes"/>
      <point x="38.0" y="1398.0"/>
      <point x="39.0" y="1400.0"/>
      <point x="43.0" y="1400.0" type="curve" smooth="yes"/>
      <point x="66.0" y="1400.0" type="line" smooth="yes"/>
      <point x="70.0" y="1400.0"/>
      <point x="72.0" y="1398.0"/>
      <point x="73.0" y="1395.0" type="curve" smooth="yes"/>
    </contour>
  </outline>
</glyph>
<glyph name="X" format="2">
  <advance height="960" width="387"/>
  <unicode hex="0058"/>
  <anchor x="191.0" y="0.0" name="bottom"/>
  <anchor x="190.0" y="1400.0" name="top"/>
  <outline>
    <contour>
      <point x="303.0" y="1400.0" type="curve" smooth="yes"/>
      <point x="318.0" y="1400.0" type="line" smooth="yes"/>
      <point x="322.0" y="1400.0"/>
      <point x="333.0" y="1399.0"/>
      <point x="332.0" y="1395.0" type="curve" smooth="yes"/>
      <point x="216.0" y="703.0" type="line"/>
      <point x="348.0" y="5.0" type="line" smooth="yes"/>
      <point x="349.0" y="1.0"/>
      <point x="348.0" y="0.0"/>
      <point x="344.0" y="0.0" type="curve" smooth="yes"/>
      <point x="318.0" y="0.0" type="line" smooth="yes"/>
      <point x="314.0" y="0.0"/>
      <point x="312.0" y="1.0"/>
      <point x="310.0" y="5.0" type="curve" smooth="yes"/>
      <point x="194.0" y="666.0" type="line"/>
      <point x="81.0" y="5.0" type="line" smooth="yes"/>
      <point x="78.0" y="1.0"/>
      <point x="77.0" y="0.0"/>
      <point x="73.0" y="0.0" type="curve" smooth="yes"/>
      <point x="46.0" y="0.0" type="line" smooth="yes"/>
      <point x="42.0" y="0.0"/>
      <point x="40.0" y="1.0"/>
      <point x="41.0" y="5.0" type="curve" smooth="yes"/>
      <point x="178.0" y="705.0" type="line"/>
      <point x="57.0" y="1395.0" type="line" smooth="yes"/>
      <point x="56.0" y="1399.0"/>
      <point x="57.0" y="1400.0"/>
      <point x="61.0" y="1400.0" type="curve" smooth="yes"/>
      <point x="86.0" y="1400.0" type="line" smooth="yes"/>
      <point x="90.0" y="1400.0"/>
      <point x="93.0" y="1399.0"/>
      <point x="95.0" y="1395.0" type="curve" smooth="yes"/>
      <point x="200.0" y="741.0" type="line"/>
      <point x="296.0" y="1395.0" type="line" smooth="yes"/>
      <point x="299.0" y="1399.0"/>
      <point x="299.0" y="1400.0"/>
    </contour>
  </outline>
</glyph>
<glyph name="Y" format="2">
  <advance height="960" width="390"/>
  <unicode hex="0059"/>
  <anchor x="197.0" y="0.0" name="bottom"/>
  <anchor x="197.0" y="1400.0" name="top"/>
  <outline>
    <contour>
      <point x="334.0" y="1400.0" type="curve" smooth="yes"/>
      <point x="351.0" y="1400.0" type="line" smooth="yes"/>
      <point x="355.0" y="1400.0"/>
      <point x="355.0" y="1399.0"/>
      <point x="353.0" y="1395.0" type="curve" smooth="yes"/>
      <point x="214.0" y="625.0" type="line"/>
      <point x="214.0" y="5.0" type="line" smooth="yes"/>
      <point x="214.0" y="1.0"/>
      <point x="212.0" y="0.0"/>
      <point x="208.0" y="0.0" type="curve" smooth="yes"/>
      <point x="184.0" y="0.0" type="line" smooth="yes"/>
      <point x="180.0" y="0.0"/>
      <point x="178.0" y="1.0"/>
      <point x="178.0" y="5.0" type="curve" smooth="yes"/>
      <point x="178.0" y="625.0" type="line"/>
      <point x="39.0" y="1395.0" type="line" smooth="yes"/>
      <point x="37.0" y="1399.0"/>
      <point x="37.0" y="1400.0"/>
      <point x="41.0" y="1400.0" type="curve" smooth="yes"/>
      <point x="64.0" y="1400.0" type="line" smooth="yes"/>
      <point x="68.0" y="1400.0"/>
      <point x="70.0" y="1399.0"/>
      <point x="72.0" y="1395.0" type="curve" smooth="yes"/>
      <point x="199.0" y="675.0" type="line"/>
      <point x="326.0" y="1395.0" type="line" smooth="yes"/>
      <point x="328.0" y="1399.0"/>
      <point x="330.0" y="1400.0"/>
    </contour>
  </outline>
</glyph>
<glyph name="Z" format="2">
  <advance height="960" width="366"/>
  <unicode hex="005A"/>
  <anchor x="205.0" y="0.0" name="bottom"/>
  <anchor x="204.0" y="1400.0" name="top"/>
  <outline>
    <contour>
      <point x="5.0" y="5.0" type="curve" smooth="yes"/>
      <point x="305.0" y="1370.0" type="line"/>
      <point x="67.0" y="1370.0" type="line" smooth="yes"/>
      <point x="63.0" y="1370.0"/>
      <point x="62.0" y="1371.0"/>
      <point x="62.0" y="1375.0" type="curve" smooth="yes"/>
      <point x="62.0" y="1395.0" type="line" smooth="yes"/>
      <point x="62.0" y="1399.0"/>
      <point x="63.0" y="1400.0"/>
      <point x="67.0" y="1400.0" type="curve" smooth="yes"/>
      <point x="339.0" y="1400.0" type="line" smooth="yes"/>
      <point x="343.0" y="1400.0"/>
      <point x="344.0" y="1399.0"/>
      <point x="343.0" y="1395.0" type="curve" smooth="yes"/>
      <point x="45.0" y="30.0" type="line"/>
      <point x="322.0" y="30.0" type="line" smooth="yes"/>
      <point x="326.0" y="30.0"/>
      <point x="327.0" y="29.0"/>
      <point x="327.0" y="25.0" type="curve" smooth="yes"/>
      <point x="327.0" y="5.0" type="line" smooth="yes"/>
      <point x="327.0" y="1.0"/>
      <point x="326.0" y="0.0"/>
      <point x="322.0" y="0.0" type="curve" smooth="yes"/>
      <point x="9.0" y="0.0" type="line" smooth="yes"/>
      <point x="5.0" y="0.0"/>
      <point x="4.0" y="1.0"/>
    </contour>
  </outline>
</glyph>
<glyph name="bracketleft" format="2">
  <advance height="1920" width="275"/>
  <unicode hex="005B"/>
  <outline>
    <contour>
      <point x="105.0" y="1575.0" type="line"/>
      <point x="105.0" y="-335.0" type="line"/>
      <point x="245.0" y="-335.0" type="line" smooth="yes"/>
      <point x="249.0" y="-335.0"/>
      <point x="250.0" y="-336.0"/>
      <point x="250.0" y="-340.0" type="curve" smooth="yes"/>
      <point x="250.0" y="-355.0" type="line" smooth="yes"/>
      <point x="250.0" y="-359.0"/>
      <point x="249.0" y="-360.0"/>
      <point x="245.0" y="-360.0" type="curve" smooth="yes"/>
      <point x="80.0" y="-360.0" type="line" smooth="yes"/>
      <point x="76.0" y="-360.0"/>
      <point x="75.0" y="-359.0"/>
      <point x="75.0" y="-355.0" type="curve" smooth="yes"/>
      <point x="75.0" y="1595.0" type="line" smooth="yes"/>
      <point x="75.0" y="1599.0"/>
      <point x="76.0" y="1600.0"/>
      <point x="80.0" y="1600.0" type="curve" smooth="yes"/>
      <point x="245.0" y="1600.0" type="line" smooth="yes"/>
      <point x="249.0" y="1600.0"/>
      <point x="250.0" y="1599.0"/>
      <point x="250.0" y="1595.0" type="curve" smooth="yes"/>
      <point x="250.0" y="1580.0" type="line" smooth="yes"/>
      <point x="250.0" y="1576.0"/>
      <point x="249.0" y="1575.0"/>
      <point x="245.0" y="1575.0" type="curve" smooth="yes"/>
    </contour>
  </outline>
</glyph>
<glyph name="backslash" format="2">
  <advance height="2048" width="379"/>
  <unicode hex="005C"/>
  <outline>
    <contour>
      <point x="357.0" y="-95.0" type="line" smooth="yes"/>
      <point x="358.0" y="-99.0"/>
      <point x="356.0" y="-100.0"/>
      <point x="352.0" y="-100.0" type="curve" smooth="yes"/>
      <point x="334.0" y="-100.0" type="line" smooth="yes"/>
      <point x="330.0" y="-100.0"/>
      <point x="329.0" y="-99.0"/>
      <point x="327.0" y="-95.0" type="curve" smooth="yes"/>
      <point x="18.0" y="1395.0" type="line" smooth="yes"/>
      <point x="17.0" y="1399.0"/>
      <point x="19.0" y="1400.0"/>
      <point x="23.0" y="1400.0" type="curve" smooth="yes"/>
      <point x="41.0" y="1400.0" type="line" smooth="yes"/>
      <point x="44.0" y="1400.0"/>
      <point x="47.0" y="1399.0"/>
      <point x="48.0" y="1395.0" type="curve" smooth="yes"/>
    </contour>
  </outline>
</glyph>
<glyph name="bracketright" format="2">
  <advance height="1920" width="275"/>
  <unicode hex="005D"/>
  <outline>
    <contour>
      <point x="170.0" y="-335.0" type="line"/>
      <point x="170.0" y="1575.0" type="line"/>
      <point x="30.0" y="1575.0" type="line" smooth="yes"/>
      <point x="26.0" y="1575.0"/>
      <point x="25.0" y="1576.0"/>
      <point x="25.0" y="1580.0" type="curve" smooth="yes"/>
      <point x="25.0" y="1595.0" type="line" smooth="yes"/>
      <point x="25.0" y="1599.0"/>
      <point x="26.0" y="1600.0"/>
      <point x="30.0" y="1600.0" type="curve" smooth="yes"/>
      <point x="195.0" y="1600.0" type="line" smooth="yes"/>
      <point x="199.0" y="1600.0"/>
      <point x="200.0" y="1599.0"/>
      <point x="200.0" y="1595.0" type="curve" smooth="yes"/>
      <point x="200.0" y="-355.0" type="line" smooth="yes"/>
      <point x="200.0" y="-359.0"/>
      <point x="199.0" y="-360.0"/>
      <point x="195.0" y="-360.0" type="curve" smooth="yes"/>
      <point x="30.0" y="-360.0" type="line" smooth="yes"/>
      <point x="26.0" y="-360.0"/>
      <point x="25.0" y="-359.0"/>
      <point x="25.0" y="-355.0" type="curve" smooth="yes"/>
      <point x="25.0" y="-340.0" type="line" smooth="yes"/>
      <point x="25.0" y="-336.0"/>
      <point x="26.0" y="-335.0"/>
      <point x="30.0" y="-335.0" type="curve" smooth="yes"/>
    </contour>
  </outline>
</glyph>
<glyph name="asciicircum" format="2">
  <advance height="1920" width="386"/>
  <unicode hex="005E"/>
  <outline>
    <contour>
      <point x="192.0" y="1321.0" type="line"/>
      <point x="66.0" y="740.0" type="line" smooth="yes"/>
      <point x="64.0" y="734.0"/>
      <point x="59.0" y="730.0"/>
      <point x="52.0" y="730.0" type="curve" smooth="yes"/>
      <point x="42.0" y="730.0" type="line" smooth="yes"/>
      <point x="35.0" y="730.0"/>
      <point x="33.0" y="734.0"/>
      <point x="36.0" y="740.0" type="curve" smooth="yes"/>
      <point x="178.0" y="1390.0" type="line" smooth="yes"/>
      <point x="180.0" y="1399.0"/>
      <point x="184.0" y="1400.0"/>
      <point x="191.0" y="1400.0" type="curve" smooth="yes"/>
      <point x="193.0" y="1400.0" type="line" smooth="yes"/>
      <point x="200.0" y="1400.0"/>
      <point x="204.0" y="1399.0"/>
      <point x="206.0" y="1390.0" type="curve" smooth="yes"/>
      <point x="348.0" y="740.0" type="line" smooth="yes"/>
      <point x="351.0" y="734.0"/>
      <point x="354.0" y="730.0"/>
      <point x="342.0" y="730.0" type="curve" smooth="yes"/>
      <point x="332.0" y="730.0" type="line" smooth="yes"/>
      <point x="322.0" y="730.0"/>
      <point x="320.0" y="734.0"/>
      <point x="318.0" y="740.0" type="curve" smooth="yes"/>
    </contour>
  </outline>
</glyph>
<glyph name="grave" format="2">
  <advance width="311"/>
  <unicode hex="0060"/>
  <outline>
    <contour>
      <point x="208.0" y="1104.0" type="curve" smooth="yes"/>
      <point x="198.0" y="1104.0" type="line" smooth="yes"/>
      <point x="194.0" y="1104.0"/>
      <point x="190.0" y="1109.0"/>
      <point x="188.0" y="1114.0" type="curve" smooth="yes"/>
      <point x="75.0" y="1390.0" type="line" smooth="yes"/>
      <point x="73.0" y="1395.0"/>
      <point x="71.0" y="1400.0"/>
      <point x="75.0" y="1400.0" type="curve" smooth="yes"/>
      <point x="101.0" y="1400.0" type="line" smooth="yes"/>
      <point x="105.0" y="1400.0"/>
      <point x="107.0" y="1397.0"/>
      <point x="109.0" y="1390.0" type="curve" smooth="yes"/>
      <point x="210.0" y="1114.0" type="line" smooth="yes"/>
      <point x="212.0" y="1107.0"/>
      <point x="212.0" y="1104.0"/>
    </contour>
  </outline>
</glyph>
<glyph name="b" format="2">
  <advance height="1104" width="344"/>
  <unicode hex="0062"/>
  <outline>
    <contour>
      <point x="76.0" y="1450.0" type="curve" smooth="yes"/>
      <point x="94.0" y="1450.0" type="line" smooth="yes"/>
      <point x="98.0" y="1450.0"/>
      <point x="100.0" y="1448.0"/>
      <point x="100.0" y="1444.0" type="curve" smooth="yes"/>
      <point x="100.0" y="131.0" type="line"/>
      <point x="85.0" y="-3.0" type="line" smooth="yes"/>
      <point x="84.0" y="-8.0"/>
      <point x="82.0" y="-10.0"/>
      <point x="78.0" y="-10.0" type="curve" smooth="yes"/>
      <point x="76.0" y="-10.0" type="line" smooth="yes"/>
      <point x="72.0" y="-10.0"/>
      <point x="70.0" y="-7.0"/>
      <point x="70.0" y="-3.0" type="curve" smooth="yes"/>
      <point x="70.0" y="1444.0" type="line" smooth="yes"/>
      <point x="70.0" y="1448.0"/>
      <point x="72.0" y="1450.0"/>
    </contour>
    <contour>
      <point x="89.0" y="846.0" type="line"/>
      <point x="89.0" y="1005.0"/>
      <point x="137.0" y="1055.0"/>
      <point x="198.0" y="1055.0" type="curve" smooth="yes"/>
      <point x="260.0" y="1055.0"/>
      <point x="290.0" y="1009.0"/>
      <point x="290.0" y="861.0" type="curve" smooth="yes"/>
      <point x="290.0" y="227.0" type="line" smooth="yes"/>
      <point x="290.0" y="53.0"/>
      <point x="275.0" y="-3.0"/>
      <point x="205.0" y="-3.0" type="curve" smooth="yes"/>
      <point x="117.0" y="-3.0"/>
      <point x="88.0" y="149.0"/>
      <point x="88.0" y="294.0" type="curve"/>
      <point x="100.0" y="305.0" type="line"/>
      <point x="100.0" y="180.0"/>
      <point x="130.0" y="25.0"/>
      <point x="203.0" y="25.0" type="curve" smooth="yes"/>
      <point x="247.0" y="25.0"/>
      <point x="260.0" y="80.0"/>
      <point x="260.0" y="214.0" type="curve" smooth="yes"/>
      <point x="260.0" y="873.0" type="line" smooth="yes"/>
      <point x="260.0" y="963.0"/>
      <point x="246.0" y="1026.0"/>
      <point x="189.0" y="1026.0" type="curve" smooth="yes"/>
      <point x="137.0" y="1026.0"/>
      <point x="100.0" y="954.0"/>
      <point x="100.0" y="843.0" type="curve"/>
    </contour>
  </outline>
</glyph>
<glyph name="d" format="2">
  <advance height="1104" width="344"/>
  <unicode hex="0064"/>
  <outline>
    <contour>
      <point x="254.0" y="231.0" type="line"/>
      <point x="254.0" y="70.0"/>
      <point x="226.0" y="-10.0"/>
      <point x="155.0" y="-10.0" type="curve" smooth="yes"/>
      <point x="104.0" y="-10.0"/>
      <point x="56.0" y="31.0"/>
      <point x="56.0" y="215.0" type="curve" smooth="yes"/>
      <point x="56.0" y="836.0" type="line" smooth="yes"/>
      <point x="56.0" y="998.0"/>
      <point x="91.0" y="1070.0"/>
      <point x="157.0" y="1070.0" type="curve" smooth="yes"/>
      <point x="224.0" y="1070.0"/>
      <point x="256.0" y="979.0"/>
      <point x="256.0" y="818.0" type="curve"/>
      <point x="245.0" y="815.0" type="line"/>
      <point x="245.0" y="936.0"/>
      <point x="212.0" y="1041.0"/>
      <point x="159.0" y="1041.0" type="curve" smooth="yes"/>
      <point x="109.0" y="1041.0"/>
      <point x="90.0" y="951.0"/>
      <point x="90.0" y="848.0" type="curve" smooth="yes"/>
      <point x="90.0" y="201.0" type="line" smooth="yes"/>
      <point x="90.0" y="75.0"/>
      <point x="117.0" y="19.0"/>
      <point x="167.0" y="19.0" type="curve" smooth="yes"/>
      <point x="218.0" y="19.0"/>
      <point x="245.0" y="113.0"/>
      <point x="245.0" y="234.0" type="curve"/>
    </contour>
    <contour>
      <point x="276.0" y="1444.0" type="curve" smooth="yes"/>
      <point x="276.0" y="6.0" type="line" smooth="yes"/>
      <point x="276.0" y="2.0"/>
      <point x="274.0" y="0.0"/>
      <point x="270.0" y="0.0" type="curve" smooth="yes"/>
      <point x="254.0" y="0.0" type="line" smooth="yes"/>
      <point x="250.0" y="0.0"/>
      <point x="249.0" y="2.0"/>
      <point x="249.0" y="6.0" type="curve" smooth="yes"/>
      <point x="249.0" y="149.0" type="line"/>
      <point x="245.0" y="167.0" type="line"/>
      <point x="245.0" y="1444.0" type="line" smooth="yes"/>
      <point x="245.0" y="1448.0"/>
      <point x="248.0" y="1450.0"/>
      <point x="252.0" y="1450.0" type="curve" smooth="yes"/>
      <point x="270.0" y="1450.0" type="line" smooth="yes"/>
      <point x="274.0" y="1450.0"/>
      <point x="276.0" y="1448.0"/>
    </contour>
  </outline>
</glyph>
<glyph name="e" format="2">
  <advance height="1104" width="336"/>
  <unicode hex="0065"/>
  <anchor x="176.0" y="0.0" name="bottom"/>
  <anchor x="200.0" y="15.0" name="ogonek"/>
  <anchor x="174.0" y="1050.0" name="top"/>
  <outline>
    <contour>
      <point x="273.0" y="398.0" type="curve" smooth="yes"/>
      <point x="271.0" y="328.0"/>
      <point x="270.0" y="267.0"/>
      <point x="267.0" y="208.0" type="curve" smooth="yes"/>
      <point x="257.0" y="38.0"/>
      <point x="227.0" y="-10.0"/>
      <point x="173.0" y="-10.0" type="curve" smooth="yes"/>
      <point x="100.0" y="-10.0"/>
      <point x="65.0" y="80.0"/>
      <point x="65.0" y="258.0" type="curve" smooth="yes"/>
      <point x="65.0" y="793.0" type="line" smooth="yes"/>
      <point x="65.0" y="965.0"/>
      <point x="98.0" y="1060.0"/>
      <point x="174.0" y="1060.0" type="curve" smooth="yes"/>
      <point x="246.0" y="1060.0"/>
      <point x="265.0" y="979.0"/>
      <point x="272.0" y="824.0" type="curve" smooth="yes"/>
      <point x="278.0" y="698.0"/>
      <point x="277.0" y="628.0"/>
      <point x="277.0" y="502.0" type="curve" smooth="yes"/>
      <point x="277.0" y="500.0"/>
      <point x="276.0" y="497.0"/>
      <point x="272.0" y="497.0" type="curve" smooth="yes"/>
      <point x="82.0" y="497.0" type="line"/>
      <point x="82.0" y="523.0" type="line"/>
      <point x="250.0" y="523.0" type="line"/>
      <point x="248.0" y="970.0"/>
      <point x="228.0" y="1033.0"/>
      <point x="174.0" y="1033.0" type="curve" smooth="yes"/>
      <point x="118.0" y="1033.0"/>
      <point x="95.0" y="935.0"/>
      <point x="95.0" y="805.0" type="curve" smooth="yes"/>
      <point x="95.0" y="245.0" type="line" smooth="yes"/>
      <point x="95.0" y="111.0"/>
      <point x="118.0" y="17.0"/>
      <point x="174.0" y="17.0" type="curve" smooth="yes"/>
      <point x="233.0" y="17.0"/>
      <point x="244.0" y="115.0"/>
      <point x="252.0" y="400.0" type="curve" smooth="yes"/>
      <point x="252.0" y="402.0"/>
      <point x="255.0" y="403.0"/>
      <point x="259.0" y="403.0" type="curve" smooth="yes"/>
      <point x="269.0" y="403.0" type="line" smooth="yes"/>
      <point x="273.0" y="403.0"/>
      <point x="273.0" y="401.0"/>
    </contour>
  </outline>
</glyph>
<glyph name="f" format="2">
  <advance height="1104" width="217"/>
  <unicode hex="0066"/>
  <outline>
    <contour>
      <point x="204.0" y="1025.0" type="curve" smooth="yes"/>
      <point x="41.0" y="1025.0" type="line" smooth="yes"/>
      <point x="37.0" y="1025.0"/>
      <point x="35.0" y="1027.0"/>
      <point x="35.0" y="1031.0" type="curve" smooth="yes"/>
      <point x="35.0" y="1044.0" type="line" smooth="yes"/>
      <point x="35.0" y="1048.0"/>
      <point x="37.0" y="1050.0"/>
      <point x="41.0" y="1050.0" type="curve" smooth="yes"/>
      <point x="204.0" y="1050.0" type="line" smooth="yes"/>
      <point x="208.0" y="1050.0"/>
      <point x="210.0" y="1048.0"/>
      <point x="210.0" y="1044.0" type="curve" smooth="yes"/>
      <point x="210.0" y="1031.0" type="line" smooth="yes"/>
      <point x="210.0" y="1027.0"/>
      <point x="208.0" y="1025.0"/>
    </contour>
    <contour>
      <point x="93.0" y="1315.0" type="line" smooth="yes"/>
      <point x="93.0" y="1434.0"/>
      <point x="100.0" y="1476.0"/>
      <point x="203.0" y="1461.0" type="curve" smooth="yes"/>
      <point x="209.0" y="1460.0"/>
      <point x="210.0" y="1458.0"/>
      <point x="210.0" y="1454.0" type="curve" smooth="yes"/>
      <point x="210.0" y="1442.0" type="line" smooth="yes"/>
      <point x="210.0" y="1438.0"/>
      <point x="207.0" y="1436.0"/>
      <point x="200.0" y="1437.0" type="curve" smooth="yes"/>
      <point x="121.0" y="1448.0"/>
      <point x="124.0" y="1398.0"/>
      <point x="124.0" y="1315.0" type="curve" smooth="yes"/>
      <point x="124.0" y="6.0" type="line" smooth="yes"/>
      <point x="124.0" y="2.0"/>
      <point x="121.0" y="0.0"/>
      <point x="117.0" y="0.0" type="curve" smooth="yes"/>
      <point x="99.0" y="0.0" type="line" smooth="yes"/>
      <point x="95.0" y="0.0"/>
      <point x="93.0" y="2.0"/>
      <point x="93.0" y="6.0" type="curve" smooth="yes"/>
    </contour>
  </outline>
</glyph>
<glyph name="g" format="2">
  <advance height="1104" width="286"/>
  <unicode hex="0067"/>
  <anchor x="74.0" y="1050.0" name="top"/>
  <outline>
    <contour>
      <point x="242.0" y="1254.0" type="curve" smooth="yes"/>
      <point x="234.0" y="1084.0"/>
      <point x="215.0" y="1048.0"/>
      <point x="187.0" y="1031.0" type="curve"/>
      <point x="176.0" y="1041.0" type="line"/>
      <point x="201.0" y="1050.0"/>
      <point x="213.0" y="1092.0"/>
      <point x="216.0" y="1255.0" type="curve" smooth="yes"/>
      <point x="216.0" y="1258.0"/>
      <point x="219.0" y="1260.0"/>
      <point x="223.0" y="1260.0" type="curve" smooth="yes"/>
      <point x="236.0" y="1260.0" type="line" smooth="yes"/>
      <point x="240.0" y="1260.0"/>
      <point x="242.0" y="1258.0"/>
    </contour>
    <contour>
      <point x="161.0" y="153.0" type="line" smooth="yes"/>
      <point x="235.0" y="133.0"/>
      <point x="242.0" y="39.0"/>
      <point x="242.0" y="-106.0" type="curve" smooth="yes"/>
      <point x="242.0" y="-297.0"/>
      <point x="216.0" y="-360.0"/>
      <point x="150.0" y="-360.0" type="curve" smooth="yes"/>
      <point x="140.0" y="-360.0" type="line" smooth="yes"/>
      <point x="80.0" y="-360.0"/>
      <point x="42.0" y="-276.0"/>
      <point x="42.0" y="-114.0" type="curve" smooth="yes"/>
      <point x="42.0" y="25.0"/>
      <point x="69.0" y="118.0"/>
      <point x="123.0" y="156.0" type="curve"/>
      <point x="125.0" y="137.0" type="line"/>
      <point x="87.0" y="100.0"/>
      <point x="73.0" y="-20.0"/>
      <point x="73.0" y="-115.0" type="curve" smooth="yes"/>
      <point x="73.0" y="-271.0"/>
      <point x="110.0" y="-339.0"/>
      <point x="144.0" y="-339.0" type="curve" smooth="yes"/>
      <point x="150.0" y="-339.0" type="line" smooth="yes"/>
      <point x="204.0" y="-339.0"/>
      <point x="214.0" y="-238.0"/>
      <point x="214.0" y="-106.0" type="curve" smooth="yes"/>
      <point x="214.0" y="-7.0"/>
      <point x="214.0" y="105.0"/>
      <point x="151.0" y="121.0" type="curve" smooth="yes"/>
      <point x="117.0" y="132.0" type="line" smooth="yes"/>
      <point x="76.0" y="151.0"/>
      <point x="52.0" y="164.0"/>
      <point x="52.0" y="209.0" type="curve" smooth="yes"/>
      <point x="52.0" y="244.0"/>
      <point x="81.0" y="282.0"/>
      <point x="144.0" y="290.0" type="curve"/>
      <point x="145.0" y="281.0" type="line"/>
      <point x="109.0" y="272.0"/>
      <point x="82.0" y="256.0"/>
      <point x="82.0" y="219.0" type="curve" smooth="yes"/>
      <point x="82.0" y="183.0"/>
      <point x="100.0" y="177.0"/>
      <point x="126.0" y="165.0" type="curve" smooth="yes"/>
    </contour>
    <contour>
      <point x="203.0" y="489.0" type="curve" smooth="yes"/>
      <point x="203.0" y="855.0" type="line" smooth="yes"/>
      <point x="203.0" y="943.0"/>
      <point x="183.0" y="1042.0"/>
      <point x="143.0" y="1042.0" type="curve" smooth="yes"/>
      <point x="101.0" y="1042.0"/>
      <point x="80.0" y="939.0"/>
      <point x="80.0" y="855.0" type="curve" smooth="yes"/>
      <point x="80.0" y="489.0" type="line" smooth="yes"/>
      <point x="80.0" y="409.0"/>
      <point x="104.0" y="304.0"/>
      <point x="143.0" y="304.0" type="curve" smooth="yes"/>
      <point x="183.0" y="304.0"/>
      <point x="203.0" y="404.0"/>
    </contour>
    <contour>
      <point x="233.0" y="502.0" type="line" smooth="yes"/>
      <point x="233.0" y="378.0"/>
      <point x="205.0" y="274.0"/>
      <point x="142.0" y="274.0" type="curve" smooth="yes"/>
      <point x="71.0" y="274.0"/>
      <point x="50.0" y="378.0"/>
      <point x="50.0" y="502.0" type="curve" smooth="yes"/>
      <point x="50.0" y="842.0" type="line" smooth="yes"/>
      <point x="50.0" y="970.0"/>
      <point x="71.0" y="1070.0"/>
      <point x="142.0" y="1070.0" type="curve" smooth="yes"/>
      <point x="212.0" y="1070.0"/>
      <point x="233.0" y="970.0"/>
      <point x="233.0" y="842.0" type="curve" smooth="yes"/>
    </contour>
  </outline>
</glyph>
<glyph name="h" format="2">
  <advance height="1104" width="336"/>
  <unicode hex="0068"/>
  <anchor x="172.0" y="0.0" name="bottom"/>
  <anchor x="87.0" y="1450.0" name="top"/>
  <outline>
    <contour>
      <point x="78.0" y="1450.0" type="curve" smooth="yes"/>
      <point x="96.0" y="1450.0" type="line" smooth="yes"/>
      <point x="100.0" y="1450.0"/>
      <point x="102.0" y="1448.0"/>
      <point x="102.0" y="1444.0" type="curve" smooth="yes"/>
      <point x="102.0" y="6.0" type="line" smooth="yes"/>
      <point x="102.0" y="2.0"/>
      <point x="100.0" y="0.0"/>
      <point x="96.0" y="0.0" type="curve" smooth="yes"/>
      <point x="78.0" y="0.0" type="line" smooth="yes"/>
      <point x="74.0" y="0.0"/>
      <point x="72.0" y="2.0"/>
      <point x="72.0" y="6.0" type="curve" smooth="yes"/>
      <point x="72.0" y="1444.0" type="line" smooth="yes"/>
      <point x="72.0" y="1448.0"/>
      <point x="74.0" y="1450.0"/>
    </contour>
    <contour>
      <point x="94.0" y="839.0" type="line"/>
      <point x="94.0" y="967.0"/>
      <point x="125.0" y="1060.0"/>
      <point x="189.0" y="1060.0" type="curve" smooth="yes"/>
      <point x="248.0" y="1060.0"/>
      <point x="267.0" y="1001.0"/>
      <point x="267.0" y="881.0" type="curve" smooth="yes"/>
      <point x="267.0" y="6.0" type="line" smooth="yes"/>
      <point x="267.0" y="2.0"/>
      <point x="266.0" y="0.0"/>
      <point x="262.0" y="0.0" type="curve" smooth="yes"/>
      <point x="243.0" y="0.0" type="line" smooth="yes"/>
      <point x="239.0" y="0.0"/>
      <point x="238.0" y="2.0"/>
      <point x="238.0" y="6.0" type="curve" smooth="yes"/>
      <point x="238.0" y="881.0" type="line" smooth="yes"/>
      <point x="238.0" y="963.0"/>
      <point x="231.0" y="1033.0"/>
      <point x="181.0" y="1033.0" type="curve" smooth="yes"/>
      <point x="133.0" y="1033.0"/>
      <point x="102.0" y="926.0"/>
      <point x="102.0" y="805.0" type="curve"/>
    </contour>
  </outline>
</glyph>
<glyph name="i" format="2">
  <advance height="1104" width="168"/>
  <unicode hex="0069"/>
  <anchor x="84.0" y="0.0" name="bottom"/>
  <anchor x="84.0" y="0.0" name="ogonek"/>
  <outline>
    <contour>
      <point x="99.0" y="1426.0" type="curve" smooth="yes"/>
      <point x="99.0" y="1216.0" type="line" smooth="yes"/>
      <point x="99.0" y="1212.0"/>
      <point x="98.0" y="1210.0"/>
      <point x="94.0" y="1210.0" type="curve" smooth="yes"/>
      <point x="75.0" y="1210.0" type="line" smooth="yes"/>
      <point x="71.0" y="1210.0"/>
      <point x="69.0" y="1212.0"/>
      <point x="69.0" y="1216.0" type="curve" smooth="yes"/>
      <point x="69.0" y="1426.0" type="line" smooth="yes"/>
      <point x="69.0" y="1430.0"/>
      <point x="71.0" y="1431.0"/>
      <point x="75.0" y="1431.0" type="curve" smooth="yes"/>
      <point x="94.0" y="1431.0" type="line" smooth="yes"/>
      <point x="98.0" y="1431.0"/>
      <point x="99.0" y="1430.0"/>
    </contour>
    <contour>
      <point x="99.0" y="1044.0" type="curve" smooth="yes"/>
      <point x="99.0" y="6.0" type="line" smooth="yes"/>
      <point x="99.0" y="2.0"/>
      <point x="98.0" y="0.0"/>
      <point x="94.0" y="0.0" type="curve" smooth="yes"/>
      <point x="75.0" y="0.0" type="line" smooth="yes"/>
      <point x="71.0" y="0.0"/>
      <point x="69.0" y="2.0"/>
      <point x="69.0" y="6.0" type="curve" smooth="yes"/>
      <point x="69.0" y="1044.0" type="line" smooth="yes"/>
      <point x="69.0" y="1048.0"/>
      <point x="71.0" y="1050.0"/>
      <point x="75.0" y="1050.0" type="curve" smooth="yes"/>
      <point x="94.0" y="1050.0" type="line" smooth="yes"/>
      <point x="98.0" y="1050.0"/>
      <point x="99.0" y="1048.0"/>
    </contour>
  </outline>
</glyph>
<glyph name="j" format="2">
  <advance height="1104" width="168"/>
  <unicode hex="006A"/>
  <outline>
    <contour>
      <point x="100.0" y="1426.0" type="curve" smooth="yes"/>
      <point x="100.0" y="1216.0" type="line" smooth="yes"/>
      <point x="100.0" y="1212.0"/>
      <point x="98.0" y="1210.0"/>
      <point x="94.0" y="1210.0" type="curve" smooth="yes"/>
      <point x="75.0" y="1210.0" type="line" smooth="yes"/>
      <point x="71.0" y="1210.0"/>
      <point x="70.0" y="1212.0"/>
      <point x="70.0" y="1216.0" type="curve" smooth="yes"/>
      <point x="70.0" y="1426.0" type="line" smooth="yes"/>
      <point x="70.0" y="1430.0"/>
      <point x="71.0" y="1431.0"/>
      <point x="75.0" y="1431.0" type="curve" smooth="yes"/>
      <point x="94.0" y="1431.0" type="line" smooth="yes"/>
      <point x="98.0" y="1431.0"/>
      <point x="100.0" y="1430.0"/>
    </contour>
    <contour>
      <point x="100.0" y="-55.0" type="line" smooth="yes"/>
      <point x="100.0" y="-174.0"/>
      <point x="87.0" y="-223.0"/>
      <point x="-26.0" y="-202.0" type="curve" smooth="yes"/>
      <point x="-31.0" y="-201.0"/>
      <point x="-32.0" y="-200.0"/>
      <point x="-32.0" y="-196.0" type="curve" smooth="yes"/>
      <point x="-32.0" y="-180.0" type="line" smooth="yes"/>
      <point x="-32.0" y="-176.0"/>
      <point x="-30.0" y="-175.0"/>
      <point x="-26.0" y="-176.0" type="curve" smooth="yes"/>
      <point x="61.0" y="-193.0"/>
      <point x="70.0" y="-158.0"/>
      <point x="70.0" y="-74.0" type="curve" smooth="yes"/>
      <point x="70.0" y="1044.0" type="line" smooth="yes"/>
      <point x="70.0" y="1048.0"/>
      <point x="71.0" y="1050.0"/>
      <point x="75.0" y="1050.0" type="curve" smooth="yes"/>
      <point x="94.0" y="1050.0" type="line" smooth="yes"/>
      <point x="98.0" y="1050.0"/>
      <point x="100.0" y="1048.0"/>
      <point x="100.0" y="1044.0" type="curve" smooth="yes"/>
    </contour>
  </outline>
</glyph>
<glyph name="l" format="2">
  <advance height="1104" width="174"/>
  <unicode hex="006C"/>
  <outline>
    <contour>
      <point x="78.0" y="1450.0" type="curve" smooth="yes"/>
      <point x="97.0" y="1450.0" type="line" smooth="yes"/>
      <point x="101.0" y="1450.0"/>
      <point x="102.0" y="1448.0"/>
      <point x="102.0" y="1444.0" type="curve" smooth="yes"/>
      <point x="102.0" y="6.0" type="line" smooth="yes"/>
      <point x="102.0" y="2.0"/>
      <point x="101.0" y="0.0"/>
      <point x="97.0" y="0.0" type="curve" smooth="yes"/>
      <point x="78.0" y="0.0" type="line" smooth="yes"/>
      <point x="74.0" y="0.0"/>
      <point x="72.0" y="2.0"/>
      <point x="72.0" y="6.0" type="curve" smooth="yes"/>
      <point x="72.0" y="1444.0" type="line" smooth="yes"/>
      <point x="72.0" y="1448.0"/>
      <point x="74.0" y="1450.0"/>
    </contour>
  </outline>
</glyph>
<glyph name="n" format="2">
  <advance height="1104" width="336"/>
  <unicode hex="006E"/>
  <anchor x="168.0" y="0.0" name="bottom"/>
  <anchor x="190.0" y="1050.0" name="top"/>
  <outline>
    <contour>
      <point x="78.0" y="1050.0" type="curve" smooth="yes"/>
      <point x="94.0" y="1050.0" type="line" smooth="yes"/>
      <point x="98.0" y="1050.0"/>
      <point x="99.0" y="1048.0"/>
      <point x="99.0" y="1044.0" type="curve" smooth="yes"/>
      <point x="99.0" y="902.0" type="line"/>
      <point x="102.0" y="886.0" type="line"/>
      <point x="102.0" y="6.0" type="line" smooth="yes"/>
      <point x="102.0" y="2.0"/>
      <point x="100.0" y="0.0"/>
      <point x="96.0" y="0.0" type="curve" smooth="yes"/>
      <point x="78.0" y="0.0" type="line" smooth="yes"/>
      <point x="74.0" y="0.0"/>
      <point x="72.0" y="2.0"/>
      <point x="72.0" y="6.0" type="curve" smooth="yes"/>
      <point x="72.0" y="1044.0" type="line" smooth="yes"/>
      <point x="72.0" y="1048.0"/>
      <point x="74.0" y="1050.0"/>
    </contour>
    <contour>
      <point x="94.0" y="839.0" type="line"/>
      <point x="94.0" y="967.0"/>
      <point x="117.0" y="1060.0"/>
      <point x="189.0" y="1060.0" type="curve" smooth="yes"/>
      <point x="248.0" y="1060.0"/>
      <point x="267.0" y="1001.0"/>
      <point x="267.0" y="881.0" type="curve" smooth="yes"/>
      <point x="267.0" y="6.0" type="line" smooth="yes"/>
      <point x="267.0" y="2.0"/>
      <point x="266.0" y="0.0"/>
      <point x="262.0" y="0.0" type="curve" smooth="yes"/>
      <point x="243.0" y="0.0" type="line" smooth="yes"/>
      <point x="239.0" y="0.0"/>
      <point x="238.0" y="2.0"/>
      <point x="238.0" y="6.0" type="curve" smooth="yes"/>
      <point x="238.0" y="881.0" type="line" smooth="yes"/>
      <point x="238.0" y="963.0"/>
      <point x="231.0" y="1033.0"/>
      <point x="181.0" y="1033.0" type="curve" smooth="yes"/>
      <point x="133.0" y="1033.0"/>
      <point x="102.0" y="926.0"/>
      <point x="102.0" y="805.0" type="curve"/>
    </contour>
  </outline>
</glyph>
<glyph name="o" format="2">
  <advance height="1104" width="349"/>
  <unicode hex="006F"/>
  <anchor x="174.0" y="0.0" name="bottom"/>
  <anchor x="174.0" y="1050.0" name="top"/>
  <outline>
    <contour>
      <point x="61.0" y="221.0" type="curve" smooth="yes"/>
      <point x="61.0" y="831.0" type="line" smooth="yes"/>
      <point x="61.0" y="998.0"/>
      <point x="103.0" y="1060.0"/>
      <point x="175.0" y="1060.0" type="curve" smooth="yes"/>
      <point x="247.0" y="1060.0"/>
      <point x="290.0" y="998.0"/>
      <point x="290.0" y="831.0" type="curve" smooth="yes"/>
      <point x="290.0" y="221.0" type="line" smooth="yes"/>
      <point x="290.0" y="54.0"/>
      <point x="247.0" y="-10.0"/>
      <point x="175.0" y="-10.0" type="curve" smooth="yes"/>
      <point x="103.0" y="-10.0"/>
      <point x="61.0" y="54.0"/>
    </contour>
    <contour>
      <point x="92.0" y="208.0" type="line" smooth="yes"/>
      <point x="92.0" y="87.0"/>
      <point x="121.0" y="18.0"/>
      <point x="175.0" y="18.0" type="curve" smooth="yes"/>
      <point x="229.0" y="18.0"/>
      <point x="258.0" y="87.0"/>
      <point x="258.0" y="208.0" type="curve" smooth="yes"/>
      <point x="258.0" y="843.0" type="line" smooth="yes"/>
      <point x="258.0" y="964.0"/>
      <point x="229.0" y="1032.0"/>
      <point x="175.0" y="1032.0" type="curve" smooth="yes"/>
      <point x="121.0" y="1032.0"/>
      <point x="92.0" y="964.0"/>
      <point x="92.0" y="843.0" type="curve" smooth="yes"/>
    </contour>
  </outline>
</glyph>
<glyph name="q" format="2">
  <advance height="1104" width="344"/>
  <unicode hex="0071"/>
  <outline>
    <contour>
      <point x="270.0" y="-360.0" type="curve" smooth="yes"/>
      <point x="252.0" y="-360.0" type="line" smooth="yes"/>
      <point x="248.0" y="-360.0"/>
      <point x="246.0" y="-358.0"/>
      <point x="246.0" y="-354.0" type="curve" smooth="yes"/>
      <point x="246.0" y="919.0" type="line"/>
      <point x="261.0" y="1053.0" type="line" smooth="yes"/>
      <point x="262.0" y="1058.0"/>
      <point x="264.0" y="1060.0"/>
      <point x="268.0" y="1060.0" type="curve" smooth="yes"/>
      <point x="270.0" y="1060.0" type="line" smooth="yes"/>
      <point x="274.0" y="1060.0"/>
      <point x="276.0" y="1057.0"/>
      <point x="276.0" y="1053.0" type="curve" smooth="yes"/>
      <point x="276.0" y="-354.0" type="line" smooth="yes"/>
      <point x="276.0" y="-358.0"/>
      <point x="274.0" y="-360.0"/>
    </contour>
    <contour>
      <point x="257.0" y="206.0" type="line"/>
      <point x="257.0" y="47.0"/>
      <point x="209.0" y="-3.0"/>
      <point x="148.0" y="-3.0" type="curve" smooth="yes"/>
      <point x="86.0" y="-3.0"/>
      <point x="56.0" y="43.0"/>
      <point x="56.0" y="191.0" type="curve" smooth="yes"/>
      <point x="56.0" y="825.0" type="line" smooth="yes"/>
      <point x="56.0" y="999.0"/>
      <point x="71.0" y="1055.0"/>
      <point x="141.0" y="1055.0" type="curve" smooth="yes"/>
      <point x="229.0" y="1055.0"/>
      <point x="258.0" y="903.0"/>
      <point x="258.0" y="758.0" type="curve"/>
      <point x="246.0" y="747.0" type="line"/>
      <point x="246.0" y="872.0"/>
      <point x="216.0" y="1027.0"/>
      <point x="143.0" y="1027.0" type="curve" smooth="yes"/>
      <point x="99.0" y="1027.0"/>
      <point x="86.0" y="972.0"/>
      <point x="86.0" y="838.0" type="curve" smooth="yes"/>
      <point x="86.0" y="179.0" type="line" smooth="yes"/>
      <point x="86.0" y="89.0"/>
      <point x="100.0" y="26.0"/>
      <point x="157.0" y="26.0" type="curve" smooth="yes"/>
      <point x="209.0" y="26.0"/>
      <point x="246.0" y="98.0"/>
      <point x="246.0" y="209.0" type="curve"/>
    </contour>
  </outline>
</glyph>
<glyph name="r" format="2">
  <advance height="1104" width="223"/>
  <unicode hex="0072"/>
  <anchor x="85.0" y="0.0" name="bottom"/>
  <anchor x="152.0" y="1050.0" name="top"/>
  <outline>
    <contour>
      <point x="76.0" y="1050.0" type="curve" smooth="yes"/>
      <point x="89.0" y="1050.0" type="line" smooth="yes"/>
      <point x="93.0" y="1050.0"/>
      <point x="96.0" y="1048.0"/>
      <point x="96.0" y="1044.0" type="curve" smooth="yes"/>
      <point x="96.0" y="746.0" type="line"/>
      <point x="100.0" y="741.0" type="line"/>
      <point x="100.0" y="6.0" type="line" smooth="yes"/>
      <point x="100.0" y="2.0"/>
      <point x="98.0" y="0.0"/>
      <point x="94.0" y="0.0" type="curve" smooth="yes"/>
      <point x="76.0" y="0.0" type="line" smooth="yes"/>
      <point x="72.0" y="0.0"/>
      <point x="70.0" y="2.0"/>
      <point x="70.0" y="6.0" type="curve" smooth="yes"/>
      <point x="70.0" y="1044.0" type="line" smooth="yes"/>
      <point x="70.0" y="1048.0"/>
      <point x="72.0" y="1050.0"/>
    </contour>
    <contour>
      <point x="88.0" y="717.0" type="line"/>
      <point x="88.0" y="898.0"/>
      <point x="121.0" y="1063.0"/>
      <point x="201.0" y="1056.0" type="curve" smooth="yes"/>
      <point x="208.0" y="1055.0"/>
      <point x="210.0" y="1054.0"/>
      <point x="210.0" y="1050.0" type="curve" smooth="yes"/>
      <point x="210.0" y="1035.0" type="line" smooth="yes"/>
      <point x="210.0" y="1031.0"/>
      <point x="208.0" y="1030.0"/>
      <point x="200.0" y="1030.0" type="curve" smooth="yes"/>
      <point x="129.0" y="1032.0"/>
      <point x="100.0" y="857.0"/>
      <point x="100.0" y="692.0" type="curve"/>
    </contour>
  </outline>
</glyph>
<glyph name="s" format="2">
  <advance height="1104" width="316"/>
  <unicode hex="0073"/>
  <anchor x="156.0" y="0.0" name="bottom"/>
  <anchor x="159.0" y="1050.0" name="top"/>
  <outline>
    <contour>
      <point x="59.0" y="393.0" type="curve" smooth="yes"/>
      <point x="73.0" y="393.0" type="line" smooth="yes"/>
      <point x="77.0" y="393.0"/>
      <point x="79.0" y="391.0"/>
      <point x="79.0" y="387.0" type="curve" smooth="yes"/>
      <point x="79.0" y="336.0"/>
      <point x="80.0" y="269.0"/>
      <point x="81.0" y="199.0" type="curve" smooth="yes"/>
      <point x="83.0" y="59.0"/>
      <point x="109.0" y="18.0"/>
      <point x="154.0" y="18.0" type="curve" smooth="yes"/>
      <point x="208.0" y="18.0"/>
      <point x="232.0" y="111.0"/>
      <point x="232.0" y="222.0" type="curve" smooth="yes"/>
      <point x="232.0" y="475.0"/>
      <point x="63.0" y="525.0"/>
      <point x="63.0" y="843.0" type="curve" smooth="yes"/>
      <point x="63.0" y="1022.0"/>
      <point x="105.0" y="1070.0"/>
      <point x="160.0" y="1070.0" type="curve" smooth="yes"/>
      <point x="225.0" y="1070.0"/>
      <point x="246.0" y="1001.0"/>
      <point x="250.0" y="842.0" type="curve" smooth="yes"/>
      <point x="251.0" y="791.0"/>
      <point x="253.0" y="745.0"/>
      <point x="253.0" y="677.0" type="curve" smooth="yes"/>
      <point x="253.0" y="673.0"/>
      <point x="252.0" y="672.0"/>
      <point x="248.0" y="672.0" type="curve" smooth="yes"/>
      <point x="234.0" y="672.0" type="line" smooth="yes"/>
      <point x="230.0" y="672.0"/>
      <point x="227.0" y="674.0"/>
      <point x="227.0" y="678.0" type="curve" smooth="yes"/>
      <point x="227.0" y="736.0"/>
      <point x="226.0" y="772.0"/>
      <point x="225.0" y="824.0" type="curve" smooth="yes"/>
      <point x="222.0" y="955.0"/>
      <point x="211.0" y="1042.0"/>
      <point x="160.0" y="1042.0" type="curve" smooth="yes"/>
      <point x="112.0" y="1042.0"/>
      <point x="92.0" y="967.0"/>
      <point x="92.0" y="843.0" type="curve" smooth="yes"/>
      <point x="92.0" y="540.0"/>
      <point x="263.0" y="481.0"/>
      <point x="263.0" y="222.0" type="curve" smooth="yes"/>
      <point x="263.0" y="62.0"/>
      <point x="216.0" y="-10.0"/>
      <point x="161.0" y="-10.0" type="curve" smooth="yes"/>
      <point x="100.0" y="-10.0"/>
      <point x="57.0" y="18.0"/>
      <point x="55.0" y="177.0" type="curve" smooth="yes"/>
      <point x="54.0" y="257.0"/>
      <point x="54.0" y="342.0"/>
      <point x="54.0" y="388.0" type="curve" smooth="yes"/>
      <point x="54.0" y="392.0"/>
      <point x="55.0" y="393.0"/>
    </contour>
  </outline>
</glyph>
<glyph name="t" format="2">
  <advance height="1104" width="215"/>
  <unicode hex="0074"/>
  <anchor x="145.0" y="0.0" name="bottom"/>
  <outline>
    <contour>
      <point x="198.0" y="1025.0" type="curve" smooth="yes"/>
      <point x="32.0" y="1025.0" type="line" smooth="yes"/>
      <point x="28.0" y="1025.0"/>
      <point x="26.0" y="1027.0"/>
      <point x="26.0" y="1031.0" type="curve" smooth="yes"/>
      <point x="26.0" y="1044.0" type="line" smooth="yes"/>
      <point x="26.0" y="1048.0"/>
      <point x="28.0" y="1050.0"/>
      <point x="32.0" y="1050.0" type="curve" smooth="yes"/>
      <point x="198.0" y="1050.0" type="line" smooth="yes"/>
      <point x="202.0" y="1050.0"/>
      <point x="204.0" y="1048.0"/>
      <point x="204.0" y="1044.0" type="curve" smooth="yes"/>
      <point x="204.0" y="1031.0" type="line" smooth="yes"/>
      <point x="204.0" y="1027.0"/>
      <point x="202.0" y="1025.0"/>
    </contour>
    <contour>
      <point x="204.0" y="18.0" type="curve" smooth="yes"/>
      <point x="204.0" y="6.0" type="line" smooth="yes"/>
      <point x="204.0" y="2.0"/>
      <point x="203.0" y="1.0"/>
      <point x="198.0" y="0.0" type="curve" smooth="yes"/>
      <point x="104.0" y="-14.0"/>
      <point x="89.0" y="26.0"/>
      <point x="89.0" y="146.0" type="curve" smooth="yes"/>
      <point x="89.0" y="1243.0" type="line" smooth="yes"/>
      <point x="89.0" y="1247.0"/>
      <point x="90.0" y="1249.0"/>
      <point x="94.0" y="1249.0" type="curve" smooth="yes"/>
      <point x="111.0" y="1249.0" type="line" smooth="yes"/>
      <point x="115.0" y="1249.0"/>
      <point x="118.0" y="1247.0"/>
      <point x="118.0" y="1243.0" type="curve" smooth="yes"/>
      <point x="118.0" y="146.0" type="line" smooth="yes"/>
      <point x="118.0" y="63.0"/>
      <point x="116.0" y="10.0"/>
      <point x="196.0" y="22.0" type="curve" smooth="yes"/>
      <point x="202.0" y="23.0"/>
      <point x="204.0" y="21.0"/>
    </contour>
  </outline>
</glyph>
<glyph name="u" format="2">
  <advance height="1104" width="336"/>
  <unicode hex="0075"/>
  <anchor x="162.0" y="0.0" name="bottom"/>
  <anchor x="235.0" y="0.0" name="ogonek"/>
  <anchor x="170.0" y="1050.0" name="top"/>
  <outline>
    <contour>
      <point x="260.0" y="0.0" type="curve" smooth="yes"/>
      <point x="244.0" y="0.0" type="line" smooth="yes"/>
      <point x="240.0" y="0.0"/>
      <point x="239.0" y="2.0"/>
      <point x="239.0" y="6.0" type="curve" smooth="yes"/>
      <point x="239.0" y="148.0" type="line"/>
      <point x="236.0" y="164.0" type="line"/>
      <point x="236.0" y="1044.0" type="line" smooth="yes"/>
      <point x="236.0" y="1048.0"/>
      <point x="239.0" y="1050.0"/>
      <point x="243.0" y="1050.0" type="curve" smooth="yes"/>
      <point x="260.0" y="1050.0" type="line" smooth="yes"/>
      <point x="264.0" y="1050.0"/>
      <point x="267.0" y="1048.0"/>
      <point x="267.0" y="1044.0" type="curve" smooth="yes"/>
      <point x="267.0" y="6.0" type="line" smooth="yes"/>
      <point x="267.0" y="2.0"/>
      <point x="264.0" y="0.0"/>
    </contour>
    <contour>
      <point x="244.0" y="211.0" type="line"/>
      <point x="244.0" y="83.0"/>
      <point x="221.0" y="-10.0"/>
      <point x="149.0" y="-10.0" type="curve" smooth="yes"/>
      <point x="90.0" y="-10.0"/>
      <point x="72.0" y="49.0"/>
      <point x="72.0" y="169.0" type="curve" smooth="yes"/>
      <point x="72.0" y="1044.0" type="line" smooth="yes"/>
      <point x="72.0" y="1048.0"/>
      <point x="72.0" y="1050.0"/>
      <point x="76.0" y="1050.0" type="curve" smooth="yes"/>
      <point x="96.0" y="1050.0" type="line" smooth="yes"/>
      <point x="100.0" y="1050.0"/>
      <point x="101.0" y="1048.0"/>
      <point x="101.0" y="1044.0" type="curve" smooth="yes"/>
      <point x="101.0" y="169.0" type="line" smooth="yes"/>
      <point x="101.0" y="87.0"/>
      <point x="107.0" y="17.0"/>
      <point x="157.0" y="17.0" type="curve" smooth="yes"/>
      <point x="205.0" y="17.0"/>
      <point x="236.0" y="124.0"/>
      <point x="236.0" y="245.0" type="curve"/>
    </contour>
  </outline>
</glyph>
<glyph name="v" format="2">
  <advance height="1104" width="272"/>
  <unicode hex="0076"/>
  <outline>
    <contour>
      <point x="143.0" y="73.0" type="line"/>
      <point x="224.0" y="1044.0" type="line" smooth="yes"/>
      <point x="225.0" y="1048.0"/>
      <point x="228.0" y="1050.0"/>
      <point x="232.0" y="1050.0" type="curve" smooth="yes"/>
      <point x="244.0" y="1050.0" type="line" smooth="yes"/>
      <point x="248.0" y="1050.0"/>
      <point x="250.0" y="1048.0"/>
      <point x="250.0" y="1044.0" type="curve" smooth="yes"/>
      <point x="161.0" y="6.0" type="line" smooth="yes"/>
      <point x="159.0" y="1.0"/>
      <point x="157.0" y="0.0"/>
      <point x="153.0" y="0.0" type="curve" smooth="yes"/>
      <point x="126.0" y="0.0" type="line" smooth="yes"/>
      <point x="122.0" y="0.0"/>
      <point x="120.0" y="2.0"/>
      <point x="118.0" y="6.0" type="curve" smooth="yes"/>
      <point x="23.0" y="1044.0" type="line" smooth="yes"/>
      <point x="23.0" y="1048.0"/>
      <point x="24.0" y="1050.0"/>
      <point x="28.0" y="1050.0" type="curve" smooth="yes"/>
      <point x="43.0" y="1050.0" type="line" smooth="yes"/>
      <point x="47.0" y="1050.0"/>
      <point x="49.0" y="1048.0"/>
      <point x="49.0" y="1044.0" type="curve" smooth="yes"/>
    </contour>
  </outline>
</glyph>
<glyph name="w" format="2">
  <advance height="1104" width="440"/>
  <unicode hex="0077"/>
  <outline>
    <contour>
      <point x="317.0" y="56.0" type="line"/>
      <point x="387.0" y="1044.0" type="line" smooth="yes"/>
      <point x="388.0" y="1048.0"/>
      <point x="390.0" y="1050.0"/>
      <point x="394.0" y="1050.0" type="curve" smooth="yes"/>
      <point x="408.0" y="1050.0" type="line" smooth="yes"/>
      <point x="412.0" y="1050.0"/>
      <point x="414.0" y="1048.0"/>
      <point x="413.0" y="1044.0" type="curve" smooth="yes"/>
      <point x="336.0" y="6.0" type="line" smooth="yes"/>
      <point x="335.0" y="2.0"/>
      <point x="333.0" y="0.0"/>
      <point x="329.0" y="0.0" type="curve" smooth="yes"/>
      <point x="301.0" y="0.0" type="line" smooth="yes"/>
      <point x="298.0" y="0.0"/>
      <point x="294.0" y="1.0"/>
      <point x="293.0" y="6.0" type="curve" smooth="yes"/>
      <point x="224.0" y="971.0" type="line"/>
      <point x="158.0" y="6.0" type="line" smooth="yes"/>
      <point x="157.0" y="1.0"/>
      <point x="155.0" y="0.0"/>
      <point x="151.0" y="0.0" type="curve" smooth="yes"/>
      <point x="121.0" y="0.0" type="line" smooth="yes"/>
      <point x="117.0" y="0.0"/>
      <point x="115.0" y="1.0"/>
      <point x="114.0" y="6.0" type="curve" smooth="yes"/>
      <point x="29.0" y="1044.0" type="line" smooth="yes"/>
      <point x="28.0" y="1048.0"/>
      <point x="28.0" y="1050.0"/>
      <point x="32.0" y="1050.0" type="curve" smooth="yes"/>
      <point x="47.0" y="1050.0" type="line" smooth="yes"/>
      <point x="51.0" y="1050.0"/>
      <point x="53.0" y="1048.0"/>
      <point x="54.0" y="1044.0" type="curve" smooth="yes"/>
      <point x="138.0" y="56.0" type="line"/>
      <point x="206.0" y="1044.0" type="line" smooth="yes"/>
      <point x="207.0" y="1048.0"/>
      <point x="209.0" y="1050.0"/>
      <point x="213.0" y="1050.0" type="curve" smooth="yes"/>
      <point x="233.0" y="1050.0" type="line" smooth="yes"/>
      <point x="236.0" y="1050.0"/>
      <point x="240.0" y="1048.0"/>
      <point x="240.0" y="1044.0" type="curve" smooth="yes"/>
    </contour>
  </outline>
</glyph>
<glyph name="x" format="2">
  <advance height="1104" width="286"/>
  <unicode hex="0078"/>
  <outline>
    <contour>
      <point x="54.0" y="0.0" type="curve" smooth="yes"/>
      <point x="34.0" y="0.0" type="line" smooth="yes"/>
      <point x="30.0" y="0.0"/>
      <point x="29.0" y="1.0"/>
      <point x="30.0" y="6.0" type="curve" smooth="yes"/>
      <point x="125.0" y="540.0" type="line"/>
      <point x="32.0" y="1044.0" type="line" smooth="yes"/>
      <point x="31.0" y="1049.0"/>
      <point x="33.0" y="1050.0"/>
      <point x="37.0" y="1050.0" type="curve" smooth="yes"/>
      <point x="57.0" y="1050.0" type="line" smooth="yes"/>
      <point x="61.0" y="1050.0"/>
      <point x="61.0" y="1049.0"/>
      <point x="62.0" y="1044.0" type="curve" smooth="yes"/>
      <point x="144.0" y="589.0" type="line"/>
      <point x="222.0" y="1044.0" type="line" smooth="yes"/>
      <point x="223.0" y="1049.0"/>
      <point x="224.0" y="1050.0"/>
      <point x="228.0" y="1050.0" type="curve" smooth="yes"/>
      <point x="249.0" y="1050.0" type="line" smooth="yes"/>
      <point x="253.0" y="1050.0"/>
      <point x="254.0" y="1049.0"/>
      <point x="253.0" y="1044.0" type="curve" smooth="yes"/>
      <point x="163.0" y="548.0" type="line"/>
      <point x="249.0" y="6.0" type="line" smooth="yes"/>
      <point x="250.0" y="1.0"/>
      <point x="248.0" y="0.0"/>
      <point x="244.0" y="0.0" type="curve" smooth="yes"/>
      <point x="221.0" y="0.0" type="line" smooth="yes"/>
      <point x="217.0" y="0.0"/>
      <point x="216.0" y="1.0"/>
      <point x="215.0" y="6.0" type="curve" smooth="yes"/>
      <point x="144.0" y="507.0" type="line"/>
      <point x="60.0" y="6.0" type="line" smooth="yes"/>
      <point x="59.0" y="1.0"/>
      <point x="58.0" y="0.0"/>
    </contour>
  </outline>
</glyph>
<glyph name="y" format="2">
  <advance height="1104" width="300"/>
  <unicode hex="0079"/>
  <anchor x="169.0" y="1050.0" name="top"/>
  <outline>
    <contour>
      <point x="163.0" y="58.0" type="line"/>
      <point x="244.0" y="1044.0" type="line" smooth="yes"/>
      <point x="245.0" y="1048.0"/>
      <point x="247.0" y="1050.0"/>
      <point x="251.0" y="1050.0" type="curve" smooth="yes"/>
      <point x="267.0" y="1050.0" type="line" smooth="yes"/>
      <point x="271.0" y="1050.0"/>
      <point x="271.0" y="1048.0"/>
      <point x="270.0" y="1044.0" type="curve" smooth="yes"/>
      <point x="174.0" y="-64.0" type="line" smooth="yes"/>
      <point x="156.0" y="-222.0"/>
      <point x="133.0" y="-220.0"/>
      <point x="54.0" y="-208.0" type="curve" smooth="yes"/>
      <point x="47.0" y="-207.0"/>
      <point x="45.0" y="-205.0"/>
      <point x="45.0" y="-201.0" type="curve" smooth="yes"/>
      <point x="45.0" y="-182.0" type="line" smooth="yes"/>
      <point x="45.0" y="-178.0"/>
      <point x="47.0" y="-177.0"/>
      <point x="52.0" y="-178.0" type="curve" smooth="yes"/>
      <point x="120.0" y="-195.0"/>
      <point x="135.0" y="-198.0"/>
      <point x="152.0" y="-54.0" type="curve"/>
      <point x="45.0" y="1044.0" type="line" smooth="yes"/>
      <point x="44.0" y="1048.0"/>
      <point x="44.0" y="1050.0"/>
      <point x="48.0" y="1050.0" type="curve" smooth="yes"/>
      <point x="64.0" y="1050.0" type="line" smooth="yes"/>
      <point x="68.0" y="1050.0"/>
      <point x="70.0" y="1048.0"/>
      <point x="71.0" y="1044.0" type="curve" smooth="yes"/>
    </contour>
  </outline>
</glyph>
<glyph name="z" format="2">
  <advance height="1104" width="269"/>
  <unicode hex="007A"/>
  <anchor x="153.0" y="1050.0" name="top"/>
  <outline>
    <contour>
      <point x="36.0" y="6.0" type="curve" smooth="yes"/>
      <point x="206.0" y="1022.0" type="line"/>
      <point x="68.0" y="1022.0" type="line" smooth="yes"/>
      <point x="63.0" y="1022.0"/>
      <point x="62.0" y="1022.0"/>
      <point x="62.0" y="1027.0" type="curve" smooth="yes"/>
      <point x="62.0" y="1044.0" type="line" smooth="yes"/>
      <point x="62.0" y="1047.0"/>
      <point x="63.0" y="1050.0"/>
      <point x="68.0" y="1050.0" type="curve" smooth="yes"/>
      <point x="233.0" y="1050.0" type="line" smooth="yes"/>
      <point x="237.0" y="1050.0"/>
      <point x="239.0" y="1049.0"/>
      <point x="238.0" y="1044.0" type="curve" smooth="yes"/>
      <point x="69.0" y="28.0" type="line"/>
      <point x="229.0" y="28.0" type="line" smooth="yes"/>
      <point x="233.0" y="28.0"/>
      <point x="235.0" y="27.0"/>
      <point x="235.0" y="23.0" type="curve" smooth="yes"/>
      <point x="235.0" y="6.0" type="line" smooth="yes"/>
      <point x="235.0" y="2.0"/>
      <point x="233.0" y="0.0"/>
      <point x="229.0" y="0.0" type="curve" smooth="yes"/>
      <point x="40.0" y="0.0" type="line" smooth="yes"/>
      <point x="36.0" y="0.0"/>
      <point x="35.0" y="1.0"/>
    </contour>
  </outline>
</glyph>
<glyph name="braceleft" format="2">
  <advance height="2048" width="288"/>
  <unicode hex="007B"/>
  <outline>
    <contour>
      <point x="118.0" y="1439.0" type="line" smooth="yes"/>
      <point x="118.0" y="1553.0"/>
      <point x="128.0" y="1599.0"/>
      <point x="232.0" y="1600.0" type="curve" smooth="yes"/>
      <point x="236.0" y="1600.0"/>
      <point x="238.0" y="1599.0"/>
      <point x="238.0" y="1595.0" type="curve" smooth="yes"/>
      <point x="238.0" y="1580.0" type="line" smooth="yes"/>
      <point x="238.0" y="1576.0"/>
      <point x="236.0" y="1575.0"/>
      <point x="232.0" y="1575.0" type="curve" smooth="yes"/>
      <point x="172.0" y="1573.0"/>
      <point x="148.0" y="1556.0"/>
      <point x="148.0" y="1439.0" type="curve" smooth="yes"/>
      <point x="148.0" y="788.0" type="line" smooth="yes"/>
      <point x="148.0" y="696.0"/>
      <point x="131.0" y="644.0"/>
      <point x="73.0" y="620.0" type="curve"/>
      <point x="131.0" y="596.0"/>
      <point x="148.0" y="544.0"/>
      <point x="148.0" y="452.0" type="curve" smooth="yes"/>
      <point x="148.0" y="-199.0" type="line" smooth="yes"/>
      <point x="148.0" y="-305.0"/>
      <point x="173.0" y="-332.0"/>
      <point x="231.0" y="-335.0" type="curve" smooth="yes"/>
      <point x="236.0" y="-335.0"/>
      <point x="238.0" y="-336.0"/>
      <point x="238.0" y="-340.0" type="curve" smooth="yes"/>
      <point x="238.0" y="-355.0" type="line" smooth="yes"/>
      <point x="238.0" y="-359.0"/>
      <point x="236.0" y="-360.0"/>
      <point x="232.0" y="-360.0" type="curve" smooth="yes"/>
      <point x="129.0" y="-358.0"/>
      <point x="118.0" y="-313.0"/>
      <point x="118.0" y="-199.0" type="curve" smooth="yes"/>
      <point x="118.0" y="452.0" type="line" smooth="yes"/>
      <point x="118.0" y="538.0"/>
      <point x="99.0" y="590.0"/>
      <point x="51.0" y="606.0" type="curve" smooth="yes"/>
      <point x="47.0" y="608.0"/>
      <point x="45.0" y="609.0"/>
      <point x="45.0" y="613.0" type="curve" smooth="yes"/>
      <point x="45.0" y="627.0" type="line" smooth="yes"/>
      <point x="45.0" y="631.0"/>
      <point x="46.0" y="633.0"/>
      <point x="50.0" y="634.0" type="curve" smooth="yes"/>
      <point x="100.0" y="650.0"/>
      <point x="118.0" y="701.0"/>
      <point x="118.0" y="788.0" type="curve" smooth="yes"/>
    </contour>
  </outline>
</glyph>
<glyph name="bar" format="2">
  <advance height="1920" width="285"/>
  <unicode hex="007C"/>
  <outline>
    <contour>
      <point x="138.0" y="1600.0" type="curve" smooth="yes"/>
      <point x="148.0" y="1600.0" type="line" smooth="yes"/>
      <point x="155.0" y="1600.0"/>
      <point x="158.0" y="1597.0"/>
      <point x="158.0" y="1590.0" type="curve" smooth="yes"/>
      <point x="158.0" y="-350.0" type="line" smooth="yes"/>
      <point x="158.0" y="-357.0"/>
      <point x="155.0" y="-360.0"/>
      <point x="148.0" y="-360.0" type="curve" smooth="yes"/>
      <point x="138.0" y="-360.0" type="line" smooth="yes"/>
      <point x="131.0" y="-360.0"/>
      <point x="128.0" y="-357.0"/>
      <point x="128.0" y="-350.0" type="curve" smooth="yes"/>
      <point x="128.0" y="1590.0" type="line" smooth="yes"/>
      <point x="128.0" y="1597.0"/>
      <point x="131.0" y="1600.0"/>
    </contour>
  </outline>
</glyph>
<glyph name="braceright" format="2">
  <advance height="2048" width="288"/>
  <unicode hex="007D"/>
  <outline>
    <contour>
      <point x="170.0" y="-199.0" type="line" smooth="yes"/>
      <point x="170.0" y="-313.0"/>
      <point x="160.0" y="-359.0"/>
      <point x="56.0" y="-360.0" type="curve" smooth="yes"/>
      <point x="52.0" y="-360.0"/>
      <point x="50.0" y="-359.0"/>
      <point x="50.0" y="-355.0" type="curve" smooth="yes"/>
      <point x="50.0" y="-340.0" type="line" smooth="yes"/>
      <point x="50.0" y="-336.0"/>
      <point x="52.0" y="-335.0"/>
      <point x="56.0" y="-335.0" type="curve" smooth="yes"/>
      <point x="116.0" y="-333.0"/>
      <point x="140.0" y="-316.0"/>
      <point x="140.0" y="-199.0" type="curve" smooth="yes"/>
      <point x="140.0" y="452.0" type="line" smooth="yes"/>
      <point x="140.0" y="544.0"/>
      <point x="157.0" y="596.0"/>
      <point x="215.0" y="620.0" type="curve"/>
      <point x="157.0" y="644.0"/>
      <point x="140.0" y="696.0"/>
      <point x="140.0" y="788.0" type="curve" smooth="yes"/>
      <point x="140.0" y="1439.0" type="line" smooth="yes"/>
      <point x="140.0" y="1545.0"/>
      <point x="115.0" y="1572.0"/>
      <point x="57.0" y="1575.0" type="curve" smooth="yes"/>
      <point x="52.0" y="1575.0"/>
      <point x="50.0" y="1576.0"/>
      <point x="50.0" y="1580.0" type="curve" smooth="yes"/>
      <point x="50.0" y="1595.0" type="line" smooth="yes"/>
      <point x="50.0" y="1599.0"/>
      <point x="52.0" y="1600.0"/>
      <point x="56.0" y="1600.0" type="curve" smooth="yes"/>
      <point x="159.0" y="1598.0"/>
      <point x="170.0" y="1553.0"/>
      <point x="170.0" y="1439.0" type="curve" smooth="yes"/>
      <point x="170.0" y="788.0" type="line" smooth="yes"/>
      <point x="170.0" y="702.0"/>
      <point x="189.0" y="650.0"/>
      <point x="237.0" y="634.0" type="curve" smooth="yes"/>
      <point x="241.0" y="632.0"/>
      <point x="243.0" y="631.0"/>
      <point x="243.0" y="627.0" type="curve" smooth="yes"/>
      <point x="243.0" y="613.0" type="line" smooth="yes"/>
      <point x="243.0" y="609.0"/>
      <point x="242.0" y="607.0"/>
      <point x="238.0" y="606.0" type="curve" smooth="yes"/>
      <point x="188.0" y="590.0"/>
      <point x="170.0" y="539.0"/>
      <point x="170.0" y="452.0" type="curve" smooth="yes"/>
    </contour>
  </outline>
</glyph>
<glyph name="asciitilde" format="2">
  <advance height="2048" width="664"/>
  <unicode hex="007E"/>
  <outline>
    <contour>
      <point x="207.0" y="677.0" type="curve" smooth="yes"/>
      <point x="151.0" y="677.0"/>
      <point x="120.0" y="617.0"/>
      <point x="120.0" y="526.0" type="curve" smooth="yes"/>
      <point x="120.0" y="523.0"/>
      <point x="117.0" y="522.0"/>
      <point x="114.0" y="522.0" type="curve" smooth="yes"/>
      <point x="94.0" y="522.0" type="line" smooth="yes"/>
      <point x="90.0" y="522.0"/>
      <point x="90.0" y="523.0"/>
      <point x="90.0" y="526.0" type="curve" smooth="yes"/>
      <point x="92.0" y="630.0"/>
      <point x="125.0" y="707.0"/>
      <point x="210.0" y="707.0" type="curve" smooth="yes"/>
      <point x="325.0" y="707.0"/>
      <point x="361.0" y="534.0"/>
      <point x="457.0" y="534.0" type="curve" smooth="yes"/>
      <point x="513.0" y="534.0"/>
      <point x="545.0" y="593.0"/>
      <point x="545.0" y="684.0" type="curve" smooth="yes"/>
      <point x="545.0" y="688.0"/>
      <point x="547.0" y="689.0"/>
      <point x="550.0" y="689.0" type="curve" smooth="yes"/>
      <point x="569.0" y="689.0" type="line" smooth="yes"/>
      <point x="573.0" y="689.0"/>
      <point x="574.0" y="688.0"/>
      <point x="574.0" y="684.0" type="curve" smooth="yes"/>
      <point x="572.0" y="580.0"/>
      <point x="539.0" y="504.0"/>
      <point x="454.0" y="504.0" type="curve" smooth="yes"/>
      <point x="339.0" y="504.0"/>
      <point x="303.0" y="677.0"/>
    </contour>
  </outline>
</glyph>
<glyph name="exclamdown" format="2">
  <advance height="1920" width="275"/>
  <unicode hex="00A1"/>
  <outline>
    <contour>
      <point x="128.0" y="1050.0" type="curve" smooth="yes"/>
      <point x="148.0" y="1050.0" type="line" smooth="yes"/>
      <point x="155.0" y="1050.0"/>
      <point x="158.0" y="1047.0"/>
      <point x="158.0" y="1040.0" type="curve" smooth="yes"/>
      <point x="158.0" y="850.0" type="line" smooth="yes"/>
      <point x="158.0" y="843.0"/>
      <point x="155.0" y="840.0"/>
      <point x="148.0" y="840.0" type="curve" smooth="yes"/>
      <point x="128.0" y="840.0" type="line" smooth="yes"/>
      <point x="121.0" y="840.0"/>
      <point x="118.0" y="843.0"/>
      <point x="118.0" y="850.0" type="curve" smooth="yes"/>
      <point x="118.0" y="1040.0" type="line" smooth="yes"/>
      <point x="118.0" y="1047.0"/>
      <point x="121.0" y="1050.0"/>
    </contour>
    <contour>
      <point x="154.0" y="100.0" type="curve" smooth="yes"/>
      <point x="154.0" y="-390.0" type="line" smooth="yes"/>
      <point x="154.0" y="-397.0"/>
      <point x="151.0" y="-400.0"/>
      <point x="144.0" y="-400.0" type="curve" smooth="yes"/>
      <point x="134.0" y="-400.0" type="line" smooth="yes"/>
      <point x="127.0" y="-400.0"/>
      <point x="124.0" y="-397.0"/>
      <point x="124.0" y="-390.0" type="curve" smooth="yes"/>
      <point x="124.0" y="100.0" type="line" smooth="yes"/>
      <point x="124.0" y="107.0"/>
      <point x="123.0" y="193.0"/>
      <point x="124.0" y="200.0" type="curve" smooth="yes"/>
      <point x="128.0" y="610.0" type="line" smooth="yes"/>
      <point x="128.0" y="617.0"/>
      <point x="131.0" y="620.0"/>
      <point x="138.0" y="620.0" type="curve" smooth="yes"/>
      <point x="140.0" y="620.0" type="line" smooth="yes"/>
      <point x="147.0" y="620.0"/>
      <point x="150.0" y="617.0"/>
      <point x="150.0" y="610.0" type="curve" smooth="yes"/>
      <point x="152.0" y="200.0" type="line" smooth="yes"/>
      <point x="152.0" y="193.0"/>
      <point x="154.0" y="107.0"/>
    </contour>
  </outline>
</glyph>
<glyph name="currency" format="2">
  <advance width="1112"/>
  <unicode hex="00A4"/>
  <outline>
    <contour>
      <point x="769.0" y="941.0" type="curve" smooth="yes"/>
      <point x="783.0" y="927.0" type="line" smooth="yes"/>
      <point x="785.0" y="925.0"/>
      <point x="785.0" y="922.0"/>
      <point x="783.0" y="920.0" type="curve" smooth="yes"/>
      <point x="722.0" y="858.0" type="line" smooth="yes"/>
      <point x="720.0" y="856.0"/>
      <point x="717.0" y="856.0"/>
      <point x="715.0" y="858.0" type="curve" smooth="yes"/>
      <point x="701.0" y="872.0" type="line" smooth="yes"/>
      <point x="699.0" y="874.0"/>
      <point x="699.0" y="878.0"/>
      <point x="701.0" y="880.0" type="curve" smooth="yes"/>
      <point x="762.0" y="941.0" type="line" smooth="yes"/>
      <point x="764.0" y="943.0"/>
      <point x="767.0" y="943.0"/>
    </contour>
    <contour>
      <point x="385.0" y="557.0" type="curve" smooth="yes"/>
      <point x="399.0" y="543.0" type="line" smooth="yes"/>
      <point x="401.0" y="541.0"/>
      <point x="401.0" y="537.0"/>
      <point x="399.0" y="535.0" type="curve" smooth="yes"/>
      <point x="338.0" y="474.0" type="line" smooth="yes"/>
      <point x="336.0" y="472.0"/>
      <point x="333.0" y="472.0"/>
      <point x="331.0" y="474.0" type="curve" smooth="yes"/>
      <point x="317.0" y="488.0" type="line" smooth="yes"/>
      <point x="315.0" y="490.0"/>
      <point x="315.0" y="493.0"/>
      <point x="317.0" y="495.0" type="curve" smooth="yes"/>
      <point x="378.0" y="557.0" type="line" smooth="yes"/>
      <point x="380.0" y="559.0"/>
      <point x="383.0" y="559.0"/>
    </contour>
    <contour>
      <point x="317.0" y="927.0" type="curve" smooth="yes"/>
      <point x="331.0" y="941.0" type="line" smooth="yes"/>
      <point x="333.0" y="943.0"/>
      <point x="336.0" y="943.0"/>
      <point x="338.0" y="941.0" type="curve" smooth="yes"/>
      <point x="399.0" y="880.0" type="line" smooth="yes"/>
      <point x="401.0" y="878.0"/>
      <point x="401.0" y="874.0"/>
      <point x="399.0" y="872.0" type="curve" smooth="yes"/>
      <point x="385.0" y="858.0" type="line" smooth="yes"/>
      <point x="383.0" y="856.0"/>
      <point x="380.0" y="856.0"/>
      <point x="378.0" y="858.0" type="curve" smooth="yes"/>
      <point x="317.0" y="920.0" type="line" smooth="yes"/>
      <point x="315.0" y="922.0"/>
      <point x="315.0" y="925.0"/>
    </contour>
    <contour>
      <point x="701.0" y="543.0" type="curve" smooth="yes"/>
      <point x="715.0" y="557.0" type="line" smooth="yes"/>
      <point x="717.0" y="559.0"/>
      <point x="720.0" y="559.0"/>
      <point x="722.0" y="557.0" type="curve" smooth="yes"/>
      <point x="783.0" y="495.0" type="line" smooth="yes"/>
      <point x="785.0" y="493.0"/>
      <point x="785.0" y="490.0"/>
      <point x="783.0" y="488.0" type="curve" smooth="yes"/>
      <point x="769.0" y="474.0" type="line" smooth="yes"/>
      <point x="767.0" y="472.0"/>
      <point x="764.0" y="472.0"/>
      <point x="762.0" y="474.0" type="curve" smooth="yes"/>
      <point x="701.0" y="535.0" type="line" smooth="yes"/>
      <point x="699.0" y="537.0"/>
      <point x="699.0" y="541.0"/>
    </contour>
    <contour>
      <point x="306.0" y="709.0" type="curve" smooth="yes"/>
      <point x="306.0" y="843.0"/>
      <point x="418.0" y="954.0"/>
      <point x="552.0" y="954.0" type="curve" smooth="yes"/>
      <point x="686.0" y="954.0"/>
      <point x="796.0" y="843.0"/>
      <point x="796.0" y="709.0" type="curve" smooth="yes"/>
      <point x="796.0" y="575.0"/>
      <point x="686.0" y="464.0"/>
      <point x="552.0" y="464.0" type="curve" smooth="yes"/>
      <point x="418.0" y="464.0"/>
      <point x="306.0" y="575.0"/>
    </contour>
    <contour>
      <point x="336.0" y="709.0" type="curve" smooth="yes"/>
      <point x="336.0" y="595.0"/>
      <point x="428.0" y="494.0"/>
      <point x="552.0" y="494.0" type="curve" smooth="yes"/>
      <point x="676.0" y="494.0"/>
      <point x="766.0" y="595.0"/>
      <point x="766.0" y="709.0" type="curve" smooth="yes"/>
      <point x="766.0" y="823.0"/>
      <point x="676.0" y="924.0"/>
      <point x="552.0" y="924.0" type="curve" smooth="yes"/>
      <point x="428.0" y="924.0"/>
      <point x="336.0" y="823.0"/>
    </contour>
  </outline>
</glyph>
<glyph name="yen" format="2">
  <advance height="1920" width="390"/>
  <unicode hex="00A5"/>
  <outline>
    <contour>
      <point x="10.0" y="489.0" type="curve" smooth="yes"/>
      <point x="10.0" y="509.0" type="line" smooth="yes"/>
      <point x="10.0" y="513.0"/>
      <point x="11.0" y="514.0"/>
      <point x="15.0" y="514.0" type="curve" smooth="yes"/>
      <point x="375.0" y="514.0" type="line" smooth="yes"/>
      <point x="379.0" y="514.0"/>
      <point x="380.0" y="513.0"/>
      <point x="380.0" y="509.0" type="curve" smooth="yes"/>
      <point x="380.0" y="489.0" type="line" smooth="yes"/>
      <point x="380.0" y="485.0"/>
      <point x="379.0" y="484.0"/>
      <point x="375.0" y="484.0" type="curve" smooth="yes"/>
      <point x="15.0" y="484.0" type="line" smooth="yes"/>
      <point x="11.0" y="484.0"/>
      <point x="10.0" y="485.0"/>
    </contour>
    <contour>
      <point x="10.0" y="616.0" type="curve" smooth="yes"/>
      <point x="10.0" y="636.0" type="line" smooth="yes"/>
      <point x="10.0" y="640.0"/>
      <point x="11.0" y="641.0"/>
      <point x="15.0" y="641.0" type="curve" smooth="yes"/>
      <point x="375.0" y="641.0" type="line" smooth="yes"/>
      <point x="379.0" y="641.0"/>
      <point x="380.0" y="640.0"/>
      <point x="380.0" y="636.0" type="curve" smooth="yes"/>
      <point x="380.0" y="616.0" type="line" smooth="yes"/>
      <point x="380.0" y="612.0"/>
      <point x="379.0" y="611.0"/>
      <point x="375.0" y="611.0" type="curve" smooth="yes"/>
      <point x="15.0" y="611.0" type="line" smooth="yes"/>
      <point x="11.0" y="611.0"/>
      <point x="10.0" y="612.0"/>
    </contour>
    <component base="Y"/>
  </outline>
</glyph>
<glyph name="brokenbar" format="2">
  <advance height="1920" width="365"/>
  <unicode hex="00A6"/>
  <outline>
    <contour>
      <point x="173.0" y="430.0" type="curve" smooth="yes"/>
      <point x="193.0" y="430.0" type="line" smooth="yes"/>
      <point x="197.0" y="430.0"/>
      <point x="198.0" y="427.0"/>
      <point x="198.0" y="420.0" type="curve" smooth="yes"/>
      <point x="198.0" y="-350.0" type="line" smooth="yes"/>
      <point x="198.0" y="-357.0"/>
      <point x="197.0" y="-360.0"/>
      <point x="193.0" y="-360.0" type="curve" smooth="yes"/>
      <point x="173.0" y="-360.0" type="line" smooth="yes"/>
      <point x="169.0" y="-360.0"/>
      <point x="168.0" y="-357.0"/>
      <point x="168.0" y="-350.0" type="curve" smooth="yes"/>
      <point x="168.0" y="420.0" type="line" smooth="yes"/>
      <point x="168.0" y="427.0"/>
      <point x="169.0" y="430.0"/>
    </contour>
    <contour>
      <point x="173.0" y="1600.0" type="curve" smooth="yes"/>
      <point x="193.0" y="1600.0" type="line" smooth="yes"/>
      <point x="197.0" y="1600.0"/>
      <point x="198.0" y="1597.0"/>
      <point x="198.0" y="1590.0" type="curve" smooth="yes"/>
      <point x="198.0" y="820.0" type="line" smooth="yes"/>
      <point x="198.0" y="813.0"/>
      <point x="197.0" y="810.0"/>
      <point x="193.0" y="810.0" type="curve" smooth="yes"/>
      <point x="173.0" y="810.0" type="line" smooth="yes"/>
      <point x="169.0" y="810.0"/>
      <point x="168.0" y="813.0"/>
      <point x="168.0" y="820.0" type="curve" smooth="yes"/>
      <point x="168.0" y="1590.0" type="line" smooth="yes"/>
      <point x="168.0" y="1597.0"/>
      <point x="169.0" y="1600.0"/>
    </contour>
  </outline>
</glyph>
<glyph name="section" format="2">
  <advance height="1920" width="568"/>
  <unicode hex="00A7"/>
  <outline>
    <contour>
      <point x="254.0" y="890.0" type="line"/>
      <point x="182.0" y="890.0"/>
      <point x="119.0" y="776.0"/>
      <point x="119.0" y="598.0" type="curve" smooth="yes"/>
      <point x="119.0" y="431.0"/>
      <point x="167.0" y="344.0"/>
      <point x="258.0" y="241.0" type="curve" smooth="yes"/>
      <point x="378.0" y="105.0"/>
      <point x="410.0" y="47.0"/>
      <point x="410.0" y="-93.0" type="curve" smooth="yes"/>
      <point x="410.0" y="-265.0"/>
      <point x="363.0" y="-370.0"/>
      <point x="269.0" y="-370.0" type="curve" smooth="yes"/>
      <point x="172.0" y="-370.0"/>
      <point x="139.0" y="-267.0"/>
      <point x="132.0" y="-57.0" type="curve" smooth="yes"/>
      <point x="132.0" y="-51.0"/>
      <point x="134.0" y="-48.0"/>
      <point x="138.0" y="-48.0" type="curve" smooth="yes"/>
      <point x="159.0" y="-48.0" type="line" smooth="yes"/>
      <point x="163.0" y="-48.0"/>
      <point x="164.0" y="-51.0"/>
      <point x="164.0" y="-58.0" type="curve" smooth="yes"/>
      <point x="171.0" y="-238.0"/>
      <point x="197.0" y="-340.0"/>
      <point x="269.0" y="-340.0" type="curve" smooth="yes"/>
      <point x="343.0" y="-340.0"/>
      <point x="380.0" y="-243.0"/>
      <point x="380.0" y="-93.0" type="curve" smooth="yes"/>
      <point x="380.0" y="45.0"/>
      <point x="324.0" y="121.0"/>
      <point x="242.0" y="212.0" type="curve" smooth="yes"/>
      <point x="120.0" y="347.0"/>
      <point x="90.0" y="456.0"/>
      <point x="90.0" y="593.0" type="curve" smooth="yes"/>
      <point x="90.0" y="795.0"/>
      <point x="158.0" y="900.0"/>
      <point x="260.0" y="900.0" type="curve"/>
    </contour>
    <contour>
      <point x="314.0" y="145.0" type="line"/>
      <point x="386.0" y="145.0"/>
      <point x="449.0" y="259.0"/>
      <point x="449.0" y="437.0" type="curve" smooth="yes"/>
      <point x="449.0" y="604.0"/>
      <point x="401.0" y="691.0"/>
      <point x="310.0" y="794.0" type="curve" smooth="yes"/>
      <point x="190.0" y="930.0"/>
      <point x="158.0" y="988.0"/>
      <point x="158.0" y="1128.0" type="curve" smooth="yes"/>
      <point x="158.0" y="1300.0"/>
      <point x="205.0" y="1405.0"/>
      <point x="299.0" y="1405.0" type="curve" smooth="yes"/>
      <point x="396.0" y="1405.0"/>
      <point x="429.0" y="1302.0"/>
      <point x="436.0" y="1092.0" type="curve" smooth="yes"/>
      <point x="436.0" y="1086.0"/>
      <point x="434.0" y="1083.0"/>
      <point x="430.0" y="1083.0" type="curve" smooth="yes"/>
      <point x="409.0" y="1083.0" type="line" smooth="yes"/>
      <point x="405.0" y="1083.0"/>
      <point x="404.0" y="1086.0"/>
      <point x="404.0" y="1093.0" type="curve" smooth="yes"/>
      <point x="397.0" y="1273.0"/>
      <point x="371.0" y="1375.0"/>
      <point x="299.0" y="1375.0" type="curve" smooth="yes"/>
      <point x="225.0" y="1375.0"/>
      <point x="188.0" y="1278.0"/>
      <point x="188.0" y="1128.0" type="curve" smooth="yes"/>
      <point x="188.0" y="990.0"/>
      <point x="244.0" y="914.0"/>
      <point x="326.0" y="823.0" type="curve" smooth="yes"/>
      <point x="448.0" y="688.0"/>
      <point x="478.0" y="579.0"/>
      <point x="478.0" y="442.0" type="curve" smooth="yes"/>
      <point x="478.0" y="240.0"/>
      <point x="410.0" y="135.0"/>
      <point x="308.0" y="135.0" type="curve"/>
    </contour>
  </outline>
</glyph>
<glyph name="copyright" format="2">
  <advance width="844"/>
  <unicode hex="00A9"/>
  <outline>
    <contour>
      <point x="512.0" y="612.0" type="curve" smooth="yes"/>
      <point x="512.0" y="323.0"/>
      <point x="510.0" y="247.0"/>
      <point x="414.0" y="247.0" type="curve" smooth="yes"/>
      <point x="331.0" y="247.0"/>
      <point x="328.0" y="327.0"/>
      <point x="328.0" y="465.0" type="curve" smooth="yes"/>
      <point x="328.0" y="875.0" type="line" smooth="yes"/>
      <point x="328.0" y="1025.0"/>
      <point x="349.0" y="1093.0"/>
      <point x="423.0" y="1093.0" type="curve" smooth="yes"/>
      <point x="506.0" y="1093.0"/>
      <point x="509.0" y="983.0"/>
      <point x="509.0" y="770.0" type="curve" smooth="yes"/>
      <point x="509.0" y="768.0"/>
      <point x="508.0" y="767.0"/>
      <point x="506.0" y="767.0" type="curve" smooth="yes"/>
      <point x="494.0" y="767.0" type="line" smooth="yes"/>
      <point x="492.0" y="767.0"/>
      <point x="491.0" y="768.0"/>
      <point x="491.0" y="770.0" type="curve" smooth="yes"/>
      <point x="490.0" y="988.0"/>
      <point x="482.0" y="1075.0"/>
      <point x="423.0" y="1075.0" type="curve" smooth="yes"/>
      <point x="352.0" y="1075.0"/>
      <point x="346.0" y="995.0"/>
      <point x="346.0" y="878.0" type="curve" smooth="yes"/>
      <point x="346.0" y="462.0" type="line" smooth="yes"/>
      <point x="346.0" y="351.0"/>
      <point x="347.0" y="265.0"/>
      <point x="414.0" y="265.0" type="curve" smooth="yes"/>
      <point x="490.0" y="265.0"/>
      <point x="496.0" y="332.0"/>
      <point x="494.0" y="612.0" type="curve" smooth="yes"/>
      <point x="494.0" y="614.0"/>
      <point x="495.0" y="615.0"/>
      <point x="497.0" y="615.0" type="curve" smooth="yes"/>
      <point x="509.0" y="615.0" type="line" smooth="yes"/>
      <point x="511.0" y="615.0"/>
      <point x="512.0" y="614.0"/>
    </contour>
    <contour>
      <point x="769.0" y="668.0" type="curve" smooth="yes"/>
      <point x="769.0" y="284.0"/>
      <point x="735.0" y="-28.0"/>
      <point x="421.0" y="-28.0" type="curve" smooth="yes"/>
      <point x="107.0" y="-28.0"/>
      <point x="75.0" y="284.0"/>
      <point x="75.0" y="668.0" type="curve" smooth="yes"/>
      <point x="75.0" y="1052.0"/>
      <point x="107.0" y="1366.0"/>
      <point x="421.0" y="1366.0" type="curve" smooth="yes"/>
      <point x="735.0" y="1366.0"/>
      <point x="769.0" y="1052.0"/>
    </contour>
    <contour>
      <point x="739.0" y="668.0" type="curve" smooth="yes"/>
      <point x="739.0" y="1006.0"/>
      <point x="729.0" y="1336.0"/>
      <point x="421.0" y="1336.0" type="curve" smooth="yes"/>
      <point x="113.0" y="1336.0"/>
      <point x="105.0" y="1006.0"/>
      <point x="105.0" y="668.0" type="curve" smooth="yes"/>
      <point x="105.0" y="330.0"/>
      <point x="113.0" y="2.0"/>
      <point x="421.0" y="2.0" type="curve" smooth="yes"/>
      <point x="729.0" y="2.0"/>
      <point x="739.0" y="330.0"/>
    </contour>
  </outline>
</glyph>
<glyph name="registered" format="2">
  <advance width="844"/>
  <unicode hex="00AE"/>
  <outline>
    <contour>
      <point x="365.0" y="1102.0" type="line"/>
      <point x="365.0" y="712.0" type="line"/>
      <point x="404.0" y="712.0" type="line" smooth="yes"/>
      <point x="443.0" y="712.0"/>
      <point x="476.0" y="747.0"/>
      <point x="476.0" y="825.0" type="curve" smooth="yes"/>
      <point x="476.0" y="977.0" type="line" smooth="yes"/>
      <point x="476.0" y="1049.0"/>
      <point x="467.0" y="1102.0"/>
      <point x="404.0" y="1102.0" type="curve" smooth="yes"/>
    </contour>
    <contour>
      <point x="404.0" y="1120.0" type="line" smooth="yes"/>
      <point x="478.0" y="1120.0"/>
      <point x="494.0" y="1073.0"/>
      <point x="494.0" y="971.0" type="curve" smooth="yes"/>
      <point x="494.0" y="837.0" type="line" smooth="yes"/>
      <point x="494.0" y="729.0"/>
      <point x="445.0" y="703.0"/>
      <point x="404.0" y="703.0" type="curve"/>
      <point x="404.0" y="706.0" type="line"/>
      <point x="445.0" y="706.0"/>
      <point x="491.0" y="689.0"/>
      <point x="491.0" y="617.0" type="curve" smooth="yes"/>
      <point x="491.0" y="420.0" type="line" smooth="yes"/>
      <point x="491.0" y="349.0"/>
      <point x="500.0" y="318.0"/>
      <point x="514.0" y="298.0" type="curve" smooth="yes"/>
      <point x="516.0" y="294.0"/>
      <point x="517.0" y="294.0"/>
      <point x="517.0" y="292.0" type="curve" smooth="yes"/>
      <point x="517.0" y="283.0" type="line" smooth="yes"/>
      <point x="517.0" y="281.0"/>
      <point x="516.0" y="280.0"/>
      <point x="514.0" y="280.0" type="curve" smooth="yes"/>
      <point x="506.0" y="280.0" type="line" smooth="yes"/>
      <point x="504.0" y="280.0"/>
      <point x="503.0" y="280.0"/>
      <point x="501.0" y="282.0" type="curve" smooth="yes"/>
      <point x="484.0" y="306.0"/>
      <point x="473.0" y="334.0"/>
      <point x="473.0" y="420.0" type="curve" smooth="yes"/>
      <point x="473.0" y="626.0" type="line" smooth="yes"/>
      <point x="473.0" y="668.0"/>
      <point x="449.0" y="697.0"/>
      <point x="404.0" y="697.0" type="curve" smooth="yes"/>
      <point x="365.0" y="697.0" type="line"/>
      <point x="365.0" y="283.0" type="line" smooth="yes"/>
      <point x="365.0" y="281.0"/>
      <point x="364.0" y="280.0"/>
      <point x="362.0" y="280.0" type="curve" smooth="yes"/>
      <point x="350.0" y="280.0" type="line" smooth="yes"/>
      <point x="348.0" y="280.0"/>
      <point x="347.0" y="281.0"/>
      <point x="347.0" y="283.0" type="curve" smooth="yes"/>
      <point x="347.0" y="1117.0" type="line" smooth="yes"/>
      <point x="347.0" y="1119.0"/>
      <point x="348.0" y="1120.0"/>
      <point x="350.0" y="1120.0" type="curve" smooth="yes"/>
    </contour>
    <contour>
      <point x="769.0" y="668.0" type="curve" smooth="yes"/>
      <point x="769.0" y="284.0"/>
      <point x="735.0" y="-28.0"/>
      <point x="421.0" y="-28.0" type="curve" smooth="yes"/>
      <point x="107.0" y="-28.0"/>
      <point x="75.0" y="284.0"/>
      <point x="75.0" y="668.0" type="curve" smooth="yes"/>
      <point x="75.0" y="1052.0"/>
      <point x="107.0" y="1366.0"/>
      <point x="421.0" y="1366.0" type="curve" smooth="yes"/>
      <point x="735.0" y="1366.0"/>
      <point x="769.0" y="1052.0"/>
    </contour>
    <contour>
      <point x="739.0" y="668.0" type="curve" smooth="yes"/>
      <point x="739.0" y="1006.0"/>
      <point x="729.0" y="1336.0"/>
      <point x="421.0" y="1336.0" type="curve" smooth="yes"/>
      <point x="113.0" y="1336.0"/>
      <point x="105.0" y="1006.0"/>
      <point x="105.0" y="668.0" type="curve" smooth="yes"/>
      <point x="105.0" y="330.0"/>
      <point x="113.0" y="2.0"/>
      <point x="421.0" y="2.0" type="curve" smooth="yes"/>
      <point x="729.0" y="2.0"/>
      <point x="739.0" y="330.0"/>
    </contour>
  </outline>
</glyph>
<glyph name="plusminus" format="2">
  <advance width="576"/>
  <unicode hex="00B1"/>
  <outline>
    <contour>
      <point x="50.0" y="546.0" type="curve" smooth="yes"/>
      <point x="50.0" y="565.0" type="line" smooth="yes"/>
      <point x="50.0" y="569.0"/>
      <point x="52.0" y="570.0"/>
      <point x="56.0" y="570.0" type="curve" smooth="yes"/>
      <point x="520.0" y="570.0" type="line" smooth="yes"/>
      <point x="524.0" y="570.0"/>
      <point x="526.0" y="569.0"/>
      <point x="526.0" y="565.0" type="curve" smooth="yes"/>
      <point x="526.0" y="546.0" type="line" smooth="yes"/>
      <point x="526.0" y="542.0"/>
      <point x="524.0" y="540.0"/>
      <point x="520.0" y="540.0" type="curve" smooth="yes"/>
      <point x="56.0" y="540.0" type="line" smooth="yes"/>
      <point x="52.0" y="540.0"/>
      <point x="50.0" y="542.0"/>
    </contour>
    <contour>
      <point x="50.0" y="935.0" type="curve" smooth="yes"/>
      <point x="50.0" y="956.0" type="line" smooth="yes"/>
      <point x="50.0" y="960.0"/>
      <point x="52.0" y="960.0"/>
      <point x="56.0" y="960.0" type="curve" smooth="yes"/>
      <point x="520.0" y="960.0" type="line" smooth="yes"/>
      <point x="524.0" y="960.0"/>
      <point x="526.0" y="960.0"/>
      <point x="526.0" y="956.0" type="curve" smooth="yes"/>
      <point x="526.0" y="935.0" type="line" smooth="yes"/>
      <point x="526.0" y="931.0"/>
      <point x="524.0" y="930.0"/>
      <point x="520.0" y="930.0" type="curve" smooth="yes"/>
      <point x="56.0" y="930.0" type="line" smooth="yes"/>
      <point x="52.0" y="930.0"/>
      <point x="50.0" y="931.0"/>
    </contour>
    <contour>
      <point x="281.0" y="1168.0" type="curve" smooth="yes"/>
      <point x="305.0" y="1168.0" type="line" smooth="yes"/>
      <point x="309.0" y="1168.0"/>
      <point x="311.0" y="1166.0"/>
      <point x="311.0" y="1162.0" type="curve" smooth="yes"/>
      <point x="311.0" y="712.0" type="line" smooth="yes"/>
      <point x="311.0" y="708.0"/>
      <point x="309.0" y="708.0"/>
      <point x="305.0" y="708.0" type="curve" smooth="yes"/>
      <point x="281.0" y="708.0" type="line" smooth="yes"/>
      <point x="277.0" y="708.0"/>
      <point x="275.0" y="708.0"/>
      <point x="275.0" y="712.0" type="curve" smooth="yes"/>
      <point x="275.0" y="1162.0" type="line" smooth="yes"/>
      <point x="275.0" y="1166.0"/>
      <point x="277.0" y="1168.0"/>
    </contour>
  </outline>
</glyph>
<glyph name="acute" format="2">
  <advance width="311"/>
  <unicode hex="00B4"/>
  <outline>
    <contour>
      <point x="77.0" y="1104.0" type="line" smooth="yes"/>
      <point x="73.0" y="1104.0"/>
      <point x="73.0" y="1107.0"/>
      <point x="75.0" y="1114.0" type="curve" smooth="yes"/>
      <point x="176.0" y="1390.0" type="line" smooth="yes"/>
      <point x="178.0" y="1397.0"/>
      <point x="180.0" y="1400.0"/>
      <point x="184.0" y="1400.0" type="curve" smooth="yes"/>
      <point x="210.0" y="1400.0" type="line" smooth="yes"/>
      <point x="214.0" y="1400.0"/>
      <point x="212.0" y="1395.0"/>
      <point x="210.0" y="1390.0" type="curve" smooth="yes"/>
      <point x="97.0" y="1114.0" type="line" smooth="yes"/>
      <point x="95.0" y="1109.0"/>
      <point x="91.0" y="1104.0"/>
      <point x="87.0" y="1104.0" type="curve" smooth="yes"/>
    </contour>
  </outline>
</glyph>
<glyph name="mu" format="2">
  <advance height="1104" width="336"/>
  <unicode hex="00B5"/>
  <outline>
    <contour>
      <point x="82.0" y="1050.0" type="curve" smooth="yes"/>
      <point x="91.0" y="1050.0" type="line" smooth="yes"/>
      <point x="98.0" y="1050.0"/>
      <point x="101.0" y="1047.0"/>
      <point x="101.0" y="1040.0" type="curve" smooth="yes"/>
      <point x="101.0" y="-350.0" type="line" smooth="yes"/>
      <point x="101.0" y="-357.0"/>
      <point x="98.0" y="-360.0"/>
      <point x="91.0" y="-360.0" type="curve" smooth="yes"/>
      <point x="82.0" y="-360.0" type="line" smooth="yes"/>
      <point x="75.0" y="-360.0"/>
      <point x="72.0" y="-357.0"/>
      <point x="72.0" y="-350.0" type="curve" smooth="yes"/>
      <point x="72.0" y="1040.0" type="line" smooth="yes"/>
      <point x="72.0" y="1047.0"/>
      <point x="75.0" y="1050.0"/>
    </contour>
    <contour>
      <point x="260.0" y="0.0" type="curve" smooth="yes"/>
      <point x="244.0" y="0.0" type="line" smooth="yes"/>
      <point x="240.0" y="0.0"/>
      <point x="239.0" y="2.0"/>
      <point x="239.0" y="6.0" type="curve" smooth="yes"/>
      <point x="239.0" y="148.0" type="line"/>
      <point x="236.0" y="164.0" type="line"/>
      <point x="236.0" y="1044.0" type="line" smooth="yes"/>
      <point x="236.0" y="1048.0"/>
      <point x="239.0" y="1050.0"/>
      <point x="243.0" y="1050.0" type="curve" smooth="yes"/>
      <point x="260.0" y="1050.0" type="line" smooth="yes"/>
      <point x="264.0" y="1050.0"/>
      <point x="267.0" y="1048.0"/>
      <point x="267.0" y="1044.0" type="curve" smooth="yes"/>
      <point x="267.0" y="6.0" type="line" smooth="yes"/>
      <point x="267.0" y="2.0"/>
      <point x="264.0" y="0.0"/>
    </contour>
    <contour>
      <point x="244.0" y="211.0" type="line"/>
      <point x="244.0" y="83.0"/>
      <point x="211.0" y="-10.0"/>
      <point x="159.0" y="-10.0" type="curve" smooth="yes"/>
      <point x="100.0" y="-10.0"/>
      <point x="92.0" y="49.0"/>
      <point x="92.0" y="169.0" type="curve" smooth="yes"/>
      <point x="92.0" y="1024.0" type="line" smooth="yes"/>
      <point x="92.0" y="1028.0"/>
      <point x="89.0" y="1040.0"/>
      <point x="93.0" y="1040.0" type="curve" smooth="yes"/>
      <point x="96.0" y="1040.0" type="line" smooth="yes"/>
      <point x="100.0" y="1040.0"/>
      <point x="101.0" y="1028.0"/>
      <point x="101.0" y="1024.0" type="curve" smooth="yes"/>
      <point x="101.0" y="169.0" type="line" smooth="yes"/>
      <point x="101.0" y="87.0"/>
      <point x="107.0" y="17.0"/>
      <point x="157.0" y="17.0" type="curve" smooth="yes"/>
      <point x="205.0" y="17.0"/>
      <point x="236.0" y="124.0"/>
      <point x="236.0" y="245.0" type="curve"/>
    </contour>
  </outline>
</glyph>
<glyph name="paragraph" format="2">
  <advance height="1920" width="492"/>
  <unicode hex="00B6"/>
  <outline>
    <contour>
      <point x="382.0" y="1370.0" type="line"/>
      <point x="382.0" y="-350.0" type="line" smooth="yes"/>
      <point x="382.0" y="-357.0"/>
      <point x="381.0" y="-360.0"/>
      <point x="377.0" y="-360.0" type="curve" smooth="yes"/>
      <point x="357.0" y="-360.0" type="line" smooth="yes"/>
      <point x="353.0" y="-360.0"/>
      <point x="352.0" y="-357.0"/>
      <point x="352.0" y="-350.0" type="curve" smooth="yes"/>
      <point x="352.0" y="1370.0" type="line"/>
      <point x="282.0" y="1370.0" type="line"/>
      <point x="282.0" y="-350.0" type="line" smooth="yes"/>
      <point x="282.0" y="-357.0"/>
      <point x="281.0" y="-360.0"/>
      <point x="277.0" y="-360.0" type="curve" smooth="yes"/>
      <point x="257.0" y="-360.0" type="line" smooth="yes"/>
      <point x="253.0" y="-360.0"/>
      <point x="252.0" y="-357.0"/>
      <point x="252.0" y="-350.0" type="curve" smooth="yes"/>
      <point x="252.0" y="600.0" type="line"/>
      <point x="247.0" y="600.0" type="line" smooth="yes"/>
      <point x="143.0" y="600.0"/>
      <point x="50.0" y="698.0"/>
      <point x="50.0" y="968.0" type="curve" smooth="yes"/>
      <point x="50.0" y="1032.0" type="line" smooth="yes"/>
      <point x="50.0" y="1302.0"/>
      <point x="143.0" y="1400.0"/>
      <point x="247.0" y="1400.0" type="curve" smooth="yes"/>
      <point x="427.0" y="1400.0" type="line" smooth="yes"/>
      <point x="429.0" y="1400.0"/>
      <point x="432.0" y="1397.0"/>
      <point x="432.0" y="1390.0" type="curve" smooth="yes"/>
      <point x="432.0" y="1380.0" type="line" smooth="yes"/>
      <point x="432.0" y="1373.0"/>
      <point x="431.0" y="1370.0"/>
      <point x="427.0" y="1370.0" type="curve" smooth="yes"/>
    </contour>
  </outline>
</glyph>
<glyph name="uni00B9" format="2">
  <advance height="1920" width="258"/>
  <unicode hex="00B9"/>
  <outline>
    <contour>
      <point x="118.0" y="1465.0" type="curve" smooth="yes"/>
      <point x="126.0" y="1469.0"/>
      <point x="128.0" y="1478.0"/>
      <point x="129.0" y="1501.0" type="curve" smooth="yes"/>
      <point x="129.0" y="1505.0"/>
      <point x="129.0" y="1506.0"/>
      <point x="133.0" y="1506.0" type="curve" smooth="yes"/>
      <point x="140.0" y="1506.0" type="line" smooth="yes"/>
      <point x="144.0" y="1506.0"/>
      <point x="144.0" y="1505.0"/>
      <point x="144.0" y="1501.0" type="curve" smooth="yes"/>
      <point x="144.0" y="645.0" type="line" smooth="yes"/>
      <point x="144.0" y="641.0"/>
      <point x="143.0" y="640.0"/>
      <point x="139.0" y="640.0" type="curve" smooth="yes"/>
      <point x="119.0" y="640.0" type="line" smooth="yes"/>
      <point x="115.0" y="640.0"/>
      <point x="114.0" y="641.0"/>
      <point x="114.0" y="645.0" type="curve" smooth="yes"/>
      <point x="114.0" y="1459.0" type="line" smooth="yes"/>
      <point x="114.0" y="1463.0"/>
      <point x="116.0" y="1464.0"/>
    </contour>
  </outline>
</glyph>
<glyph name="AE" format="2">
  <advance height="1920" width="749"/>
  <unicode hex="00C6"/>
  <outline>
    <contour>
      <point x="179.0" y="465.0" type="line"/>
      <point x="399.0" y="465.0" type="line"/>
      <point x="399.0" y="435.0" type="line"/>
      <point x="179.0" y="435.0" type="line"/>
    </contour>
    <contour>
      <point x="413.0" y="1400.0" type="line"/>
      <point x="91.0" y="10.0" type="line" smooth="yes"/>
      <point x="87.0" y="4.0"/>
      <point x="85.0" y="0.0"/>
      <point x="78.0" y="0.0" type="curve" smooth="yes"/>
      <point x="69.0" y="0.0" type="line" smooth="yes"/>
      <point x="62.0" y="0.0"/>
      <point x="59.0" y="5.0"/>
      <point x="62.0" y="10.0" type="curve" smooth="yes"/>
      <point x="381.0" y="1390.0" type="line" smooth="yes"/>
      <point x="382.0" y="1396.0"/>
      <point x="387.0" y="1400.0"/>
      <point x="394.0" y="1400.0" type="curve" smooth="yes"/>
    </contour>
    <component base="E" xOffset="309.0"/>
  </outline>
</glyph>
<glyph name="germandbls" format="2">
  <advance height="1920" width="453"/>
  <unicode hex="00DF"/>
  <outline>
    <contour>
      <point x="105.0" y="1188.0" type="line" smooth="yes"/>
      <point x="105.0" y="1362.0"/>
      <point x="116.0" y="1487.0"/>
      <point x="191.0" y="1487.0" type="curve" smooth="yes"/>
      <point x="283.0" y="1487.0"/>
      <point x="296.0" y="1372.0"/>
      <point x="296.0" y="1205.0" type="curve" smooth="yes"/>
      <point x="296.0" y="1008.0"/>
      <point x="266.0" y="935.0"/>
      <point x="266.0" y="815.0" type="curve" smooth="yes"/>
      <point x="266.0" y="566.0"/>
      <point x="371.0" y="563.0"/>
      <point x="371.0" y="302.0" type="curve" smooth="yes"/>
      <point x="371.0" y="90.0"/>
      <point x="336.0" y="-5.0"/>
      <point x="226.0" y="-5.0" type="curve" smooth="yes"/>
      <point x="222.0" y="-5.0"/>
      <point x="222.0" y="-4.0"/>
      <point x="222.0" y="5.0" type="curve" smooth="yes"/>
      <point x="222.0" y="18.0" type="line" smooth="yes"/>
      <point x="222.0" y="27.0"/>
      <point x="222.0" y="28.0"/>
      <point x="226.0" y="28.0" type="curve" smooth="yes"/>
      <point x="308.0" y="29.0"/>
      <point x="341.0" y="124.0"/>
      <point x="341.0" y="302.0" type="curve" smooth="yes"/>
      <point x="341.0" y="545.0"/>
      <point x="236.0" y="544.0"/>
      <point x="236.0" y="815.0" type="curve" smooth="yes"/>
      <point x="236.0" y="957.0"/>
      <point x="266.0" y="1025.0"/>
      <point x="266.0" y="1205.0" type="curve" smooth="yes"/>
      <point x="266.0" y="1316.0"/>
      <point x="261.0" y="1457.0"/>
      <point x="196.0" y="1457.0" type="curve" smooth="yes"/>
      <point x="141.0" y="1457.0"/>
      <point x="136.0" y="1301.0"/>
      <point x="136.0" y="1168.0" type="curve" smooth="yes"/>
      <point x="136.0" y="10.0" type="line" smooth="yes"/>
      <point x="136.0" y="3.0"/>
      <point x="134.0" y="0.0"/>
      <point x="130.0" y="0.0" type="curve" smooth="yes"/>
      <point x="110.0" y="0.0" type="line" smooth="yes"/>
      <point x="106.0" y="0.0"/>
      <point x="105.0" y="3.0"/>
      <point x="105.0" y="10.0" type="curve" smooth="yes"/>
    </contour>
  </outline>
</glyph>
<glyph name="eth" format="2">
  <advance height="1920" width="372"/>
  <unicode hex="00F0"/>
  <outline>
    <contour>
      <point x="139.0" y="1242.0" type="curve" smooth="yes"/>
      <point x="130.0" y="1257.0" type="line" smooth="yes"/>
      <point x="128.0" y="1260.0"/>
      <point x="130.0" y="1261.0"/>
      <point x="133.0" y="1263.0" type="curve" smooth="yes"/>
      <point x="325.0" y="1388.0" type="line" smooth="yes"/>
      <point x="328.0" y="1390.0"/>
      <point x="330.0" y="1389.0"/>
      <point x="332.0" y="1386.0" type="curve" smooth="yes"/>
      <point x="341.0" y="1372.0" type="line" smooth="yes"/>
      <point x="343.0" y="1369.0"/>
      <point x="341.0" y="1368.0"/>
      <point x="338.0" y="1366.0" type="curve" smooth="yes"/>
      <point x="145.0" y="1240.0" type="line" smooth="yes"/>
      <point x="142.0" y="1238.0"/>
      <point x="141.0" y="1239.0"/>
    </contour>
    <contour>
      <point x="161.0" y="1025.0" type="curve" smooth="yes"/>
      <point x="96.0" y="1025.0"/>
      <point x="86.0" y="909.0"/>
      <point x="86.0" y="793.0" type="curve" smooth="yes"/>
      <point x="86.0" y="249.0" type="line" smooth="yes"/>
      <point x="86.0" y="124.0"/>
      <point x="101.0" y="25.0"/>
      <point x="181.0" y="25.0" type="curve" smooth="yes"/>
      <point x="269.0" y="25.0"/>
      <point x="278.0" y="132.0"/>
      <point x="278.0" y="237.0" type="curve" smooth="yes"/>
      <point x="278.0" y="873.0" type="line" smooth="yes"/>
      <point x="278.0" y="1236.0"/>
      <point x="253.0" y="1380.0"/>
      <point x="93.0" y="1441.0" type="curve" smooth="yes"/>
      <point x="88.0" y="1443.0"/>
      <point x="87.0" y="1445.0"/>
      <point x="89.0" y="1449.0" type="curve" smooth="yes"/>
      <point x="98.0" y="1471.0" type="line" smooth="yes"/>
      <point x="100.0" y="1475.0"/>
      <point x="101.0" y="1476.0"/>
      <point x="107.0" y="1474.0" type="curve" smooth="yes"/>
      <point x="294.0" y="1403.0"/>
      <point x="308.0" y="1203.0"/>
      <point x="308.0" y="965.0" type="curve" smooth="yes"/>
      <point x="308.0" y="269.0" type="line" smooth="yes"/>
      <point x="308.0" y="119.0"/>
      <point x="299.0" y="-5.0"/>
      <point x="181.0" y="-5.0" type="curve" smooth="yes"/>
      <point x="85.0" y="-5.0"/>
      <point x="56.0" y="90.0"/>
      <point x="56.0" y="229.0" type="curve" smooth="yes"/>
      <point x="56.0" y="807.0" type="line" smooth="yes"/>
      <point x="56.0" y="944.0"/>
      <point x="75.0" y="1055.0"/>
      <point x="153.0" y="1055.0" type="curve" smooth="yes"/>
      <point x="241.0" y="1055.0"/>
      <point x="285.0" y="952.0"/>
      <point x="285.0" y="855.0" type="curve"/>
      <point x="278.0" y="767.0" type="line"/>
      <point x="278.0" y="825.0" type="line" smooth="yes"/>
      <point x="278.0" y="917.0"/>
      <point x="226.0" y="1025.0"/>
    </contour>
  </outline>
</glyph>
<glyph name="divide" format="2">
  <advance height="2048" width="600"/>
  <unicode hex="00F7"/>
  <outline>
    <contour>
      <point x="50.0" y="684.0" type="curve" smooth="yes"/>
      <point x="50.0" y="704.0" type="line" smooth="yes"/>
      <point x="50.0" y="708.0"/>
      <point x="51.0" y="709.0"/>
      <point x="55.0" y="709.0" type="curve" smooth="yes"/>
      <point x="545.0" y="709.0" type="line" smooth="yes"/>
      <point x="549.0" y="709.0"/>
      <point x="550.0" y="708.0"/>
      <point x="550.0" y="704.0" type="curve" smooth="yes"/>
      <point x="550.0" y="684.0" type="line" smooth="yes"/>
      <point x="550.0" y="680.0"/>
      <point x="549.0" y="679.0"/>
      <point x="545.0" y="679.0" type="curve" smooth="yes"/>
      <point x="55.0" y="679.0" type="line" smooth="yes"/>
      <point x="51.0" y="679.0"/>
      <point x="50.0" y="680.0"/>
    </contour>
    <component base="period" xOffset="163.0" yOffset="240.0"/>
    <component base="period" xOffset="163.0" yOffset="930.0"/>
  </outline>
</glyph>
<glyph name="oslash" format="2">
  <advance height="1920" width="349"/>
  <unicode hex="00F8"/>
  <outline>
    <contour>
      <point x="226.0" y="1196.0" type="curve" smooth="yes"/>
      <point x="244.0" y="1194.0" type="line" smooth="yes"/>
      <point x="246.0" y="1194.0"/>
      <point x="246.0" y="1190.0"/>
      <point x="246.0" y="1187.0" type="curve" smooth="yes"/>
      <point x="126.0" y="-73.0" type="line" smooth="yes"/>
      <point x="126.0" y="-76.0"/>
      <point x="121.0" y="-75.0"/>
      <point x="118.0" y="-75.0" type="curve" smooth="yes"/>
      <point x="102.0" y="-73.0" type="line" smooth="yes"/>
      <point x="99.0" y="-73.0"/>
      <point x="100.0" y="-69.0"/>
      <point x="100.0" y="-66.0" type="curve" smooth="yes"/>
      <point x="220.0" y="1194.0" type="line" smooth="yes"/>
      <point x="220.0" y="1196.0"/>
      <point x="222.0" y="1197.0"/>
    </contour>
    <component base="o"/>
  </outline>
</glyph>
<glyph name="thorn" format="2">
  <advance height="1104" width="344"/>
  <unicode hex="00FE"/>
  <outline>
    <contour>
      <point x="76.0" y="1450.0" type="curve" smooth="yes"/>
      <point x="95.0" y="1450.0" type="line" smooth="yes"/>
      <point x="99.0" y="1450.0"/>
      <point x="101.0" y="1448.0"/>
      <point x="101.0" y="1444.0" type="curve" smooth="yes"/>
      <point x="101.0" y="-388.0" type="line" smooth="yes"/>
      <point x="101.0" y="-392.0"/>
      <point x="98.0" y="-394.0"/>
      <point x="94.0" y="-394.0" type="curve" smooth="yes"/>
      <point x="77.0" y="-394.0" type="line" smooth="yes"/>
      <point x="73.0" y="-394.0"/>
      <point x="70.0" y="-392.0"/>
      <point x="70.0" y="-388.0" type="curve" smooth="yes"/>
      <point x="70.0" y="1444.0" type="line" smooth="yes"/>
      <point x="70.0" y="1448.0"/>
      <point x="72.0" y="1450.0"/>
    </contour>
    <contour>
      <point x="92.0" y="829.0" type="line"/>
      <point x="92.0" y="990.0"/>
      <point x="120.0" y="1070.0"/>
      <point x="191.0" y="1070.0" type="curve" smooth="yes"/>
      <point x="242.0" y="1070.0"/>
      <point x="290.0" y="1029.0"/>
      <point x="290.0" y="845.0" type="curve" smooth="yes"/>
      <point x="290.0" y="224.0" type="line" smooth="yes"/>
      <point x="290.0" y="62.0"/>
      <point x="255.0" y="-10.0"/>
      <point x="189.0" y="-10.0" type="curve" smooth="yes"/>
      <point x="122.0" y="-10.0"/>
      <point x="90.0" y="81.0"/>
      <point x="90.0" y="242.0" type="curve"/>
      <point x="101.0" y="245.0" type="line"/>
      <point x="101.0" y="124.0"/>
      <point x="134.0" y="19.0"/>
      <point x="187.0" y="19.0" type="curve" smooth="yes"/>
      <point x="237.0" y="19.0"/>
      <point x="256.0" y="109.0"/>
      <point x="256.0" y="212.0" type="curve" smooth="yes"/>
      <point x="256.0" y="859.0" type="line" smooth="yes"/>
      <point x="256.0" y="985.0"/>
      <point x="229.0" y="1041.0"/>
      <point x="179.0" y="1041.0" type="curve" smooth="yes"/>
      <point x="128.0" y="1041.0"/>
      <point x="101.0" y="947.0"/>
      <point x="101.0" y="826.0" type="curve"/>
    </contour>
  </outline>
</glyph>
<glyph name="dcroat" format="2">
  <advance height="1920" width="344"/>
  <unicode hex="0111"/>
  <outline>
    <contour>
      <point x="136.0" y="1246.0" type="curve" smooth="yes"/>
      <point x="136.0" y="1266.0" type="line" smooth="yes"/>
      <point x="136.0" y="1270.0"/>
      <point x="136.0" y="1271.0"/>
      <point x="140.0" y="1271.0" type="curve" smooth="yes"/>
      <point x="356.0" y="1271.0" type="line" smooth="yes"/>
      <point x="360.0" y="1271.0"/>
      <point x="360.0" y="1270.0"/>
      <point x="360.0" y="1266.0" type="curve" smooth="yes"/>
      <point x="360.0" y="1246.0" type="line" smooth="yes"/>
      <point x="360.0" y="1242.0"/>
      <point x="360.0" y="1241.0"/>
      <point x="356.0" y="1241.0" type="curve" smooth="yes"/>
      <point x="140.0" y="1241.0" type="line" smooth="yes"/>
      <point x="136.0" y="1241.0"/>
      <point x="136.0" y="1242.0"/>
    </contour>
    <component base="d"/>
  </outline>
</glyph>
<glyph name="hbar" format="2">
  <advance height="1920" width="336"/>
  <unicode hex="0127"/>
  <outline>
    <contour>
      <point x="2.0" y="1271.0" type="curve" smooth="yes"/>
      <point x="2.0" y="1291.0" type="line" smooth="yes"/>
      <point x="2.0" y="1295.0"/>
      <point x="2.0" y="1296.0"/>
      <point x="6.0" y="1296.0" type="curve" smooth="yes"/>
      <point x="242.0" y="1296.0" type="line" smooth="yes"/>
      <point x="246.0" y="1296.0"/>
      <point x="246.0" y="1295.0"/>
      <point x="246.0" y="1291.0" type="curve" smooth="yes"/>
      <point x="246.0" y="1271.0" type="line" smooth="yes"/>
      <point x="246.0" y="1267.0"/>
      <point x="246.0" y="1266.0"/>
      <point x="242.0" y="1266.0" type="curve" smooth="yes"/>
      <point x="6.0" y="1266.0" type="line" smooth="yes"/>
      <point x="2.0" y="1266.0"/>
      <point x="2.0" y="1267.0"/>
    </contour>
    <component base="h"/>
  </outline>
</glyph>
<glyph name="dotlessi" format="2">
  <advance height="1104" width="168"/>
  <unicode hex="0131"/>
  <anchor x="84.0" y="1050.0" name="top"/>
  <outline>
    <contour>
      <point x="99.0" y="1044.0" type="curve" smooth="yes"/>
      <point x="99.0" y="6.0" type="line" smooth="yes"/>
      <point x="99.0" y="2.0"/>
      <point x="98.0" y="0.0"/>
      <point x="94.0" y="0.0" type="curve" smooth="yes"/>
      <point x="75.0" y="0.0" type="line" smooth="yes"/>
      <point x="71.0" y="0.0"/>
      <point x="69.0" y="2.0"/>
      <point x="69.0" y="6.0" type="curve" smooth="yes"/>
      <point x="69.0" y="1044.0" type="line" smooth="yes"/>
      <point x="69.0" y="1048.0"/>
      <point x="71.0" y="1050.0"/>
      <point x="75.0" y="1050.0" type="curve" smooth="yes"/>
      <point x="94.0" y="1050.0" type="line" smooth="yes"/>
      <point x="98.0" y="1050.0"/>
      <point x="99.0" y="1048.0"/>
    </contour>
  </outline>
</glyph>
<glyph name="Lslash" format="2">
  <advance height="1920" width="273"/>
  <unicode hex="0141"/>
  <outline>
    <contour>
      <point x="196.0" y="957.0" type="curve" smooth="yes"/>
      <point x="206.0" y="939.0" type="line" smooth="yes"/>
      <point x="208.0" y="936.0"/>
      <point x="207.0" y="934.0"/>
      <point x="204.0" y="932.0" type="curve" smooth="yes"/>
      <point x="-26.0" y="799.0" type="line" smooth="yes"/>
      <point x="-29.0" y="797.0"/>
      <point x="-31.0" y="798.0"/>
      <point x="-33.0" y="801.0" type="curve" smooth="yes"/>
      <point x="-43.0" y="819.0" type="line" smooth="yes"/>
      <point x="-45.0" y="822.0"/>
      <point x="-44.0" y="824.0"/>
      <point x="-41.0" y="826.0" type="curve" smooth="yes"/>
      <point x="189.0" y="959.0" type="line" smooth="yes"/>
      <point x="192.0" y="961.0"/>
      <point x="194.0" y="960.0"/>
    </contour>
    <component base="L"/>
  </outline>
</glyph>
<glyph name="Eng" format="2">
  <advance height="960" width="400"/>
  <unicode hex="014A"/>
  <outline>
    <contour>
      <point x="307.0" y="1400.0" type="curve" smooth="yes"/>
      <point x="327.0" y="1400.0" type="line" smooth="yes"/>
      <point x="331.0" y="1400.0"/>
      <point x="332.0" y="1399.0"/>
      <point x="332.0" y="1395.0" type="curve" smooth="yes"/>
      <point x="332.0" y="-55.0" type="line" smooth="yes"/>
      <point x="332.0" y="-174.0"/>
      <point x="319.0" y="-223.0"/>
      <point x="206.0" y="-202.0" type="curve" smooth="yes"/>
      <point x="201.0" y="-201.0"/>
      <point x="200.0" y="-200.0"/>
      <point x="200.0" y="-196.0" type="curve" smooth="yes"/>
      <point x="200.0" y="-180.0" type="line" smooth="yes"/>
      <point x="200.0" y="-176.0"/>
      <point x="202.0" y="-175.0"/>
      <point x="206.0" y="-176.0" type="curve" smooth="yes"/>
      <point x="293.0" y="-193.0"/>
      <point x="302.0" y="-158.0"/>
      <point x="302.0" y="-74.0" type="curve" smooth="yes"/>
      <point x="302.0" y="69.0" type="line"/>
      <point x="100.0" y="1248.0" type="line"/>
      <point x="100.0" y="5.0" type="line" smooth="yes"/>
      <point x="100.0" y="1.0"/>
      <point x="99.0" y="0.0"/>
      <point x="95.0" y="0.0" type="curve" smooth="yes"/>
      <point x="75.0" y="0.0" type="line" smooth="yes"/>
      <point x="71.0" y="0.0"/>
      <point x="70.0" y="1.0"/>
      <point x="70.0" y="5.0" type="curve" smooth="yes"/>
      <point x="70.0" y="1395.0" type="line" smooth="yes"/>
      <point x="70.0" y="1399.0"/>
      <point x="71.0" y="1400.0"/>
      <point x="75.0" y="1400.0" type="curve" smooth="yes"/>
      <point x="90.0" y="1400.0" type="line" smooth="yes"/>
      <point x="94.0" y="1400.0"/>
      <point x="98.0" y="1399.0"/>
      <point x="99.0" y="1395.0" type="curve" smooth="yes"/>
      <point x="302.0" y="215.0" type="line"/>
      <point x="302.0" y="1395.0" type="line" smooth="yes"/>
      <point x="302.0" y="1399.0"/>
      <point x="303.0" y="1400.0"/>
    </contour>
  </outline>
</glyph>
<glyph name="eng" format="2">
  <advance height="1104" width="336"/>
  <unicode hex="014B"/>
  <outline>
    <contour>
      <point x="78.0" y="1050.0" type="curve" smooth="yes"/>
      <point x="94.0" y="1050.0" type="line" smooth="yes"/>
      <point x="98.0" y="1050.0"/>
      <point x="99.0" y="1048.0"/>
      <point x="99.0" y="1044.0" type="curve" smooth="yes"/>
      <point x="99.0" y="902.0" type="line"/>
      <point x="102.0" y="886.0" type="line"/>
      <point x="102.0" y="6.0" type="line" smooth="yes"/>
      <point x="102.0" y="2.0"/>
      <point x="100.0" y="0.0"/>
      <point x="96.0" y="0.0" type="curve" smooth="yes"/>
      <point x="78.0" y="0.0" type="line" smooth="yes"/>
      <point x="74.0" y="0.0"/>
      <point x="72.0" y="2.0"/>
      <point x="72.0" y="6.0" type="curve" smooth="yes"/>
      <point x="72.0" y="1044.0" type="line" smooth="yes"/>
      <point x="72.0" y="1048.0"/>
      <point x="74.0" y="1050.0"/>
    </contour>
    <contour>
      <point x="267.0" y="-55.0" type="line" smooth="yes"/>
      <point x="267.0" y="-174.0"/>
      <point x="254.0" y="-223.0"/>
      <point x="141.0" y="-202.0" type="curve" smooth="yes"/>
      <point x="136.0" y="-201.0"/>
      <point x="135.0" y="-200.0"/>
      <point x="135.0" y="-196.0" type="curve" smooth="yes"/>
      <point x="135.0" y="-180.0" type="line" smooth="yes"/>
      <point x="135.0" y="-176.0"/>
      <point x="137.0" y="-175.0"/>
      <point x="141.0" y="-176.0" type="curve" smooth="yes"/>
      <point x="228.0" y="-193.0"/>
      <point x="238.0" y="-158.0"/>
      <point x="238.0" y="-74.0" type="curve" smooth="yes"/>
      <point x="238.0" y="881.0" type="line" smooth="yes"/>
      <point x="238.0" y="963.0"/>
      <point x="231.0" y="1033.0"/>
      <point x="181.0" y="1033.0" type="curve" smooth="yes"/>
      <point x="133.0" y="1033.0"/>
      <point x="102.0" y="926.0"/>
      <point x="102.0" y="805.0" type="curve"/>
      <point x="94.0" y="839.0" type="line"/>
      <point x="94.0" y="967.0"/>
      <point x="117.0" y="1060.0"/>
      <point x="189.0" y="1060.0" type="curve" smooth="yes"/>
      <point x="248.0" y="1060.0"/>
      <point x="267.0" y="1001.0"/>
      <point x="267.0" y="881.0" type="curve" smooth="yes"/>
    </contour>
  </outline>
</glyph>
<glyph name="OE" format="2">
  <advance height="1920" width="596"/>
  <unicode hex="0152"/>
  <outline>
    <contour>
      <point x="235.0" y="1400.0" type="curve" smooth="yes"/>
      <point x="327.0" y="1400.0" type="line" smooth="yes"/>
      <point x="331.0" y="1400.0"/>
      <point x="332.0" y="1399.0"/>
      <point x="332.0" y="1395.0" type="curve" smooth="yes"/>
      <point x="332.0" y="5.0" type="line" smooth="yes"/>
      <point x="332.0" y="1.0"/>
      <point x="331.0" y="0.0"/>
      <point x="327.0" y="0.0" type="curve" smooth="yes"/>
      <point x="235.0" y="0.0" type="line" smooth="yes"/>
      <point x="112.0" y="0.0"/>
      <point x="55.0" y="125.0"/>
      <point x="55.0" y="378.0" type="curve" smooth="yes"/>
      <point x="55.0" y="1031.0" type="line" smooth="yes"/>
      <point x="55.0" y="1284.0"/>
      <point x="92.0" y="1400.0"/>
    </contour>
    <contour>
      <point x="235.0" y="1370.0" type="line" smooth="yes"/>
      <point x="111.0" y="1370.0"/>
      <point x="85.0" y="1245.0"/>
      <point x="85.0" y="1036.0" type="curve" smooth="yes"/>
      <point x="85.0" y="374.0" type="line" smooth="yes"/>
      <point x="85.0" y="165.0"/>
      <point x="132.0" y="30.0"/>
      <point x="235.0" y="30.0" type="curve" smooth="yes"/>
      <point x="302.0" y="30.0" type="line"/>
      <point x="302.0" y="1370.0" type="line"/>
    </contour>
    <component base="E" xOffset="226.0"/>
  </outline>
</glyph>
<glyph name="oe" format="2">
  <advance height="1104" width="531"/>
  <unicode hex="0153"/>
  <outline>
    <contour>
      <point x="61.0" y="221.0" type="curve" smooth="yes"/>
      <point x="61.0" y="831.0" type="line" smooth="yes"/>
      <point x="61.0" y="998.0"/>
      <point x="103.0" y="1060.0"/>
      <point x="175.0" y="1060.0" type="curve" smooth="yes"/>
      <point x="247.0" y="1060.0"/>
      <point x="280.0" y="998.0"/>
      <point x="280.0" y="831.0" type="curve" smooth="yes"/>
      <point x="280.0" y="221.0" type="line" smooth="yes"/>
      <point x="280.0" y="54.0"/>
      <point x="247.0" y="-10.0"/>
      <point x="175.0" y="-10.0" type="curve" smooth="yes"/>
      <point x="103.0" y="-10.0"/>
      <point x="61.0" y="54.0"/>
    </contour>
    <contour>
      <point x="92.0" y="208.0" type="line" smooth="yes"/>
      <point x="92.0" y="87.0"/>
      <point x="121.0" y="18.0"/>
      <point x="175.0" y="18.0" type="curve" smooth="yes"/>
      <point x="229.0" y="18.0"/>
      <point x="258.0" y="87.0"/>
      <point x="258.0" y="208.0" type="curve" smooth="yes"/>
      <point x="258.0" y="843.0" type="line" smooth="yes"/>
      <point x="258.0" y="964.0"/>
      <point x="229.0" y="1032.0"/>
      <point x="175.0" y="1032.0" type="curve" smooth="yes"/>
      <point x="121.0" y="1032.0"/>
      <point x="92.0" y="964.0"/>
      <point x="92.0" y="843.0" type="curve" smooth="yes"/>
    </contour>
    <contour>
      <point x="468.0" y="398.0" type="curve" smooth="yes"/>
      <point x="460.0" y="110.0"/>
      <point x="456.0" y="-10.0"/>
      <point x="368.0" y="-10.0" type="curve" smooth="yes"/>
      <point x="295.0" y="-10.0"/>
      <point x="270.0" y="80.0"/>
      <point x="270.0" y="258.0" type="curve" smooth="yes"/>
      <point x="270.0" y="793.0" type="line" smooth="yes"/>
      <point x="270.0" y="965.0"/>
      <point x="293.0" y="1060.0"/>
      <point x="369.0" y="1060.0" type="curve" smooth="yes"/>
      <point x="441.0" y="1060.0"/>
      <point x="460.0" y="979.0"/>
      <point x="467.0" y="824.0" type="curve" smooth="yes"/>
      <point x="473.0" y="698.0"/>
      <point x="472.0" y="628.0"/>
      <point x="472.0" y="502.0" type="curve" smooth="yes"/>
      <point x="472.0" y="500.0"/>
      <point x="471.0" y="497.0"/>
      <point x="467.0" y="497.0" type="curve" smooth="yes"/>
      <point x="277.0" y="497.0" type="line"/>
      <point x="277.0" y="523.0" type="line"/>
      <point x="445.0" y="523.0" type="line"/>
      <point x="443.0" y="970.0"/>
      <point x="423.0" y="1033.0"/>
      <point x="369.0" y="1033.0" type="curve" smooth="yes"/>
      <point x="313.0" y="1033.0"/>
      <point x="290.0" y="935.0"/>
      <point x="290.0" y="805.0" type="curve" smooth="yes"/>
      <point x="290.0" y="245.0" type="line" smooth="yes"/>
      <point x="290.0" y="111.0"/>
      <point x="313.0" y="17.0"/>
      <point x="369.0" y="17.0" type="curve" smooth="yes"/>
      <point x="428.0" y="17.0"/>
      <point x="439.0" y="115.0"/>
      <point x="447.0" y="400.0" type="curve" smooth="yes"/>
      <point x="447.0" y="402.0"/>
      <point x="450.0" y="403.0"/>
      <point x="454.0" y="403.0" type="curve" smooth="yes"/>
      <point x="464.0" y="403.0" type="line" smooth="yes"/>
      <point x="468.0" y="403.0"/>
      <point x="468.0" y="401.0"/>
    </contour>
  </outline>
</glyph>
<glyph name="Tbar" format="2">
  <advance height="1920" width="369"/>
  <unicode hex="0166"/>
  <outline>
    <contour>
      <point x="14.0" y="706.0" type="curve" smooth="yes"/>
      <point x="14.0" y="726.0" type="line" smooth="yes"/>
      <point x="14.0" y="730.0"/>
      <point x="16.0" y="731.0"/>
      <point x="20.0" y="731.0" type="curve" smooth="yes"/>
      <point x="334.0" y="731.0" type="line" smooth="yes"/>
      <point x="338.0" y="731.0"/>
      <point x="340.0" y="730.0"/>
      <point x="340.0" y="726.0" type="curve" smooth="yes"/>
      <point x="340.0" y="706.0" type="line" smooth="yes"/>
      <point x="340.0" y="702.0"/>
      <point x="338.0" y="701.0"/>
      <point x="334.0" y="701.0" type="curve" smooth="yes"/>
      <point x="20.0" y="701.0" type="line" smooth="yes"/>
      <point x="16.0" y="701.0"/>
      <point x="14.0" y="702.0"/>
    </contour>
    <component base="T"/>
  </outline>
</glyph>
<glyph name="tbar" format="2">
  <advance height="1920" width="215"/>
  <unicode hex="0167"/>
  <outline>
    <contour>
      <point x="28.0" y="636.0" type="curve" smooth="yes"/>
      <point x="28.0" y="656.0" type="line" smooth="yes"/>
      <point x="28.0" y="660.0"/>
      <point x="29.0" y="661.0"/>
      <point x="33.0" y="661.0" type="curve" smooth="yes"/>
      <point x="193.0" y="661.0" type="line" smooth="yes"/>
      <point x="197.0" y="661.0"/>
      <point x="198.0" y="660.0"/>
      <point x="198.0" y="656.0" type="curve" smooth="yes"/>
      <point x="198.0" y="636.0" type="line" smooth="yes"/>
      <point x="198.0" y="632.0"/>
      <point x="197.0" y="631.0"/>
      <point x="193.0" y="631.0" type="curve" smooth="yes"/>
      <point x="33.0" y="631.0" type="line" smooth="yes"/>
      <point x="29.0" y="631.0"/>
      <point x="28.0" y="632.0"/>
    </contour>
    <component base="t"/>
  </outline>
</glyph>
<glyph name="longs" format="2">
  <advance height="1104" width="217"/>
  <unicode hex="017F"/>
  <outline>
    <contour>
      <point x="93.0" y="1315.0" type="line" smooth="yes"/>
      <point x="93.0" y="1434.0"/>
      <point x="100.0" y="1476.0"/>
      <point x="203.0" y="1461.0" type="curve" smooth="yes"/>
      <point x="209.0" y="1460.0"/>
      <point x="210.0" y="1458.0"/>
      <point x="210.0" y="1454.0" type="curve" smooth="yes"/>
      <point x="210.0" y="1442.0" type="line" smooth="yes"/>
      <point x="210.0" y="1438.0"/>
      <point x="207.0" y="1436.0"/>
      <point x="200.0" y="1437.0" type="curve" smooth="yes"/>
      <point x="121.0" y="1448.0"/>
      <point x="124.0" y="1398.0"/>
      <point x="124.0" y="1315.0" type="curve" smooth="yes"/>
      <point x="124.0" y="6.0" type="line" smooth="yes"/>
      <point x="124.0" y="2.0"/>
      <point x="121.0" y="0.0"/>
      <point x="117.0" y="0.0" type="curve" smooth="yes"/>
      <point x="99.0" y="0.0" type="line" smooth="yes"/>
      <point x="95.0" y="0.0"/>
      <point x="93.0" y="2.0"/>
      <point x="93.0" y="6.0" type="curve" smooth="yes"/>
    </contour>
  </outline>
</glyph>
<glyph name="uni0259" format="2">
  <advance height="1104" width="336"/>
  <unicode hex="0259"/>
  <outline>
    <contour>
      <point x="69.0" y="652.0" type="curve" smooth="yes"/>
      <point x="77.0" y="940.0"/>
      <point x="81.0" y="1060.0"/>
      <point x="169.0" y="1060.0" type="curve" smooth="yes"/>
      <point x="242.0" y="1060.0"/>
      <point x="277.0" y="970.0"/>
      <point x="277.0" y="792.0" type="curve" smooth="yes"/>
      <point x="277.0" y="257.0" type="line" smooth="yes"/>
      <point x="277.0" y="85.0"/>
      <point x="244.0" y="-10.0"/>
      <point x="168.0" y="-10.0" type="curve" smooth="yes"/>
      <point x="96.0" y="-10.0"/>
      <point x="77.0" y="71.0"/>
      <point x="70.0" y="226.0" type="curve" smooth="yes"/>
      <point x="64.0" y="352.0"/>
      <point x="65.0" y="422.0"/>
      <point x="65.0" y="548.0" type="curve" smooth="yes"/>
      <point x="65.0" y="550.0"/>
      <point x="66.0" y="553.0"/>
      <point x="70.0" y="553.0" type="curve" smooth="yes"/>
      <point x="260.0" y="553.0" type="line"/>
      <point x="260.0" y="527.0" type="line"/>
      <point x="92.0" y="527.0" type="line"/>
      <point x="94.0" y="80.0"/>
      <point x="114.0" y="17.0"/>
      <point x="168.0" y="17.0" type="curve" smooth="yes"/>
      <point x="224.0" y="17.0"/>
      <point x="247.0" y="115.0"/>
      <point x="247.0" y="245.0" type="curve" smooth="yes"/>
      <point x="247.0" y="805.0" type="line" smooth="yes"/>
      <point x="247.0" y="939.0"/>
      <point x="224.0" y="1033.0"/>
      <point x="168.0" y="1033.0" type="curve" smooth="yes"/>
      <point x="109.0" y="1033.0"/>
      <point x="98.0" y="935.0"/>
      <point x="90.0" y="650.0" type="curve" smooth="yes"/>
      <point x="90.0" y="648.0"/>
      <point x="87.0" y="647.0"/>
      <point x="83.0" y="647.0" type="curve" smooth="yes"/>
      <point x="73.0" y="647.0" type="line" smooth="yes"/>
      <point x="69.0" y="647.0"/>
      <point x="69.0" y="649.0"/>
    </contour>
  </outline>
</glyph>
